<?xml version="1.0" encoding="UTF-8"?>
<!DOCTYPE svg PUBLIC "-//W3C//DTD SVG 1.1//EN" "http://www.w3.org/Graphics/SVG/1.1/DTD/svg11.dtd">
<!-- Creator: CorelDRAW -->
<svg xmlns="http://www.w3.org/2000/svg" xml:space="preserve" width="17.69mm" height="32.285mm" version="1.1" style="shape-rendering:geometricPrecision; text-rendering:geometricPrecision; image-rendering:optimizeQuality; fill-rule:evenodd; clip-rule:evenodd"
viewBox="0 0 1769 3228.5"
 xmlns:xlink="http://www.w3.org/1999/xlink"
 xmlns:xodm="http://www.corel.com/coreldraw/odm/2003">
 <defs>
  <style type="text/css">
   <![CDATA[
    .fil0 {fill:white;fill-rule:nonzero}
   ]]>
  </style>
 </defs>
 <g id="Слой_x0020_1">
  <metadata id="CorelCorpID_0Corel-Layer"/>
  <path class="fil0" d="M954.09 922.81l0 556.61c2.13,-0.86 4.28,-1.69 6.45,-2.48 17.44,-6.36 36.46,-10.5 56.32,-11.62 18.1,-1.02 36.97,0.47 56.03,5.06 17.62,4.24 35.36,11.13 52.78,21.14 12.68,7.3 24.79,15.96 36.52,25.24 12.21,9.65 23.05,19.08 33.71,28.37 34.09,29.65 66.16,57.55 84.57,47.55 9.36,-5.07 19.06,-16.51 28.66,-32.83 7.07,-12 13.95,-26.51 20.5,-42.97 -4.66,-17.16 -8.94,-35.9 -12.78,-56.12 -4.03,-21.23 -7.59,-43.95 -10.59,-68.03 -3.2,-25.61 -5.84,-53.11 -8.2,-81.48 -2.29,-27.59 -4.39,-57.1 -6.47,-86.45 -2.69,-37.98 -5.37,-75.72 -8.48,-109.3 -3.19,-34.44 -6.94,-66.31 -11.83,-93.24 -4.16,-22.98 -9.16,-42.51 -14.7,-59.18 -5.48,-16.47 -11.49,-30.15 -17.75,-41.59 -2.11,-3.86 -4.26,-7.46 -6.42,-10.83 -1.32,1.5 -2.75,2.89 -4.3,4.15 -6.12,4.99 -13.93,8 -22.37,8l-251.65 0zm744.39 762.41c1.81,0.83 3.44,1.98 4.83,3.37 3.03,3 4.91,7.17 4.91,11.77l0 65.98c16.47,13.44 30.3,32.72 40.11,55.83 10.26,24.17 16.18,52.6 16.18,82.96 0,43.46 -12.13,82.96 -31.75,111.68 -20.34,29.79 -48.77,48.21 -80.47,48.21 -31.71,0 -60.14,-18.42 -80.48,-48.21 -19.62,-28.72 -31.75,-68.22 -31.75,-111.68 0,-29.96 5.77,-58.04 15.76,-81.99 9.45,-22.62 22.75,-41.63 38.62,-55.19 -0.02,-0.38 -0.04,-0.76 -0.04,-1.15l0 -66.44c0,-4.57 1.88,-8.73 4.89,-11.75l0.04 -0.04c0.66,-0.66 1.39,-1.28 2.16,-1.83 -0.97,-91.05 -2.19,-179.59 -4.31,-259.08 -2.15,-80.79 -5.26,-152.19 -10.02,-207.28 -1.73,-20.05 -3.66,-37.66 -5.79,-53.12 -0.66,3.72 -1.3,7.6 -1.93,11.64 -2.46,15.83 -4.74,34.29 -6.93,55.89 -0.91,9.08 -1.85,19.25 -2.82,30.11l0.04 0.01 -3.19 36.84c-3.55,41.47 -7.42,86.75 -12.7,129.71 -5.3,43.19 -12.03,84.11 -21.28,116.66 -4.9,17.24 -10.57,32.27 -16.82,45.13 -6.65,13.67 -14.01,24.99 -21.84,33.96 -4.99,5.72 -10.21,10.55 -15.6,14.51 -5.65,4.14 -11.49,7.36 -17.46,9.65 -6.63,2.54 -13.41,3.96 -20.29,4.27 -6.88,0.31 -13.75,-0.5 -20.52,-2.43 -5.23,-1.51 -10.37,-3.67 -15.37,-6.48 -1.8,-1.02 -3.59,-2.12 -5.36,-3.32 -7.18,11.21 -14.91,20.95 -23.02,29.27 -10.81,11.09 -22.41,19.83 -34.48,26.29 -12.63,6.76 -25.74,11.02 -38.96,12.88 -12.43,1.74 -24.73,1.37 -36.87,-0.79 -12.02,-2.14 -23.91,-6.02 -35.65,-11.33 -10.74,-4.85 -21.39,-10.94 -31.94,-17.98 -10.44,-6.98 -20.68,-14.81 -30.7,-23.22 -4.48,-3.75 -9.37,-8.04 -14.46,-12.6 -6.51,-5.82 -10.24,-9.24 -14.13,-12.78 -12.73,-11.64 -25.53,-23.33 -38.09,-32.92 -12.12,-9.27 -24.14,-16.71 -35.91,-20.43 -6.83,-2.16 -13.82,-3.17 -20.66,-3.14 -7.17,0.04 -14.35,1.2 -21.22,3.36 -6.81,2.15 -13.26,5.3 -19.01,9.29 -5.62,3.91 -10.55,8.58 -14.47,13.88 -4.13,5.57 -7.43,12.23 -10.08,19.67 -2.75,7.68 -4.78,16.19 -6.33,25.23 -0.41,2.4 -0.79,4.82 -1.14,7.28 13.74,5.2 25.68,14.13 34.53,25.54 10.34,13.32 16.52,30.02 16.52,48.06l0 233.75c0,21.64 -8.85,41.32 -23.11,55.58 -12.13,12.13 -28.18,20.34 -46.03,22.52l0 393.18 0.2 0.21 601.32 0c12.2,0 23.32,5.01 31.4,13.07l0.04 0.03c8.06,8.08 13.07,19.2 13.07,31.41l0 107.97 -72.02 0 0 13.9c6.84,0.25 13.03,3.15 17.57,7.68 4.74,4.75 7.69,11.31 7.69,18.53l0 19.02c34.95,2.17 66.41,17.24 89.67,40.5 25.19,25.19 40.78,59.99 40.78,98.43 0,38.43 -15.59,73.23 -40.78,98.42 -25.19,25.19 -59.99,40.77 -98.42,40.77 -38.44,0 -73.24,-15.58 -98.43,-40.77 -25.19,-25.19 -40.77,-59.99 -40.77,-98.42 0,-31.95 10.77,-61.39 28.87,-84.88l0 -73.07c0,-7.22 2.95,-13.78 7.69,-18.53l0.03 0c4.54,-4.53 10.72,-7.42 17.53,-7.68l0 -13.9 -357.44 0 157.26 162.23c2.55,2.63 4.4,5.36 5.57,8.1 1.28,3.02 1.77,6.06 1.5,9.03l0 128.08 -26.83 0 0 13.91c6.84,0.24 13.03,3.14 17.56,7.67l0 0.04c4.74,4.75 7.69,11.29 7.69,18.49l0 19.02c34.95,2.17 66.41,17.24 89.68,40.5 25.19,25.19 40.77,59.99 40.77,98.43 0,38.43 -15.58,73.23 -40.77,98.42 -25.19,25.19 -59.99,40.77 -98.43,40.77 -38.43,0 -73.24,-15.58 -98.43,-40.77 -25.18,-25.19 -40.77,-59.99 -40.77,-98.42 0,-31.95 10.77,-61.39 28.87,-84.88l0 -73.07c0,-7.2 2.95,-13.74 7.69,-18.49l0 -0.04c4.54,-4.53 10.73,-7.43 17.57,-7.67l0 -13.91 -21.26 0 -301 -307.44 -60.25 0c-12.46,16.19 -28.4,29.57 -46.7,38.99 -19.11,9.85 -40.75,15.41 -63.65,15.41 -22.9,0 -44.55,-5.56 -63.66,-15.41 -18.3,-9.43 -34.24,-22.8 -46.7,-38.99l-273.68 0 0 13.9c6.85,0.25 13.04,3.15 17.57,7.68 4.74,4.75 7.69,11.31 7.69,18.53l0 19.02c34.95,2.17 66.41,17.24 89.68,40.5 25.19,25.19 40.77,59.99 40.77,98.43 0,38.43 -15.58,73.23 -40.77,98.42 -25.19,25.19 -59.99,40.77 -98.43,40.77 -38.43,0 -73.24,-15.58 -98.42,-40.77 -25.19,-25.19 -40.78,-59.99 -40.78,-98.42 0,-31.95 10.77,-61.39 28.87,-84.88l0 -73.07c0,-7.22 2.95,-13.78 7.69,-18.53 4.54,-4.53 10.73,-7.43 17.57,-7.68l0 -13.9 -72.02 0 0 -107.97c0,-12.21 5.01,-23.33 13.07,-31.41l0.03 -0.03c8.08,-8.06 19.2,-13.07 31.41,-13.07l358.5 0c3.35,-5.99 7.12,-11.71 11.28,-17.11l0 -73.15c0,-7.22 2.95,-13.78 7.69,-18.53 3.03,-3.02 6.79,-5.32 11,-6.59l-20.27 -20.69 0 -114.22c-0.51,-1.51 -0.82,-3.01 -0.94,-4.5 -0.35,-4.32 0.83,-8.33 3.43,-11.86 2.14,-2.92 5.24,-5.38 9.16,-7.23 4.21,-1.99 9.54,-3.35 15.78,-3.85l47.43 -3.82c10.22,-0.82 21.71,0.73 31.98,3.9 10.62,3.28 20.22,8.42 26.22,14.61l151.36 156.15 0 -286.5c-17.85,-2.18 -33.9,-10.39 -46.03,-22.52 -14.25,-14.26 -23.11,-33.94 -23.11,-55.58l0 -233.75c0,-17.92 6.11,-34.53 16.34,-47.83 9.2,-11.95 21.75,-21.21 36.2,-26.35 0.88,-5.07 1.9,-10.52 3.1,-16.43 1.9,-9.33 4.22,-19.76 7.4,-30.73 1.75,-6.06 3.76,-12.3 6.1,-18.64l0 -701.7 0 -27.42 -844.01 0c-3.01,0 -5.76,-1.22 -7.79,-3.19 -2.1,-2.04 -3.38,-4.86 -3.38,-7.95l0 -15.68c0,-3.1 1.29,-5.91 3.38,-7.95 2.03,-1.97 4.78,-3.19 7.79,-3.19l844.01 0 0 -65.78 -266.39 0c-8.74,0 -16.86,-2.05 -23.95,-5.69 -7.3,-3.75 -13.44,-9.18 -17.98,-15.81 -7.24,-8.5 -39.31,-43.68 -42.83,-50.29 -7.65,-8.84 -12.12,-20.41 -12.12,-33.2 0,-2.35 0.18,-4.87 0.54,-7.55l78.8 -585.35c2.06,-15.31 10.13,-29.16 21.44,-39.14 11.35,-10 26.08,-16.22 41.42,-16.22l341.79 0c2.38,0 4.86,0.18 7.38,0.52 12.66,1.7 23.5,7.74 31.18,16.6 1.57,1.81 3,3.73 4.29,5.75 15.89,18.64 31.69,37.41 47.96,55.69l-0.72 0.72c2.07,3.59 3.72,7.48 4.86,11.6 1.87,6.71 2.42,14.04 1.4,21.65l-64.31 477.69 99.21 0 218.08 -379.54c0.14,-1.69 0.64,-3.46 1.52,-4.97l6.35 -11.02c1,-1.78 2.41,-3.12 3.96,-4 1.57,-0.88 3.3,-1.35 4.98,-1.35l0 0.04 1.27 -0.04 0.26 0.04c1.67,0.05 3.26,0.49 4.71,1.32 1.59,0.89 2.94,2.19 3.94,3.91l6.36 11.11c0.9,1.51 1.4,3.27 1.54,4.95l232.19 404.09c1.03,1.8 1.51,3.97 1.45,5.99l0 0.07c-0.02,0.66 -0.1,1.33 -0.24,2.01l0 401.22c0.87,0.65 1.73,1.32 2.59,2.03 4.14,-2.42 8.36,-4.42 12.61,-5.94 5.24,-1.87 10.6,-3.08 15.99,-3.5 6.56,-0.54 13.04,0.03 19.31,1.83 6.06,1.73 11.88,4.59 17.34,8.67l0 0.04c2.97,2.22 5.76,4.75 8.33,7.6 2.46,2.73 4.82,5.85 7.05,9.37 5.5,8.7 9.86,19.94 13.27,34.2 3.27,13.64 5.7,30.21 7.47,50.14 1.64,18.34 2.8,39.78 3.64,64.74 0.83,24.77 1.35,53.32 1.72,85.98 0.61,52.87 0.81,116.55 0.77,186.58 -0.04,67.61 -0.29,141.11 -0.62,216.55zm-88.59 98.22c-1.2,-0.09 -2.38,-0.31 -3.5,-0.64 -13.38,11.57 -24.72,27.98 -32.94,47.67 -9.04,21.67 -14.26,47.23 -14.26,74.66 0,39.56 10.85,75.24 28.39,100.92 16.81,24.61 39.71,39.84 64.71,39.84 24.99,0 47.9,-15.23 64.71,-39.84 17.53,-25.68 28.38,-61.36 28.38,-100.92 0,-27.79 -5.35,-53.66 -14.61,-75.49 -8.31,-19.58 -19.73,-35.87 -33.18,-47.3 -0.64,0.25 -1.31,0.47 -1.99,0.64l-0.09 0.02 -0.02 0 -0.08 0.02 -0.09 0.03 -0.03 0 -0.06 0.02 -0.28 0.06 -0.06 0.01 -0.04 0.01 -0.09 0.02 -0.08 0.01 -0.02 0.01 -0.18 0.03 -0.01 0 -0.09 0.02 -0.1 0.01 -0.01 0 -0.08 0.02 -0.1 0.02 -0.02 0 -0.08 0.01 -0.09 0.01 -0.04 0.01 -0.06 0.01 -0.09 0.01 -0.06 0.01 -0.04 0 -0.1 0.02 -0.06 0 -0.03 0.01 -0.1 0.01 -0.08 0 -0.02 0.01 -0.1 0.01 -0.09 0 0 0.01 -0.1 0 -0.1 0.01 -0.01 0 -0.09 0.01 -0.1 0.01 -0.02 0 -0.08 0 -0.09 0.01 -0.04 0 -0.06 0 -0.1 0.01 -0.05 0 -0.05 0 -0.1 0 -0.07 0.01 -0.03 0 -0.1 0 -0.08 0 -0.02 0 -0.1 0 -0.09 0 -0.01 0 -80.46 0 0 0 -0.07 0 -0.08 0 -0.06 0 -0.01 0 -0.08 0 -0.07 0 -0.06 0 -0.01 0 -0.08 -0.01 -0.07 0 -0.05 0 -0.03 0 -0.07 -0.01 -0.08 0 -0.03 0 -0.04 0 -0.08 -0.01 -0.07 0 -0.02 0 -0.05 -0.01 -0.08 0zm3.64 -80.63l0 61.54 75.56 0 0 -61.54 -27.79 0 -19.06 0 -28.71 0zm-662.31 -201.28l-2.44 1.22c-4.81,2.4 -9.4,4.97 -13.72,7.66 -3.3,2.06 -6.45,4.18 -9.42,6.34l-0.15 0.1 -0.04 0.04 -0.19 0.13 -0.19 0.14 -0.19 0.14 0 0 -0.19 0.14 -0.18 0.14 -0.19 0.14 -0.05 0.03 -0.14 0.11 -0.19 0.14 -0.18 0.14 -0.09 0.06 -0.1 0.08 -0.18 0.14 -0.19 0.14 -0.13 0.1 -0.05 0.03 -0.18 0.15 -0.19 0.13 -0.18 0.14c-11.43,8.81 -20.87,18.7 -28.69,29.13 -7.87,10.5 -14.16,21.6 -19.23,32.75l-0.04 0.09 -0.04 0.08 -0.04 0.09 -0.04 0.09 -0.04 0.09 -0.03 0.07 -0.01 0.02 -0.04 0.09 -0.04 0.09 -0.04 0.09 -0.05 0.09 -0.04 0.09 -0.01 0.03 -0.03 0.06 -0.04 0.09 -0.04 0.1c-0.69,1.55 -1.45,3.3 -2.25,5.25 -0.83,1.97 -1.69,4.14 -2.57,6.47l-0.64 1.69c-2.16,5.86 -4.02,11.65 -5.65,17.28 -3.02,10.43 -5.23,20.32 -7.02,29.16 -1.45,7.13 -2.63,13.61 -3.61,19.54l-0.06 0.35 -0.05 0.34 -0.06 0.34 -0.05 0.34 -0.11 0.65 -0.11 0.69 0 0.04 -0.14 0.9 -0.02 0.05 -0.18 1.2 -0.01 0.07 -0.01 0.1 -0.03 0.18 -0.01 0.03 -0.02 0.14 -0.05 0.35 -0.02 0.13 -0.01 0.05 -0.02 0.17 -0.02 0.09 -0.01 0.09 -0.03 0.17 0 0.05 -0.02 0.12 -0.03 0.18 0 0.01 -0.02 0.16 -0.03 0.15 0 0.02 -0.02 0.17 -0.02 0.11 -0.01 0.07 -0.02 0.17 -0.02 0.07 -0.01 0.1 -0.02 0.17 -0.01 0.03 -0.02 0.14 -0.02 0.16 0 0.01 -0.03 0.17 -0.02 0.13 0 0.04 -0.03 0.17 -0.01 0.09 -0.01 0.08 -0.02 0.17 -0.01 0.05 -0.02 0.12 -0.02 0.17 0 0.01 -0.02 0.16 -0.03 0.14 0 0.02 -0.02 0.17 -0.02 0.11 -0.01 0.06 -0.02 0.16 -0.01 0.08 -0.01 0.09 -0.03 0.2 -0.02 0.13 -0.02 0.16 0 0.01 -0.02 0.16 -0.02 0.13 -0.01 0.03 -0.02 0.17 -0.01 0.1 -0.01 0.06 -0.02 0.17 -0.01 0.07 -0.01 0.09 -0.07 0.49 0 0 -0.02 0.16 -0.02 0.13 0 0.03 -0.02 0.16 -0.01 0.1 -0.01 0.06 -0.03 0.23 -0.01 0.07 -0.02 0.15 -0.01 0.07 -0.01 0.09 -0.06 0.45 0 0.04 -0.02 0.11 -0.02 0.15 0 0.03 -0.02 0.13 -0.02 0.15 0 0 -0.01 0.15 -0.02 0.14 0 0.01 -0.02 0.15 -0.02 0.12 0 0.04 -0.02 0.14 -0.01 0.11 -0.01 0.05 -0.02 0.15 -0.01 0.08 0 0.07 -0.02 0.15 -0.04 0.3 0 0.05 -0.02 0.1 -0.03 0.3 -0.02 0.15 0 0.01 -0.02 0.14 -0.01 0.14 -0.01 0.01 -0.01 0.15 -0.02 0.12 0 0.03 -0.02 0.15 -0.01 0.1 -0.01 0.05 -0.01 0.15 -0.01 0.08 -0.01 0.07 -0.02 0.15 0 0.05 -0.02 0.1 -0.01 0.15 -0.01 0.03 -0.01 0.12 -0.02 0.15 0 0.01 -0.01 0.13 -0.02 0.14 0 0.01 -0.02 0.15 -0.01 0.12 0 0.03 -0.02 0.15 -0.01 0.09 0 0.05 -0.02 0.15 -0.01 0.07 -0.01 0.08 -0.01 0.15 -0.01 0.05 -0.01 0.1 -0.02 0.14 0 0.03 -0.01 0.12 -0.02 0.15 -0.01 0.15 -0.02 0.12 0 0.03 -0.02 0.14 -0.01 0.1 0 0.05 -0.02 0.15 -0.01 0.07 0 0.07 -0.02 0.15 0 0.05 -0.01 0.1 -0.02 0.14 0 0.03 -0.01 0.12 -0.02 0.15 -0.06 0.71c-0.55,5.48 -0.93,10.6 -1.21,15.51 -0.3,5.3 -0.48,9.75 -0.66,14.21 -0.11,2.95 1,5.7 2.88,7.74l-0.02 0.02 0.09 0.09 0.09 0.09 0.09 0.09 0.09 0.1 0.09 0.09 0.1 0.08 0.09 0.09 0.1 0.09 0.09 0.08 0.1 0.09 0.1 0.08 0.1 0.08 0.1 0.08 0.1 0.08 0 0 0.1 0.08 0.11 0.07 0.1 0.08 0.01 0 0.1 0.07 0 0 0.11 0.08 0.11 0.07 0.1 0.07 0.11 0.07 0.11 0.07 0.12 0.06 0.11 0.07 0 0 0.11 0.06 0.11 0.07 0.12 0.06 0.11 0.06 0.01 0 0.11 0.06 0 0 0.12 0.05 0.12 0.06 0 0 0.12 0.05 0 0 0.12 0.06 0 0 0.12 0.05 0.12 0.05 0.12 0.05 0.12 0.05 0.01 0 0.12 0.04 0.12 0.05 0.13 0.04 0.12 0.04 0.01 0 0.12 0.04 0 0 0.13 0.04 0 0 0.12 0.04 0.01 0 0.12 0.04 0.13 0.03 0.13 0.03 0.14 0.03 0.13 0.03 0 0 0.13 0.03 0.13 0.03 0.13 0.02 0.01 0 0.13 0.03 0.13 0.01 0 0 0.14 0.03 0.13 0.01 0.14 0.02 0 0 0.14 0.02 0.13 0.01 0.01 0 0.13 0.01 0.14 0.01 0.14 0.01 0.14 0c2.96,0.12 5.7,-0.99 7.74,-2.88l0.02 0.03c2.01,-1.87 3.31,-4.51 3.43,-7.49 0.18,-4.59 0.36,-9.17 0.6,-13.41 0.26,-4.61 0.62,-9.49 1.16,-14.92l0.06 -0.6 0.02 -0.19 0.01 -0.08 0.01 -0.12 0.01 -0.15 0.01 -0.05 0.02 -0.2 0 -0.02 0.02 -0.17 0.01 -0.1 0.01 -0.1 0.08 -0.72 0.01 -0.08 0.02 -0.19 0 0 0.02 -0.2 0.01 -0.08 0.01 -0.12 0.02 -0.15 0.01 -0.05 0.02 -0.2 0 -0.02 0.06 -0.55 0.01 -0.04c0.49,-4.37 1.08,-8.88 1.78,-13.57l-0.13 0 1.99 -11.2 0.78 -4.14 0.67 -3.78 0.06 0 0.8 -4.01c1.68,-8.28 3.72,-17.43 6.37,-26.69 2.73,-9.53 6.22,-19.57 10.81,-29.65 4.39,-9.64 9.81,-19.24 16.56,-28.31 6.85,-9.19 15.06,-17.84 24.95,-25.46 4.62,-4.45 13.18,-9.69 18.44,-13.54l0 1.6c6.45,-3.51 13.35,-6.62 20.59,-9.24 13.71,-4.96 28.71,-8.2 44.41,-9.09 14.37,-0.8 29.35,0.38 44.49,4.02 13.98,3.37 28.07,8.84 41.88,16.78 10.73,6.18 21.49,13.97 32.18,22.5 10.87,8.67 21.28,17.73 31.52,26.65 23.36,20.31 46.03,40.04 68.13,51.02 20.63,10.25 41.28,13.04 62.6,1.47 14.06,-7.64 27.73,-22.43 40.5,-42.63 2.74,-4.33 5.42,-8.9 8.06,-13.68l1.98 -3.72c4.19,-7.89 8.17,-16.14 11.9,-24.67 3.87,-8.85 7.6,-18.2 11.15,-27.97l0.94 -2.59c1.15,-3.21 2.28,-6.46 3.39,-9.75 6.66,-19.77 12.74,-41.19 18.1,-63.75l0.06 -0.38c5.85,-24.71 10.84,-50.71 14.77,-77.31 2.77,-18.79 5.02,-37.87 6.7,-57.01l0.04 -0.44 0.07 -0.81 0.09 -1.02 0.01 -0.23 0.11 -1.24 0.03 -0.37 0.07 -0.88 0.08 -0.95 0.02 -0.3 0.1 -1.25 0.03 -0.29 0.07 -0.96 0.07 -0.87 0.03 -0.38 0.09 -1.25 0.02 -0.21 0.08 -1.04 0.06 -0.8 0.03 -0.45 0.09 -1.24 0.01 -0.15 0.08 -1.1 0.05 -0.74 0.03 -0.51 0.09 -1.25 0 -0.07 0.08 -1.18 0.04 -0.66 0.04 -0.59 0.08 -1.25 0.02 -0.33 0.02 -0.33 0.03 -0.32 0.01 -0.33 0.02 -0.25 0.01 -0.08 0.01 -0.32 0.02 -0.33 0.03 -0.32 0.01 -0.33 0.02 -0.19 0 -0.13 0.02 -0.32 0.02 -0.33 0.02 -0.32 0.02 -0.32 0.01 -0.14 0.01 -0.18 0.02 -0.32 0.02 -0.32 0.02 -0.32 0.02 -0.42 0.01 -0.22c1.77,-31.21 1.98,-62.31 0.96,-92.85 -1.18,-35.54 -4.07,-70.65 -8.16,-104.47 -4.57,-37.8 -10.62,-73.72 -17.46,-106.71 -7.72,-37.22 -16.48,-70.96 -25.3,-99.63 -7.61,-24.74 -15.3,-45.76 -23.12,-63.71 -7.76,-17.81 -15.62,-32.59 -23.65,-44.98 -8.33,-12.89 -16.87,-23.29 -25.66,-31.9 -8.72,-8.53 -17.71,-15.33 -27.01,-21.07 -9.18,-5.67 -18.66,-10.28 -28.35,-14.11 -7.02,-2.77 -14.13,-5.11 -21.3,-7.12l-0.01 0 -0.13 -0.04 -0.14 -0.04 -0.65 -0.18 -0.01 0 -0.8 -0.22 -0.12 -0.04 -0.01 0 -0.27 -0.07 -0.13 -0.03 -0.06 -0.02 -0.47 -0.13 0 0 -0.13 -0.03 -0.13 -0.04 -0.14 -0.03 -0.07 -0.02 -0.06 -0.02 -0.13 -0.03 -0.13 -0.04 -0.13 -0.03 -0.02 -0.01 -0.12 -0.03 -0.13 -0.03 -0.13 -0.04 -0.09 -0.02 -0.04 -0.01 -0.13 -0.04 -0.4 -0.1 -0.13 -0.03 -0.13 -0.04 -0.1 -0.03 -0.03 0 -0.13 -0.04 -0.13 -0.03 -0.13 -0.03 -0.06 -0.02 -0.08 -0.02 -0.13 -0.03 -0.13 -0.03 -0.13 -0.04 0 0 -0.13 -0.03 -0.13 -0.03 -0.13 -0.04 -0.07 -0.02 -0.06 -0.01 -0.13 -0.03 -0.13 -0.04 -0.13 -0.03 -0.03 -0.01 -0.1 -0.02 -0.13 -0.04 -0.13 -0.03 -0.1 -0.02 -0.03 -0.01 -0.13 -0.03 -0.13 -0.04 -0.13 -0.03 -0.05 -0.01 -0.09 -0.02 -0.13 -0.03 -0.13 -0.03 -0.13 -0.04 -0.34 -0.08 -0.11 -0.03 -0.23 -0.05 -0.23 -0.06 -0.12 -0.03 -0.34 -0.08 0 0 -0.35 -0.08 -0.11 -0.03 -0.23 -0.05 -0.23 -0.06 -0.12 -0.03 -0.34 -0.08 0 0 -0.34 -0.08 -0.12 -0.02 -0.23 -0.06 -0.22 -0.05 -0.12 -0.03 -0.34 -0.08 -0.01 0 -0.34 -0.08 -0.11 -0.02 -0.24 -0.06 -0.22 -0.05 -0.12 -0.02 -0.34 -0.08 -0.01 0 -0.34 -0.08 -0.11 -0.03 -0.24 -0.05 -0.22 -0.05 -0.12 -0.02 -0.34 -0.08 -0.01 0 -0.34 -0.08 -0.11 -0.02 -0.24 -0.05 -0.21 -0.05 -0.13 -0.03 -0.34 -0.07 -0.01 0 -0.34 -0.08 -0.1 -0.02 -0.25 -0.05 -0.21 -0.05 -0.13 -0.03 -0.34 -0.07 -0.01 0 -0.34 -0.07 -0.1 -0.03 -0.24 -0.05 -0.22 -0.04 -0.13 -0.03 -0.33 -0.07 -0.02 0 -0.34 -0.07 -0.1 -0.02 -0.25 -0.05 -0.21 -0.05 -0.13 -0.03 -0.33 -0.06 -0.02 -0.01 -0.34 -0.07 -0.1 -0.02 -0.25 -0.04 -0.21 -0.05 -0.13 -0.03 -0.34 -0.06 -0.01 -0.01 -0.35 -0.06 -0.09 -0.02 -0.25 -0.05 -0.21 -0.04 -0.14 -0.03 -0.32 -0.07 -0.02 0 -0.35 -0.07 -0.1 -0.02 -0.24 -0.04 -0.22 -0.05 -0.13 -0.02 -0.32 -0.07 -0.02 0 -0.35 -0.06 -0.1 -0.02 -0.25 -0.05 -0.21 -0.04 -0.13 -0.03 -0.33 -0.06 -0.02 0 -0.34 -0.07 -0.1 -0.01 -0.25 -0.05 -0.21 -0.04 -0.13 -0.03 -0.33 -0.06 -0.02 0 -0.35 -0.06 -0.09 -0.02 -0.25 -0.05 -0.21 -0.04 -0.14 -0.02 -0.32 -0.06 -0.02 0 -0.35 -0.07 -0.09 -0.01 -0.26 -0.05 -0.2 -0.04 -0.14 -0.02 -0.33 -0.06 -0.02 0 -0.08 -0.02 -3.5 -0.59c-5.18,-0.89 -10.28,-1.68 -15.31,-2.42l-0.2 -0.03 -0.1 -0.01 -0.84 -0.13 -0.03 0 -0.29 -0.04 -0.15 -0.03 -0.14 -0.02 -0.29 -0.04 -0.04 0 -0.25 -0.04 -0.22 -0.03 -0.07 -0.01 -0.4 -0.06 -0.18 -0.02 -0.29 -0.04 -0.41 -0.06 -0.06 -0.01 -0.94 -0.14 -0.05 0 -1.57 -0.22 -0.26 -0.04 -0.27 -0.04 -0.2 -0.03 -0.32 -0.04 -0.15 -0.02 -0.37 -0.05 -0.1 -0.02 -0.43 -0.06 -0.04 0 -0.47 -0.07 -0.47 -0.06 -0.47 -0.07 -0.47 -0.06 -0.17 -0.02 -0.3 -0.05 -0.22 -0.03 -0.25 -0.03 -0.28 -0.04 -0.19 -0.03 -0.33 -0.04 -0.14 -0.02 -0.38 -0.05 -0.1 -0.01 -0.46 -0.07 -0.48 -0.06 0 0 -0.47 -0.07 -0.06 0 -0.41 -0.06 -0.11 -0.02 -0.36 -0.04 -0.16 -0.03 -0.31 -0.04 -0.47 -0.06 -0.47 -0.07 -0.32 -0.04 -0.15 -0.02 -0.47 -0.06 -0.42 -0.06 -0.05 -0.01 -0.47 -0.06c-2.94,-0.39 -5.77,0.44 -7.97,2.12 -2.19,1.67 -3.76,4.19 -4.15,7.13 -0.39,2.94 0.44,5.77 2.12,7.96 1.67,2.2 4.19,3.76 7.13,4.16l0.44 0.06 0.14 0.01 0.29 0.05 0.02 0 0.27 0.03 0.17 0.03 0.12 0.01 0.29 0.04 0.04 0.01 0.44 0.06 0.1 0.01 0.29 0.04 0.06 0.01 0.22 0.03 0.22 0.03 0.07 0.01 0.29 0.04 0.09 0.01 0.2 0.03 0.24 0.03 0.04 0.01 0.29 0.03 0.12 0.02 0.16 0.02 0.28 0.04 0.01 0 0.28 0.04 0.16 0.02 0.13 0.02 0.31 0.04 0.45 0.06 0.08 0.02 0.28 0.03 0.08 0.02 0.2 0.02 0.25 0.04 0.03 0 0.28 0.04 0.14 0.02 0.68 0.09 0.21 0.03 0.07 0.01 0.29 0.04 0.08 0.01c2.96,0.41 5.72,0.79 8.07,1.13 5.77,0.84 11.48,1.72 17.02,2.68l16.06 2.78 -0.24 0.29 0.12 0.03 0.11 0.02 0.12 0.03 0.06 0.01 0.06 0.01 0.11 0.03 0.12 0.03 0.15 0.03 0.08 0.02 0.94 0.2 0.11 0.03 0.12 0.02 0.07 0.02 0.05 0.01 0.11 0.03 0.23 0.05 0.05 0.01 0.07 0.02 0.12 0.02 0.23 0.06 0.02 0 0.1 0.02 0.11 0.03 0.12 0.03 0.11 0.02 0 0 0.24 0.06 0.11 0.02 0.09 0.02 0.03 0.01 0.11 0.03 0.12 0.02 0.12 0.03 0.06 0.02 0.05 0.01 0.12 0.03 0.12 0.02 0.11 0.03 0.04 0.01 0.08 0.02 0.11 0.02 0.12 0.03 0.12 0.03 0.01 0 0.1 0.03 0.12 0.03 0.11 0.02 0.11 0.03 0.01 0 0.11 0.03 0.12 0.03 0.12 0.02 0.07 0.02 0.04 0.01 0.12 0.03 0.11 0.03 0.12 0.02 0.05 0.02 0.06 0.01 0.12 0.03 0.11 0.03 0.12 0.03 0.02 0 0.09 0.03 0.12 0.02 0.11 0.03 0.12 0.03 0.23 0.06 0.19 0.04 0.04 0.01 0.24 0.06 0.14 0.04 0.09 0.02 0.02 0.01 0.44 0.11 0.23 0.05 0.06 0.02 0.18 0.04 0.23 0.06 0.01 0.01 0.21 0.05 0.21 0.05 0.02 0.01 0.23 0.06 0.17 0.04 0.06 0.02 0.23 0.06 0.13 0.03 0.1 0.03 0.23 0.05 0.09 0.03 0.14 0.03 0.23 0.06 0.05 0.02 0.17 0.04 0.23 0.06 0.02 0.01 0.21 0.06 0.21 0.05 0.01 0.01 0.23 0.05 0.17 0.05 0.06 0.02 0.22 0.06 0.14 0.03 0.09 0.03 0.22 0.06 0.11 0.03 0.34 0.09 0.08 0.02 0.15 0.04 0.67 0.19 0.01 0 0.21 0.06 0.21 0.06 0.01 0c2.16,0.61 4.27,1.23 6.32,1.87 4.68,1.47 9.38,3.13 14.08,5.03l6.02 2.42 0 0.15c5.98,2.68 11.84,5.75 17.53,9.26 8.1,5 15.96,10.97 23.62,18.54 7.61,7.51 15.03,16.6 22.3,27.85 7.65,11.82 15.13,25.93 22.48,42.95 7.24,16.79 14.47,36.68 21.75,60.33 8.61,27.98 17.19,61.05 24.77,97.72 6.75,32.63 12.69,67.94 17.15,104.82 3.98,32.91 6.8,67.35 7.99,102.58 1.09,32.23 0.79,64.88 -1.26,97.32 -2.41,38.24 -7.25,76.42 -14.01,112.62 -2.93,15.72 -6.23,31.07 -9.84,45.87l0 0.03 -0.48 1.98c-1.32,5.32 -2.69,10.64 -4.13,15.96l-0.12 0.44 -0.12 0.44 -0.06 0.23 -0.06 0.21 -0.12 0.45 -0.12 0.44 -0.12 0.44 -0.01 0.04 -0.11 0.4 -0.12 0.45 -0.13 0.44 -0.08 0.28 -0.04 0.16 -0.12 0.44 -0.13 0.44 -0.12 0.45 -0.02 0.08 -0.1 0.36 -0.13 0.44 -0.12 0.44 -0.09 0.33 -0.03 0.11 -0.13 0.44 -0.12 0.45 -1.14 3.97 -0.12 0.43 -0.63 2.16 -0.05 0.18 -0.08 0.25 -0.76 2.57 -0.07 0.24 -0.06 0.18 -0.12 0.43 -0.13 0.43 -0.13 0.42 -0.02 0.06 -0.11 0.36 -0.13 0.43 -0.12 0.42 -0.26 0.85 -0.13 0.42 -0.13 0.42 -0.04 0.13 -0.09 0.29 -0.13 0.42 -0.13 0.42 -0.11 0.37 -0.01 0.04 -0.13 0.42 -0.13 0.42 -0.13 0.42 -0.07 0.2 -0.06 0.21 -0.13 0.42 -0.13 0.42 -0.26 0.83 -0.13 0.41 -0.13 0.41 -0.09 0.28 -0.04 0.13 -0.14 0.42 -0.13 0.41 -0.13 0.41 -0.04 0.12 -0.09 0.29 -0.13 0.41 -0.13 0.41 -0.12 0.36 -0.01 0.05 -0.14 0.4 -0.13 0.41 -0.13 0.41 -0.07 0.21 -0.06 0.19 -0.14 0.41 -0.13 0.41 -0.13 0.4 -0.02 0.05 -0.11 0.35 -0.14 0.41 -0.13 0.4 -0.1 0.3 -0.03 0.1 -0.13 0.4 -0.14 0.4 -0.13 0.41 -0.05 0.14 -0.09 0.25 -0.13 0.4 -0.13 0.4 -0.14 0.4 -0.07 0.21 -0.07 0.2 -0.07 0.21 -0.06 0.2 -0.07 0.21 -0.07 0.2 -0.04 0.12 -0.03 0.09 -0.07 0.2 -0.07 0.2 -0.07 0.21 -0.07 0.2 -0.07 0.2 -0.07 0.2 -0.01 0.04 -0.06 0.16 -0.07 0.2 -0.06 0.21 -0.07 0.2 -0.07 0.2 -0.07 0.2 -0.06 0.17 -0.01 0.03 -0.07 0.2 -0.07 0.2 -0.07 0.19 -0.06 0.2 -0.07 0.2 -0.07 0.2 -0.04 0.11 -0.03 0.09 -0.07 0.19 -0.07 0.2 -0.07 0.19 -0.06 0.2 -0.07 0.2 -0.07 0.19 -0.02 0.06 -0.05 0.13 -0.06 0.2 -0.14 0.39 -0.07 0.19 -0.07 0.2 -0.07 0.19 0 0.02 -0.06 0.17 -0.07 0.19 -0.07 0.19c-0.46,1.34 -0.93,2.66 -1.41,3.94 -0.82,2.26 -1.66,4.54 -2.53,6.83l-0.07 0.19 -0.03 0.08 -0.04 0.1 -0.07 0.19 -0.07 0.19 -0.07 0.18 -0.07 0.19 -0.14 0.37 -0.02 0.04 -0.12 0.33 -0.07 0.19 -0.29 0.73 0 0.02 -0.14 0.37 -0.08 0.18 -0.07 0.19 -0.07 0.19 -0.07 0.18 -0.05 0.12 -0.03 0.07 -0.07 0.19 -0.22 0.56 -0.07 0.19 -0.09 0.23 -10.33 26.51 -0.39 -1.4c-3.97,8.47 -8.04,16.27 -12.17,23.3 -11.34,19.27 -23.48,33.14 -35.98,39.93 -30.11,16.35 -67.02,-15.75 -106.23,-49.86 -11.12,-9.68 -22.4,-19.5 -32.97,-27.86 -11.06,-8.75 -22.42,-16.89 -34.21,-23.66 -15.78,-9.07 -31.81,-15.31 -47.69,-19.13 -17.15,-4.13 -34.18,-5.46 -50.58,-4.54 -17.92,1.02 -35.11,4.76 -50.87,10.5 -5.45,1.99 -10.74,4.22 -15.82,6.66zm2.87 44.9l0 7.12c4.85,-4.76 10.11,-9.11 15.7,-13.03 4.42,-3.1 9.03,-5.92 13.81,-8.44l-2.42 0.85c-9.91,3.59 -19.04,8.19 -27.09,13.5zm333.97 106.74c2.22,-0.03 4.42,-0.2 6.6,-0.5 6.52,-0.92 13.15,-3.16 19.71,-6.77 6.51,-3.58 12.94,-8.52 19.11,-14.85 6.64,-6.81 12.96,-15.15 18.8,-25.07 2.17,-3.7 4.29,-7.63 6.33,-11.79l-0.47 -0.9 -1.61 2.58c-14.48,22.91 -30.48,39.95 -47.53,49.2 -7.07,3.84 -14.05,6.49 -20.94,8.1zm150.02 -501.72c0.6,-2.4 1.2,-4.76 1.8,-7.1 4.64,-17.88 9.81,-34.13 15.62,-48.28 5.91,-14.36 12.52,-26.68 19.59,-37.03 7.65,-11.2 15.91,-20.2 24.48,-27.09 10.96,-8.81 22.43,-14.39 33.99,-16.92 7.46,-1.64 14.93,-2 22.29,-1.15l0 -386.97 -217.69 -378.86 -198.26 345.05 65.84 0c9.78,0 18.67,4 25.1,10.43l0 0.03c6.43,6.44 10.43,15.31 10.43,25.07l0 47.31c2.49,0.88 4.98,1.8 7.45,2.78 10.62,4.19 21.11,9.31 31.41,15.67 10.47,6.46 20.58,14.1 30.38,23.7 9.73,9.52 19.14,20.97 28.27,35.1 8.61,13.29 16.97,28.98 25.14,47.74 8.11,18.61 16.05,40.3 23.87,65.73 8.96,29.12 17.88,63.46 25.75,101.43 7,33.77 13.16,70.25 17.75,108.28 2.94,24.28 5.26,49.4 6.79,75.08zm-196.81 -410.59l0 90.61c7.99,6.55 16.43,14.51 24.94,24.6 8.43,9.98 16.9,22.05 25.01,36.89 7.68,14.04 15.01,30.59 21.6,50.26 6.53,19.49 12.38,42.13 17.17,68.52 5.26,29.01 9.23,62.33 12.55,97.91 3.4,36.4 6.04,73.57 8.68,110.94 2,28.15 4.01,56.45 6.38,84.97 2.31,27.74 4.91,54.7 8.06,79.93l0.02 0.16c6.16,-34.03 10.6,-69.84 12.87,-105.8 2.02,-32.01 2.32,-64.05 1.26,-95.53 -1.16,-34.25 -3.96,-68.18 -7.92,-100.94 -4.43,-36.66 -10.26,-71.41 -16.85,-103.25 -7.43,-35.92 -15.86,-68.4 -24.32,-95.92 -7,-22.74 -14.01,-42 -21.08,-58.39 -6.98,-16.18 -13.93,-29.33 -20.91,-40.12 -6.49,-10.03 -13.03,-18.06 -19.69,-24.64 -6.61,-6.52 -13.34,-11.65 -20.25,-15.91 -2.47,-1.52 -4.98,-2.95 -7.52,-4.29zm-24.68 -72.23c1.8,0.44 3.6,0.9 5.39,1.38l0.16 0.04 0 -41.42c0,-4.52 -1.84,-8.63 -4.81,-11.6 -2.98,-2.95 -7.08,-4.8 -11.59,-4.8l-76.83 0 -37.27 0 -90.79 0 -11.92 88.53c-2.06,15.32 -10.12,29.17 -21.43,39.15 -11.36,10 -26.08,16.22 -41.43,16.22l-56.27 0 0 65.78 122.65 0 0 0 0.14 0 0 0 0.14 0.01 0 0 0.14 0 0 0 0.14 0.01 0 0 0.14 0.01 0 0 0.14 0.01 0 0 0.14 0.01 0 0 0.13 0.01 0.01 0 0.13 0.01 0 0 0.14 0.02 0 0 0.14 0.02 0 0 0.13 0.02 0.01 0 0.13 0.02 0 0 0.13 0.02 0.01 0 0.13 0.03 0 0 0.13 0.03 0.01 0 0.12 0.02 0.01 0 0.13 0.03 0 0 0.13 0.04 0 0 0.13 0.03 0.01 0 0.12 0.03 0.01 0 0.12 0.04 0.01 0 0.12 0.04 0.01 0 0.12 0.03 0.01 0 0.12 0.05 0.01 0 0.12 0.04 0.01 0 0.12 0.04 0 0 0.12 0.05 0.01 0 0.12 0.04 0.01 0 0.11 0.05 0.01 0 0.12 0.05 0 0 0.12 0.05 0.01 0 0.12 0.05 0 0 0.12 0.06 0 0 0.12 0.05 0.01 0 0.23 0.12 0.01 0 0.11 0.06 0.01 0 0.11 0.06 0.01 0 0.11 0.06 0 0 0.11 0.06 0.01 0 0.11 0.07 0 0 0.11 0.06 0.01 0.01 0.11 0.06 0.01 0 0.1 0.07 0.01 0 0.1 0.07 0.01 0 0.22 0.14 0 0.01 0.22 0.14 0 0.01c0.5,0.35 0.97,0.75 1.43,1.17l0.03 0.04 0.16 0.15 0.04 0.04 0.05 0.06 0.04 0.04 0.05 0.06 0.04 0.04 0.42 0.47 0.03 0.04 0.05 0.07 0.03 0.03 0.06 0.08 0.03 0.03 0.05 0.07 0.03 0.04c0.18,0.24 0.36,0.49 0.52,0.75l0.02 0.03 0.06 0.08 0.02 0.03 0.05 0.09 0.02 0.03 0.12 0.2 0.01 0.03 0.05 0.09 0.02 0.03 0.05 0.09 0.01 0.03 0.06 0.1 0.01 0.02 0.05 0.1 0.01 0.02 0.05 0.1 0.01 0.02 0.05 0.1 0.01 0.02 0.1 0.23 0.01 0.02 0.05 0.11 0.01 0.02 0.04 0.1 0.01 0.02 0.05 0.11 0.05 0.13 0.01 0.02 0.04 0.11 0 0.01 0.05 0.12 0 0.01 0.08 0.25 0.01 0.01 0.04 0.12 0 0.01 0.04 0.12 0.01 0.01 0.03 0.12 0 0.02 0.04 0.12 0 0.01 0.04 0.12 0 0.02 0.03 0.12 0 0.01 0.03 0.12 0.01 0.01 0.05 0.27 0.01 0.01 0.02 0.13 0.01 0 0.02 0.13 0 0.01 0.02 0.13 0 0.01 0.03 0.13 0 0.01 0.02 0.13 0 0.01 0.02 0.13 0 0 0.01 0.14 0.01 0.01 0.01 0.13 0 0.01 0.01 0.13 0 0.01 0.02 0.14 0 0 0 0.14 0.01 0.14 0.01 0 0 0.15 0.01 0.14 0 0.14 0 0.15 0 0 0 15.68 0 0 0 0.14 0 0.01 0 0.14 -0.01 0.14 0 0.15 -0.01 0 -0.01 0.14 0 0.14 0 0 -0.02 0.14 0 0 -0.01 0.14 0 0 -0.01 0.14 -0.01 0.01 -0.01 0.13 0 0.01 -0.02 0.13 0 0.01 -0.02 0.13 0 0.01 -0.03 0.13 0 0.01 -0.02 0.13 0 0 -0.02 0.13 -0.01 0.01 -0.02 0.13 0 0.01 -0.03 0.13 0 0.01 -0.03 0.12 -0.01 0.01 -0.03 0.12 0 0.02 -0.03 0.12 0 0.01 -0.04 0.12 0 0.02 -0.03 0.12 -0.01 0.01 -0.03 0.12 -0.01 0.01 -0.03 0.12 -0.01 0.02 -0.04 0.11 0 0.02 -0.04 0.11 -0.01 0.02 -0.04 0.11 0 0.02 -0.04 0.11 -0.01 0.02 -0.04 0.11 -0.01 0.02 -0.04 0.1 -0.01 0.02 -0.04 0.11 -0.01 0.02 -0.05 0.11 -0.01 0.02 -0.04 0.1 -0.01 0.03 -0.05 0.1 -0.01 0.02 -0.05 0.1 -0.01 0.02 -0.05 0.11 -0.01 0.02 -0.05 0.1 -0.01 0.02 -0.05 0.1 -0.01 0.02 -0.05 0.1 -0.02 0.02 -0.05 0.1 -0.01 0.02 -0.05 0.1 -0.02 0.02 -0.05 0.09 -0.02 0.03 -0.05 0.09 -0.02 0.03 -0.05 0.09 -0.02 0.02 -0.06 0.09 -0.01 0.03 -0.06 0.09 -0.02 0.02 -0.05 0.09 -0.02 0.03 -0.06 0.08 -0.02 0.03 -0.06 0.08 -0.02 0.03 -0.06 0.08 -0.02 0.03 -0.06 0.08 -0.02 0.03 -0.17 0.22 -0.06 0.08 -0.02 0.03 -0.06 0.07 -0.03 0.03 -0.06 0.08 -0.03 0.03 -0.36 0.41 -0.06 0.06 -0.29 0.29 -0.03 0.04c-0.44,0.43 -0.92,0.82 -1.43,1.18l0 0 -0.22 0.14 0 0.01 -0.22 0.14 -0.01 0 -0.1 0.07 -0.01 0 -0.1 0.07 -0.01 0 -0.11 0.06 -0.01 0.01 -0.11 0.06 0 0 -0.11 0.07 -0.01 0 -0.11 0.06 0 0 -0.11 0.06 -0.01 0 -0.11 0.06 -0.01 0 -0.11 0.06 -0.01 0 -0.23 0.12 -0.01 0 -0.12 0.05 0 0 -0.12 0.06 0 0 -0.12 0.05 -0.01 0 -0.12 0.05 0 0 -0.12 0.05 -0.01 0 -0.11 0.05 -0.01 0 -0.12 0.04 -0.01 0.01 -0.12 0.04 0 0 -0.12 0.04 -0.01 0.01 -0.12 0.04 -0.01 0 -0.12 0.04 -0.01 0 -0.12 0.03 -0.01 0 -0.12 0.04 -0.01 0 -0.12 0.04 -0.01 0 -0.12 0.03 -0.01 0 -0.13 0.04 0 0 -0.13 0.03 0 0 -0.13 0.03 -0.01 0 -0.12 0.02 -0.01 0 -0.13 0.03 0 0 -0.13 0.03 -0.01 0 -0.13 0.02 0 0 -0.13 0.02 -0.01 0 -0.13 0.02 0 0 -0.14 0.02 0 0 -0.14 0.02 0 0 -0.13 0.01 -0.01 0 -0.13 0.01 0 0 -0.14 0.01 0 0 -0.14 0.02 0 0 -0.14 0 0 0 -0.14 0.01 0 0 -0.14 0 0 0 -0.14 0.01 0 0 -0.14 0 0 0 -122.65 0 0 27.42c0,4.5 1.85,8.6 4.82,11.57 2.97,2.97 7.07,4.82 11.57,4.82l67.9 0 251.65 0c3.93,0 7.53,-1.38 10.34,-3.67 1.83,-1.49 3.33,-3.36 4.39,-5.48 -4.76,-5.57 -9.53,-10.26 -14.16,-14.27l-0.04 -0.04 -0.91 -0.78 -0.16 -0.13 -0.01 -0.01 -0.27 -0.23 -0.03 -0.03 -0.16 -0.13 -0.08 -0.07 -0.08 -0.06 -0.16 -0.14 -0.03 -0.02 -0.13 -0.11 -0.31 -0.26 -0.1 -0.08 -0.06 -0.05 -0.16 -0.13 -0.05 -0.04 -0.11 -0.09 -0.15 -0.13 -3.76 -3.07 -0.3 -0.23 -0.12 -0.09 -0.17 -0.13 -0.24 -0.18 -0.06 -0.04 -0.29 -0.22 -0.07 -0.05 -0.23 -0.17 -0.19 -0.13 -0.1 -0.08 -0.3 -0.21 -0.01 -0.01 -0.28 -0.21 -0.13 -0.09 -0.17 -0.11 -0.25 -0.18 -0.04 -0.03 -0.29 -0.21 -0.08 -0.05 -0.21 -0.15 -0.2 -0.14 -0.09 -0.06 -0.29 -0.2 -0.03 -0.02 -0.26 -0.18 -0.15 -0.1 -0.14 -0.1 -0.26 -0.18 -0.03 -0.02 -0.29 -0.19 -0.09 -0.06 -0.2 -0.13 -0.21 -0.14 -0.08 -0.05 -0.29 -0.19 -0.03 -0.02 -0.26 -0.17 -0.15 -0.1 -0.13 -0.08 -0.27 -0.17 -0.02 -0.02 -0.29 -0.18 -0.09 -0.06 -0.19 -0.12 -0.22 -0.13 -0.07 -0.05 -0.28 -0.18 -0.05 -0.02 -0.23 -0.15 -0.16 -0.1 -0.13 -0.08 -0.27 -0.16 -0.01 -0.01 -0.29 -0.17 -0.1 -0.06 -0.18 -0.11 -0.22 -0.13 -0.06 -0.04 -0.28 -0.16 -0.06 -0.04 -0.22 -0.13 -0.17 -0.1 -0.12 -0.06 -0.27 -0.16 -0.01 0 -0.28 -0.16 -0.11 -0.07 -0.17 -0.09 -0.23 -0.13 -0.05 -0.03 -0.27 -0.16 -0.07 -0.03 -0.21 -0.12 -0.18 -0.1 -0.1 -0.05 -0.28 -0.15 -0.01 -0.01 -0.27 -0.15 -0.12 -0.06 -0.16 -0.09 -0.23 -0.12 -0.04 -0.02 -0.28 -0.15 -0.07 -0.04 -0.2 -0.1 -0.19 -0.1 -0.09 -0.05 -0.28 -0.14 -0.02 -0.01 -0.25 -0.13 -0.13 -0.07 -0.14 -0.07 -0.25 -0.12 -0.03 -0.01 -0.27 -0.14 -0.09 -0.04 -0.18 -0.09 -0.2 -0.1 -0.08 -0.04 -0.27 -0.13 -0.03 -0.02 -0.24 -0.11 -0.15 -0.07 -0.13 -0.06 -0.54 -0.26 -0.09 -0.04 -0.18 -0.08c-3.4,2.64 -7.16,4.86 -11.19,6.55 -5.95,2.51 -12.42,3.9 -19.16,3.9 -13.62,0 -25.97,-5.54 -34.91,-14.48l-0.04 -0.03c-8.94,-8.95 -14.47,-21.3 -14.47,-34.92 0,-13.64 5.53,-26 14.48,-34.94 8.94,-8.95 21.3,-14.48 34.94,-14.48 10.82,0 20.87,3.52 29.06,9.5 7.06,5.15 12.72,12.13 16.25,20.24 8.22,3.07 16.76,7.13 25.76,12.74l0 -85.21c-2.18,-0.78 -4.4,-1.52 -6.65,-2.22 -1.44,-0.46 -2.88,-0.9 -4.3,-1.31l-0.08 -0.02 -0.21 -0.06 -0.09 -0.03 -0.11 -0.03 -0.21 -0.06 -0.07 -0.02 -0.14 -0.04 -0.2 -0.05 -0.04 -0.02 -0.17 -0.04 -0.2 -0.06 -0.01 0 -0.2 -0.06 -0.18 -0.05 -0.02 -0.01 -0.21 -0.05 -0.16 -0.05 -0.05 -0.01 -0.2 -0.06 -0.41 -0.11 -0.1 -0.03c-1.92,-0.52 -3.86,-1.02 -5.81,-1.5l-0.26 -0.06 -0.15 -0.04 -0.11 -0.03 -0.26 -0.06 -0.05 -0.01 -0.2 -0.05 -0.21 -0.05 -0.05 -0.01 -0.26 -0.07 -0.1 -0.02 -0.17 -0.04 -0.24 -0.06 -0.02 0 -0.25 -0.06 -0.15 -0.03 -0.11 -0.03 -0.26 -0.06 -0.04 -0.01 -0.23 -0.05 -0.19 -0.05 -0.07 -0.01 -0.26 -0.06 -0.09 -0.03 -0.17 -0.03 -0.24 -0.06 -0.02 0 -0.26 -0.06 -0.14 -0.03 -0.12 -0.03 -0.26 -0.06 -0.03 -0.01 -0.23 -0.05 -0.19 -0.04 -0.07 -0.02 -0.27 -0.06 -0.08 -0.01 -0.18 -0.04 -0.24 -0.06 -0.02 0 -0.26 -0.06 -0.13 -0.03 -0.14 -0.03 -0.26 -0.06 -0.02 0 -0.24 -0.05 -0.18 -0.04 -0.08 -0.02 -0.27 -0.06 -0.07 -0.01 -0.19 -0.04 -0.23 -0.05 -0.03 -0.01 -0.26 -0.05 -0.13 -0.03 -0.14 -0.03 -0.26 -0.06 -0.02 0 -0.24 -0.05 -0.18 -0.03 -0.09 -0.02 -0.26 -0.06 -0.07 -0.01 -0.19 -0.04 -0.23 -0.05 -0.04 -0.01 -0.26 -0.05 -0.12 -0.02 -0.15 -0.04 -0.26 -0.05 -0.01 0 -0.25 -0.05 -0.17 -0.04 -0.1 -0.02 -0.27 -0.05 -0.05 -0.01 -0.21 -0.04 -0.22 -0.05 -0.04 -0.01 -0.27 -0.05 -0.11 -0.02 -0.15 -0.03 -0.27 -0.05 -0.26 -0.06 -0.16 -0.03 -0.11 -0.02 -0.27 -0.05 -0.04 -0.01 -0.22 -0.04 -0.21 -0.04 -0.06 -0.01 -0.26 -0.05 -0.1 -0.02 -0.17 -0.03 -0.26 -0.05 0 0 -0.27 -0.05 -0.15 -0.03 -0.12 -0.02 -0.26 -0.05 -0.04 -0.01 -0.23 -0.04 -0.2 -0.04 -0.07 -0.01c-3.85,3.75 -8.3,6.87 -13.19,9.2 -6.44,3.07 -13.64,4.79 -21.23,4.79 -13.62,0 -25.97,-5.54 -34.91,-14.48l-0.04 0c-8.94,-8.94 -14.47,-21.3 -14.47,-34.95 0,-13.64 5.53,-26 14.47,-34.94 8.95,-8.94 21.31,-14.48 34.95,-14.48 10.15,0 19.61,3.09 27.49,8.38 6.57,4.41 12.03,10.38 15.86,17.39l0.35 0.06 0.09 0.02 0.26 0.05 0.22 0.04 0.12 0.02 0.35 0.06 0.02 0 0.33 0.07 0.15 0.02 0.2 0.04 0.29 0.06 0.05 0.01 0.35 0.06 0.08 0.02 0.27 0.05 0.21 0.04 0.13 0.02 0.35 0.07 0.01 0 0.34 0.06 0.14 0.03 0.21 0.04 0.28 0.05 0.06 0.01 0.35 0.07 0.07 0.02 0.28 0.05 0.2 0.04 0.14 0.03 0.35 0.07 0 0 0.35 0.06 0.13 0.03 0.21 0.04 0.28 0.06 0.07 0.01 0.35 0.07 0.06 0.01 0.29 0.06 0.19 0.04 0.15 0.03 0.34 0.07 0.01 0 0.35 0.07 0.12 0.03 0.22 0.04 0.26 0.05 0.09 0.02 0.34 0.07 0.06 0.01 0.29 0.06 0.19 0.04 0.16 0.04 0.32 0.06 0.03 0.01 0.34 0.07 0.11 0.02 0.24 0.06 0.25 0.05 0.09 0.02 0.35 0.07 0.04 0.01 0.31 0.07 0.17 0.03 0.17 0.04 0.32 0.07 0.03 0.01 0.35 0.07 0.1 0.03 0.24 0.05 0.24 0.05 0.11 0.02 0.34 0.08 0.03 0.01 0.32 0.07 0.17 0.03 0.18 0.04 0.3 0.07 0.04 0.01 0.35 0.08 0.09 0.02 0.25 0.06 0.23 0.05 0.12 0.03 0.35 0.07 0.02 0.01 0.32 0.07 0.16 0.04 0.19 0.04 0.29 0.07 0.05 0.01 0.35 0.08 0.08 0.03 0.26 0.05 0.22 0.06 0.13 0.03 0.35 0.08 0.01 0 0.33 0.08 0.15 0.04 0.2 0.04 0.28 0.07 0.06 0.02 0.35 0.08 0.07 0.02 0.27 0.06 0.21 0.06 0.14 0.03 0.34 0.08zm223.29 575.09c-0.21,9.56 -0.56,19.12 -1.06,28.68l0 0.1 -0.01 0.22 -0.02 0.32 -0.02 0.32 -0.01 0.32 -0.07 1.27 -0.02 0.31 -0.02 0.32 0 0.1 -0.01 0.22 -0.02 0.31 -0.02 0.32 -0.01 0.31 -0.04 0.62 -0.02 0.31 -0.01 0.32 -0.02 0.31 -0.02 0.31 -0.01 0.14 -0.01 0.17 -0.01 0.31 -0.02 0.31 -0.02 0.3 -0.02 0.31 -0.01 0.18 -0.01 0.13 -0.02 0.31 -0.02 0.3 -0.01 0.31 -0.02 0.3 -0.02 0.23 0 0.08 -0.02 0.3 -0.02 0.3 -0.02 0.3 -0.02 0.31 -0.01 0.3 -0.09 1.28 -0.03 0.59 -0.05 0.69 -0.08 1.18 0 0.1 -0.09 1.28 -0.04 0.5 -0.05 0.78 -0.08 1.09 -0.01 0.19 -0.09 1.28 -0.03 0.4 -0.07 0.88 -0.07 0.99 -0.02 0.29 -0.1 1.28 -0.02 0.31 -0.08 0.96 -0.07 0.91 -0.13 1.65 -0.02 0.22 -0.47 5.61 -0.05 0.55 -0.11 1.28 0 0.04 -0.17 1.87 -0.06 0.64 -0.11 1.22 -0.01 0.06c-1.65,17.84 -3.79,35.54 -6.35,52.93 -4.01,27.2 -9.08,53.68 -15.01,78.73 -3.46,25.44 -7.32,50.02 -11.95,72.82 -1.4,6.86 -2.87,13.55 -4.41,20.05l0 0.01 -0.5 2.08 -0.17 0.7 -0.08 0.32 0 0.02 -0.09 0.34 -0.08 0.33 -0.08 0.33 0 0.01 -0.08 0.34 -0.09 0.34 -0.25 1 -0.08 0.33 0 0.01 -0.09 0.33 -0.08 0.34 -0.08 0.33 0 0 -0.09 0.34 -0.08 0.33 -0.09 0.33 -0.25 1 -0.01 0 -0.25 0.99 0 0.01 -0.17 0.64 -0.09 0.33 0 0.02 -0.08 0.31 -0.09 0.32 -0.08 0.33 -0.01 0.03 -0.08 0.3 -0.09 0.32 -0.36 1.35 -0.07 0.27 -0.09 0.32 -0.08 0.32 -0.02 0.06 -0.25 0.91 -0.02 0.07 -0.51 1.84 -0.03 0.1 -0.23 0.84 -0.04 0.12 -0.95 3.32 -0.09 0.31 -0.27 0.92c-0.46,1.57 -0.93,3.12 -1.4,4.65l-0.08 0.24 -0.87 2.75 -0.01 0.06c-0.42,1.31 -0.85,2.61 -1.28,3.9l-0.1 0.3 -0.09 0.26 -0.11 0.33 -0.1 0.29 -0.09 0.27 -0.01 0.03 -0.5 1.46 -0.1 0.28 0 0.02 -0.41 1.16 -0.1 0.29 -0.1 0.28 0 0.01 -0.1 0.29 -0.11 0.29 -0.1 0.28 0 0 -0.1 0.29 -0.11 0.29 -0.1 0.28 0 0.01 -0.1 0.28 -0.11 0.29 -0.1 0.28 -0.06 0.16 -0.05 0.15 -0.06 0.15 -0.05 0.15 -0.02 0.04 -0.04 0.12 -0.06 0.15 -0.05 0.15 -0.06 0.15 -0.02 0.07 -0.03 0.09 -0.06 0.15 -0.06 0.15 -0.06 0.15 -0.03 0.11 -0.02 0.05 -0.06 0.15 -0.06 0.15 -0.06 0.15 -0.04 0.14 -0.01 0.02 -0.06 0.15 -0.06 0.15 -0.06 0.15 -0.05 0.16 -0.01 0 -0.05 0.15 -0.06 0.15 -0.06 0.15 -0.06 0.15 -0.01 0.04 -0.05 0.12 -0.11 0.3 -0.06 0.16 -0.02 0.05 -0.04 0.1 -0.12 0.31 -0.06 0.15 -0.03 0.07 -0.03 0.08 -0.06 0.15 -0.06 0.16c-0.95,2.44 -1.93,4.83 -2.93,7.17l-0.06 0.15 -0.11 0.27 -0.02 0.03 -0.06 0.15 -0.06 0.14 -0.07 0.15 -0.05 0.13 -0.01 0.02 -0.06 0.14 -0.07 0.15 -0.06 0.14 -0.06 0.14 0 0.01 -0.06 0.14 -0.07 0.15 -0.06 0.14 -0.06 0.14 -0.01 0.02c-0.63,1.42 -1.23,2.79 -1.84,4.09l-7.86 16.98 -0.47 -0.83 -0.92 1.58c-6.67,11.33 -13.92,20.89 -21.56,28.73 -7.56,7.75 -15.5,13.83 -23.6,18.29 -8.61,4.74 -17.45,7.69 -26.29,8.93 -8.31,1.17 -16.75,0.82 -25.26,-0.8 -8.32,-1.58 -16.66,-4.37 -24.98,-8.12 -8.87,-4.01 -17.83,-9.18 -26.81,-15.22 -8.9,-6 -17.72,-12.78 -26.44,-20.09 -9.03,-7.58 -18.13,-15.89 -27.22,-24.19l-0.13 -0.12c-28.26,-25.81 -56.75,-51.83 -89.08,-62.06 -10.86,-3.45 -21.95,-5.06 -32.86,-5.02 -11.34,0.03 -22.63,1.85 -33.38,5.23 -10.9,3.44 -21.2,8.5 -30.41,14.96 -9.02,6.32 -17.04,14.01 -23.6,22.86 -3.77,5.07 -7.03,10.48 -9.86,16.18l-0.08 0.16 -0.44 0.91 -0.06 0.13 -0.16 0.33 -0.04 0.07 -0.18 0.39 -0.01 0.02 -0.19 0.4 -0.01 0.04 -0.18 0.37 -0.18 0.4 -0.07 0.15c-1.89,4.16 -3.59,8.48 -5.1,12.94 -1.99,5.86 -3.66,11.95 -5.07,18.23l0 0.01 -0.21 0.95 -0.03 0.12 -0.07 0.35 -0.16 0.73 -0.05 0.22 -0.07 0.32 -0.03 0.16 -0.19 0.93 0 0.02 -0.1 0.48 -0.01 0.05 -0.09 0.42 -0.09 0.48 -0.04 0.2 -0.06 0.28 -0.05 0.26 -0.04 0.22 -0.07 0.33 -0.02 0.15 -0.08 0.4 -0.02 0.08 -0.09 0.47 0 0.01 -0.09 0.49 -0.01 0.06 -0.07 0.42 -0.03 0.13 -0.06 0.35 -0.04 0.2 -0.05 0.29 -0.05 0.27 -0.04 0.21 -0.06 0.35 -0.02 0.14 -0.08 0.41 -0.01 0.07 -0.08 0.49 -0.03 0.16 -0.03 0.16 -0.02 0.16 -0.01 0.04 -0.02 0.12 -0.03 0.16 -0.02 0.16 -0.02 0.08 -0.01 0.08 -0.03 0.16 -0.03 0.16 -0.02 0.12 0 0.04 -0.03 0.16 -0.02 0.15 -0.03 0.16 0 0.02 -0.03 0.14 -0.02 0.16c-1.67,10.37 -2.81,21.19 -3.64,32.23 -0.31,4.1 -0.58,8.14 -0.82,12.13l-0.01 0.12 -0.02 0.31 -0.05 0.84 0 0.01 -0.02 0.42 -0.03 0.42 -0.01 0.3 -0.01 0.12 -0.03 0.43 0 0.02 -0.02 0.4 -0.01 0.17 -0.01 0.25 -0.02 0.33 -0.01 0.09 -0.02 0.41 0 0.07 -0.02 0.35 -0.01 0.22 -0.01 0.2 -0.03 0.37 0 0.04 -0.02 0.42 -0.01 0.11 -0.01 0.31 -0.02 0.26 0 0.15 -0.03 0.41 0 0.01 -0.02 0.4 -0.01 0.17 -0.01 0.25 -0.02 0.32 0 0.09 -0.02 0.41 -0.01 0.07 -0.01 0.34 -0.02 0.22 -0.01 0.19 -0.01 0.38 -0.01 0.03 -0.02 0.41 0 0.13 -0.02 0.27 -0.01 0.3 -0.01 0.11 -0.02 0.41 0 0.04 -0.02 0.37 -0.01 0.2 -0.01 0.2 -0.02 0.37 0 0.04 -0.02 0.4 -0.01 0.12 -0.01 0.29 -0.01 0.28 -0.01 0.12 -0.02 0.41 0 0.03 -0.02 0.37 -0.01 0.2 -0.01 0.2 -0.01 0.36 -0.01 0.05 -0.02 0.4 0 0.12 -0.01 0.28 -0.02 0.28 -0.01 0.12 -0.02 0.41 0 0.04 -0.01 0.36 -0.01 0.2 -0.01 0.2 -0.02 0.36 0 0.04 -0.02 0.4 0 0.13 -0.02 0.27 -0.01 0.29 -0.01 0.11 -0.02 0.4 0 0.06 -0.01 0.34 -0.01 0.22 -0.01 0.18 -0.02 0.38 0 0.02 -0.02 0.4 -0.01 0.14 -0.01 0.26 -0.01 0.31 -0.01 0.09 -0.02 0.4 0 0.07 -0.01 0.33 -0.01 0.23 -0.01 0.17 -0.02 0.4c-0.13,2.97 0.95,5.72 2.81,7.75 1.89,2.02 4.52,3.35 7.45,3.48l0.04 0c2.96,0.13 5.7,-0.97 7.73,-2.83l0.04 0c2.02,-1.85 3.34,-4.48 3.46,-7.44l0 -0.03 0.02 -0.43 0.01 -0.13 0.01 -0.3 0.01 -0.27 0.01 -0.16 0.02 -0.4 0 -0.03 0.02 -0.42 0.01 -0.11 0.01 -0.32 0.01 -0.24 0.01 -0.19 0.02 -0.37 0 -0.06 0.02 -0.43 0 -0.07 0.02 -0.36 0.01 -0.2 0.01 -0.22 0.02 -0.34 0 -0.09 0.04 -0.85 0.01 -0.18 0.01 -0.25 0.01 -0.31 0.01 -0.12 0.02 -0.42 0 -0.02 0.04 -0.83 0.01 -0.29 0.01 -0.14 0.02 -0.42 0.02 -0.42 0.01 -0.13 0.01 -0.29 0.01 -0.27 0.01 -0.16 0.02 -0.4 0 -0.02 0.02 -0.42 0.01 -0.12 0.01 -0.3 0.02 -0.25 0.02 -0.56 0 -0.03 0.02 -0.42 0.01 -0.1 0.01 -0.32 0.02 -0.24 0.01 -0.17 0.02 -0.38 0 -0.04 0.04 -0.83 0.01 -0.24 0.01 -0.18 0.02 -0.37 0 -0.04 0.02 -0.41 0.01 -0.1 0.19 -3.58 0.01 -0.25 0.06 -1.09 0.02 -0.27 0.01 -0.27 0.01 -0.12 0.05 -0.8 0.01 -0.16 0.03 -0.54 0 -0.09 0.02 -0.39 0.01 -0.06 0.02 -0.34 0.01 -0.2 0.03 -0.54 0 -0.03 0.03 -0.39 0.01 -0.11 0.03 -0.66 0.03 -0.39 0 -0.02 0.03 -0.4 0 -0.13 0.02 -0.28 0.02 -0.25 0.01 -0.17 0.02 -0.36 0 -0.05 0.03 -0.42 0 -0.05 0.03 -0.36 0.01 -0.17 0.02 -0.25 0.01 -0.27 0.02 -0.14 0.08 -1.25 0.01 -0.18 0.04 -0.52 0.01 -0.12 0.21 -2.96c0.19,-2.53 0.39,-5.05 0.62,-7.56l0.01 -0.13 0.34 -3.62 0.01 -0.01 0.04 -0.4 0.01 -0.13 0.11 -1.07 0 0 0.04 -0.4 0.01 -0.13 0.03 -0.27 0.08 -0.79 0 -0.01 0.18 -1.58 0 0 0.04 -0.4 0.01 -0.13 0.04 -0.27 0.02 -0.26 0.02 -0.13 0.04 -0.4 0.01 0 0.06 -0.53 0.06 -0.52 0.06 -0.53 1.07 -9.29 0.18 0.05c0.26,-1.76 0.54,-3.51 0.84,-5.25 1.72,-10.04 4.01,-19.6 7.15,-28.4l0 -0.04c3.23,-9.04 7.39,-17.34 12.77,-24.6 5.23,-7.06 11.66,-13.19 18.88,-18.21 7.32,-5.08 15.53,-9.09 24.24,-11.83 8.54,-2.69 17.61,-4.14 26.82,-4.18 8.92,-0.04 17.87,1.23 26.5,3.96 14.09,4.46 27.98,12.98 41.73,23.49 13.31,10.17 26.37,22.09 39.36,33.96 5.47,4.99 11.08,10.12 13.98,12.71 4.31,3.85 8.89,7.86 14.01,12.16 9.65,8.1 19.36,15.53 29.06,22.01 9.6,6.41 19.34,11.98 29.18,16.42 10.3,4.66 20.68,8.06 31.09,9.91 10.3,1.83 20.63,2.16 30.97,0.71 11.05,-1.55 22.02,-5.12 32.6,-10.79 10.32,-5.52 20.34,-13.09 29.78,-22.77 8.47,-8.69 16.45,-19.06 23.71,-31.15l2.06 -3.58c3.3,-5.74 6.42,-11.8 9.35,-18.16 2,-4.36 3.94,-8.87 5.77,-13.52l0.09 -0.24 0.03 -0.08 0.13 -0.31 0.12 -0.31 0 -0.01 0.13 -0.32 0.12 -0.32 0.03 -0.06 0.09 -0.26 0.13 -0.32 0.05 -0.14 0.07 -0.18 0.12 -0.32 0.08 -0.21 0.05 -0.11 0.36 -0.97 0.12 -0.32 0.01 -0.04 0.11 -0.29 0.12 -0.32 0.05 -0.11 0.07 -0.21 0.12 -0.33 0.07 -0.19 0.05 -0.13 0.12 -0.33 0.1 -0.27c10.41,-28.51 17.98,-63.01 24.12,-100.46 6.15,-37.55 10.92,-78.47 15.66,-119.34l3.49 -29.74c2.65,-22.33 5.43,-44.56 8.47,-66.42 2.95,-21.24 6.13,-41.8 9.64,-61.21 3.47,-19.14 7.26,-37.12 11.47,-53.47 4.26,-16.55 8.96,-31.43 14.17,-44.12 4.53,-11.02 9.41,-20.34 14.48,-28.01 5.59,-8.45 11.49,-15.04 17.5,-19.88 5.09,-4.1 10.26,-6.81 15.32,-8.22 5.8,-1.61 11.42,-1.51 16.6,0.19 1.03,0.33 2.05,0.74 3.06,1.22l1.19 -1.76 8.18 8.79c2.6,2.78 5.13,6.32 7.59,10.79 0.79,1.44 1.57,2.97 2.35,4.62l0.11 0.22 0.01 0.03 0.42 0.89 0.1 0.23 0.03 0.06 0.08 0.17 0.1 0.23 0.01 0.01 0.11 0.23 0.07 0.16 0.03 0.08 0.11 0.24 0.04 0.09 0.07 0.15 0.1 0.24 0.01 0.03 0.1 0.22 0.09 0.19 0.01 0.05 0.11 0.25 0.06 0.12 0.05 0.12 0.1 0.25 0.03 0.06 0.08 0.19 0.1 0.24 0.01 0.01 0.1 0.26 0.07 0.16 0.04 0.09 0.11 0.26 0.03 0.09 0.07 0.17 0.11 0.25 0.01 0.02 0.1 0.24 0.08 0.2 0.02 0.07 0.11 0.26 0.05 0.12 0.05 0.15 0.11 0.26 0.02 0.05 0.09 0.22 0.09 0.24 0.01 0.03 0.11 0.27 0.06 0.16 0.04 0.11 0.11 0.28 0.03 0.08 0.08 0.19 0.1 0.28 0 0 0.11 0.28 0.07 0.19 0.03 0.09 0.11 0.28 0.04 0.11 0.06 0.17 0.11 0.28 0.01 0.04 0.05 0.14 0.07 0.17 0.06 0.18 0.04 0.1 0.03 0.08 0.07 0.18 0.06 0.18 0.06 0.16 0.01 0.02 0.21 0.59 0.05 0.14 0.07 0.19 0.06 0.18 0.04 0.1 0.03 0.09 0.07 0.19 0.06 0.19 0.06 0.16 0.01 0.03 0.07 0.19 0.06 0.2 0.07 0.19 0 0.01 0.07 0.19 0.06 0.19 0.07 0.2 0.02 0.05 0.05 0.15 0.06 0.2c4.05,11.97 7.76,26.99 11.08,45.76 3.71,20.99 6.96,46.78 9.68,78.38 4.73,54.69 7.84,126.63 10.02,208.47 2.1,78.49 3.32,166.17 4.28,256.47l21.54 0 -0.02 -1.31 -0.02 -1.56 -0.01 -1.39 0 -0.17 -0.02 -1.56 -0.01 -1.56 -0.02 -0.96 0 -0.6 -0.02 -1.56 -0.02 -1.56 0 -0.54 -0.01 -1.02 -0.02 -1.55 -0.02 -1.56 0 -0.11 -0.01 -1.45 -0.02 -1.56 -0.01 -1.24 -0.01 -0.31 -0.03 -3.12 -0.01 -0.81 -0.01 -0.74 -0.02 -1.56 -0.02 -1.55 0 -0.38 -0.01 -1.17 -0.04 -3.06 0 -0.05 -0.04 -3.1 -0.01 -1.07 0 -0.48 -0.02 -1.55 -0.02 -1.55 -0.01 -0.64 -0.01 -0.91 -0.02 -1.55 -0.02 -1.54 0 -0.22 -0.02 -1.33 -0.01 -1.55 -0.04 -3.09 -0.02 -1.54 -0.01 -0.9 -0.01 -0.65 -0.02 -1.54 -0.02 -1.54 0 -0.47 -0.01 -1.07 -0.02 -1.55 -0.2 -15.37 -0.02 -1.53 -0.04 -3.07 -0.02 -1.53 -0.01 -0.93 -0.01 -0.6 -0.02 -1.53 -0.02 -1.53 -0.01 -0.49 -0.01 -1.03 -0.04 -3.04 0 -0.08 -0.03 -1.44 -0.03 -2.7 -0.01 -0.33 -0.02 -1.52 -0.02 -1.51 -0.01 -0.77 -0.01 -0.75 -0.02 -1.51 -0.03 -1.51 0 -0.36 -0.02 -1.15 -0.02 -1.51 -0.02 -1.45 0 -0.06 -0.02 -1.51 -0.02 -1.5 -0.02 -1.04 -0.01 -0.47 -0.02 -1.5 -0.02 -1.51 -0.01 -0.63 -0.01 -0.87 -0.03 -1.5 -0.02 -1.5 0 -0.22 -0.02 -1.28 -0.02 -1.5 -0.02 -1.3 -0.01 -0.2 -0.02 -1.5 -0.02 -1.49 -0.02 -0.89 -0.01 -0.61 -0.02 -1.49 -0.02 -1.49 -0.01 -0.48 -0.02 -1.01 -0.02 -1.5 -0.02 -1.48 -0.01 -0.07 -0.02 -1.42 -0.02 -1.49 -0.02 -1.14 -0.01 -0.35 -0.02 -1.48 -0.03 -1.48 -0.01 -0.74 -0.01 -0.75 -0.03 -1.48 -0.02 -1.48 0 -0.32 -0.03 -1.16 -0.02 -1.48 -0.03 -1.38 0 -0.1 -0.02 -1.47 -0.03 -1.47 -0.01 -0.98 -0.01 -0.5 -0.03 -1.47 -0.03 -1.47 0 -0.56 -0.02 -0.91 -0.03 -1.47 -0.02 -1.47 0 -0.15 -0.03 -1.32 -0.03 -1.46 -0.02 -1.21 0 -0.25 -0.03 -1.47 -0.03 -1.46 -0.01 -0.8 -0.01 -0.66 -0.03 -1.46 -0.03 -1.46 0 -0.38 -0.03 -1.07 -0.02 -1.46 -0.03 -1.43 0 -0.02 -0.03 -1.45 -0.03 -1.45 0 -0.15c-0.49,-25.27 -1.03,-49.9 -1.67,-73.69 -2.15,-81.45 -5.26,-153.26 -10.02,-208.29 -2.86,-33.2 -6.31,-60.22 -10.28,-82.15 -3.92,-21.71 -8.41,-38.77 -13.38,-52.17l0 -0.03c-0.53,-1.44 -1.07,-2.83 -1.61,-4.18l-0.04 -0.12 -0.14 -0.33 -0.09 -0.23 -0.04 -0.11 -0.14 -0.34 -0.09 -0.22 -0.05 -0.11 -0.23 -0.55 -0.04 -0.11 -0.42 -0.99 -0.09 -0.2 -0.05 -0.12 -0.14 -0.32 -0.09 -0.2 -0.19 -0.44 -0.08 -0.2 -0.06 -0.12 -0.13 -0.32 -0.09 -0.19 -0.06 -0.12 -0.14 -0.31 -0.08 -0.19 -0.06 -0.13 -0.14 -0.31 -0.08 -0.18 -0.06 -0.13 -0.14 -0.3 -0.08 -0.18 -0.06 -0.13 -0.15 -0.3 -0.08 -0.18 -0.06 -0.12 -0.14 -0.3 -0.08 -0.18 -0.07 -0.13 -0.43 -0.88 -0.07 -0.16 -0.07 -0.14 -0.14 -0.29c-1.45,-2.91 -2.94,-5.59 -4.45,-8.07 -3.13,-5.11 -6.43,-9.34 -9.85,-12.81l-1.09 -1.1c-5.9,-5.64 -12.29,-9.2 -19.06,-11.42 -8.45,-2.78 -17.25,-3.29 -26.04,-1.36 -8.71,1.91 -17.51,6.23 -26.06,13.11 -7.13,5.73 -14.09,13.36 -20.67,22.98 -6.39,9.35 -12.37,20.51 -17.73,33.52 -5.46,13.31 -10.36,28.74 -14.79,45.81 -4.49,17.29 -8.49,36.17 -12.11,56.17 -1.05,5.76 -2.15,12.19 -3.31,19.16 -0.87,5.3 -1.9,11.81 -3.04,19.26zm-544.24 406.37l-0.04 0.2 16.94 0c0.39,-2.99 0.82,-5.97 1.29,-8.91l0 -0.03 0.02 -0.13 0.1 -0.62 0.03 -0.16 0.02 -0.15 0.01 -0.05 0.02 -0.11 0.02 -0.15 0.03 -0.15 0.02 -0.15 0 -0.01 0.03 -0.15 0.02 -0.15 0.03 -0.15 0.01 -0.09 0.01 -0.06 0.03 -0.15 0.02 -0.15 0.03 -0.15 0 -0.04 0.02 -0.11 0.03 -0.15 0.02 -0.15 0.03 -0.15 0.09 -0.52 0.01 -0.08 0.08 -0.45 0.03 -0.15 0.06 -0.38 0.04 -0.22 0.06 -0.31 0.05 -0.29 0.04 -0.24 0.07 -0.36 0.03 -0.16 0.08 -0.44 0.02 -0.09 0.09 -0.51 0 -0.01 0.1 -0.53 0.02 -0.06 0.08 -0.46 0.03 -0.14 0.18 -0.91 0.05 -0.28 0.05 -0.24 0.07 -0.36 0.04 -0.16 0.08 -0.43 0.02 -0.09 0.11 -0.51 0 -0.01 0.11 -0.52 0.01 -0.06 0.12 -0.59 0.09 -0.4 0.04 -0.19c0.24,-1.15 0.5,-2.29 0.76,-3.42l0.03 -0.12c1.49,-6.48 3.25,-12.82 5.34,-18.97 1.63,-4.8 3.47,-9.5 5.54,-14.07l0.13 -0.29 0.07 -0.14 0.18 -0.4 0.01 -0.03 0.2 -0.43 0.04 -0.08 0.16 -0.35 0.09 -0.18 0.11 -0.24 0.14 -0.29 0.06 -0.14 0.19 -0.4 0.22 -0.45 0.04 -0.08 0.17 -0.34 0.09 -0.19c1.56,-3.19 3.25,-6.31 5.06,-9.36l0 -15.52 -0.15 0.16 -0.11 0.11 -0.04 0.05 -0.16 0.16 -0.12 0.14 -0.03 0.02 -0.15 0.16 -0.15 0.16 0 0 -0.15 0.17 -0.15 0.16 -0.02 0.02 -0.13 0.14 -0.15 0.16 -0.04 0.05 -0.1 0.11 -0.15 0.16 -0.07 0.07 -0.08 0.1 -0.14 0.16 -0.09 0.09 -0.06 0.07 -0.15 0.16 -0.1 0.12 -0.04 0.05 -0.15 0.16 -0.13 0.15 -0.01 0.02 -0.15 0.16 -0.14 0.16 -0.01 0.01 -0.13 0.16 -0.15 0.16 -0.02 0.03 -0.12 0.13 -0.15 0.17 -0.04 0.05 -0.1 0.11 -0.14 0.17 -0.06 0.08 -0.08 0.08 -0.14 0.17 -0.09 0.1 -0.05 0.06 -0.14 0.17 -0.11 0.13 -0.03 0.04 -0.14 0.16 -0.13 0.15 -0.01 0.02 -0.14 0.16 -0.13 0.17 -0.02 0.01 -0.12 0.16 -0.14 0.16 -0.03 0.04 -0.11 0.13 -0.14 0.17 -0.05 0.06 -0.08 0.11 -0.14 0.16 -0.07 0.09 -0.06 0.08 -0.14 0.17 -0.09 0.11 -0.04 0.06 -0.14 0.16 -0.11 0.14 -0.02 0.03 -0.13 0.17 -0.13 0.17 -0.01 0 -0.13 0.17 -0.13 0.17 -0.02 0.02 -0.12 0.15 -0.13 0.17 -0.03 0.04 -0.1 0.13 -0.13 0.16 -0.05 0.08 -0.08 0.1 -0.13 0.17 -0.07 0.09 -0.06 0.07 -0.13 0.18 -0.09 0.11 -0.04 0.06 -0.13 0.17 -0.11 0.14 -0.02 0.03 -0.12 0.17 -0.13 0.17c-5.93,7.96 -10.69,16.39 -14.55,24.87 -4.04,8.87 -7.21,18.06 -9.76,26.96 -2.63,9.17 -4.53,17.69 -6.07,25.27zm-3.81 21.22l0.01 0c-0.56,3.63 -1.03,6.96 -1.42,10.05l-0.01 0.04 -0.14 1.18 -0.01 0.09 -0.02 0.11 -0.01 0.14 -0.01 0.05 -0.02 0.2 0 0.01 -0.03 0.18 -0.01 0.07 -0.01 0.12 -0.02 0.14 0 0.05 -0.03 0.19 0 0.01 -0.02 0.18 -0.01 0.07 -0.01 0.12 -0.02 0.13 0 0.06 -0.03 0.19 -0.02 0.19 0 0.06 -0.02 0.13 -0.01 0.12 -0.01 0.07 -0.02 0.18 0 0 -0.02 0.19 -0.01 0.05 -0.01 0.14 -0.01 0.1 -0.01 0.08 -0.02 0.17 0 0.02 -0.03 0.18 0 0.04 -0.01 0.14 -0.01 0.1 -0.02 0.09 -0.01 0.15 0 0.03 -0.02 0.18 -0.01 0.03 -0.01 0.15 -0.01 0.09 -0.01 0.09 -0.02 0.14 0 0.05 -0.02 0.17 0 0.02 -0.02 0.16 -0.01 0.07 -0.01 0.11 -0.01 0.13 -0.01 0.05 -0.02 0.18 -0.05 0.56c-0.49,4.9 -0.83,9.53 -1.09,14.02 -0.27,4.88 -0.44,9.02 -0.6,13.12 -0.32,8.21 -3.96,15.53 -9.57,20.72l0 0.04c-5.59,5.17 -13.18,8.21 -21.42,7.89l-0.38 -0.02 -0.39 -0.02 -0.38 -0.03 -0.38 -0.03 -0.38 -0.04 -0.38 -0.04 -0.37 -0.05 -0.38 -0.05 -0.37 -0.05 0 0 -0.37 -0.06 0 0 -0.37 -0.07 -0.37 -0.06 0 0 -0.37 -0.08 -0.36 -0.08 0 0 -0.36 -0.08 -0.36 -0.08 0 0 -0.36 -0.1 -0.36 -0.09 -0.36 -0.1 0 0 -0.35 -0.1 -0.35 -0.11 -0.35 -0.12 -0.01 0 -0.34 -0.11 -0.35 -0.12 -0.34 -0.13 -0.35 -0.13 0 0 -0.34 -0.13 -0.34 -0.14 -0.33 -0.14 -0.34 -0.14 -0.33 -0.15 0 0 -0.33 -0.15 0 0 -0.32 -0.16 -0.33 -0.16 -0.32 -0.17 -0.01 0 -0.32 -0.16 -0.31 -0.18 -0.32 -0.17 -0.31 -0.18 0 0 -0.31 -0.19 -0.01 0 -0.3 -0.18 -0.01 0 -0.3 -0.19 0 0 -0.3 -0.2 -0.01 0 -0.3 -0.19 -0.29 -0.21 -0.3 -0.2 -0.29 -0.21 -0.01 0 -0.29 -0.21 -0.28 -0.21 -0.29 -0.22 -0.28 -0.22 -0.28 -0.23 -0.28 -0.23 -0.27 -0.23 -0.28 -0.23 -0.26 -0.24 -0.27 -0.24 -0.26 -0.24 -0.26 -0.25 -0.26 -0.25 -0.25 -0.25 -0.25 -0.26 -0.25 -0.26 -0.25 -0.26 -0.04 0c-5.16,-5.59 -8.2,-13.17 -7.88,-21.41 0.2,-4.94 0.39,-9.9 0.66,-14.51 0.28,-4.96 0.67,-10.26 1.26,-16.18 0.07,-1.57 0.31,-3.24 0.51,-4.86l0.01 -0.08 0 -0.01 0.01 -0.09 0.01 -0.09 0.01 -0.1 0.01 0 0.01 -0.09 0.01 -0.09 0.01 -0.09 0 -0.02 0.01 -0.08 0.01 -0.09 0.01 -0.09 0 -0.03 0.01 -0.06 0.01 -0.09c-6.91,3.96 -12.97,9.26 -17.81,15.55 -7.7,10.02 -12.3,22.57 -12.3,36.17l0 233.75c0,16.37 6.71,31.26 17.5,42.05 10.8,10.8 25.69,17.51 42.06,17.51l84.32 0c16.37,0 31.26,-6.71 42.06,-17.51 10.79,-10.79 17.5,-25.68 17.5,-42.05l0 -233.75c0,-13.69 -4.67,-26.33 -12.48,-36.4 -5.73,-7.38 -13.13,-13.39 -21.62,-17.44l-0.39 4.92c-0.29,3.87 -0.54,7.67 -0.77,11.44l-0.01 0.1 -0.05 0.84 0 0.13 -0.06 1.08 -0.01 0.05 -0.02 0.42 0 0.06 -0.03 0.35 0 0.18 -0.02 0.24 -0.01 0.3 -0.01 0.11 -0.02 0.42 0 0 -0.03 0.41 0 0.13 -0.02 0.28 -0.01 0.25 -0.01 0.17 -0.02 0.36 -0.03 0.46 0 0.08 -0.02 0.33 -0.01 0.2 -0.01 0.21 -0.02 0.32 0 0.09 -0.02 0.4 0 0.04 -0.02 0.37 -0.01 0.16 -0.02 0.25 -0.01 0.28 -0.01 0.12 -0.02 0.41 -0.02 0.41 0 0.12 -0.02 0.28 -0.01 0.25 -0.01 0.16 -0.02 0.37 0 0.03 -0.02 0.4 0 0.1 -0.02 0.3 -0.01 0.22 -0.01 0.19 -0.02 0.34 0 0.06 -0.02 0.4 0 0.07 -0.02 0.33 -0.01 0.2 -0.01 0.2 -0.01 0.33 0 0.07 -0.02 0.4 -0.01 0.05 -0.01 0.35 -0.01 0.18 -0.01 0.22 -0.02 0.31 0 0.09 -0.02 0.39 0 0.04 -0.02 0.36 -0.01 0.17 -0.01 0.23 -0.01 0.29 -0.01 0.11 -0.02 0.4 0 0.02 -0.01 0.37 -0.01 0.16 -0.01 0.24 -0.01 0.28 -0.01 0.12 -0.02 0.39 0 0.02 -0.02 0.38 0 0.14 -0.02 0.26 -0.01 0.27 0 0.12 -0.02 0.4 0 0.01 -0.02 0.38 -0.01 0.14 -0.01 0.26 -0.01 0.26 -0.01 0.14 -0.01 0.39c-0.37,8.22 -4.03,15.52 -9.65,20.68 -5.61,5.18 -13.22,8.2 -21.47,7.85 -8.24,-0.36 -15.55,-4.02 -20.69,-9.62l0 -0.04c-5.16,-5.63 -8.18,-13.23 -7.83,-21.45l0.02 -0.43 0 -0.17 0.02 -0.25 0.01 -0.35 0.01 -0.08 0.02 -0.43 0 -0.08 0.02 -0.35 0.01 -0.25 0.01 -0.17 0.02 -0.43 0.01 -0.43 0.01 -0.17 0.02 -0.25 0.01 -0.35 0.01 -0.08 0.01 -0.43 0.01 -0.08 0.02 -0.34 0.01 -0.26 0.01 -0.17 0.01 -0.42 0 -0.01 0.03 -0.42 0 -0.18 0.01 -0.25 0.02 -0.35 0 -0.07 0.03 -0.43 0 -0.09 0.01 -0.33 0.02 -0.27 0.01 -0.15 0.02 -0.43 0 -0.01 0.02 -0.41 0.01 -0.19 0.01 -0.23 0.01 -0.37 0.01 -0.06 0.02 -0.42 0 -0.11 0.02 -0.31 0.01 -0.29 0.01 -0.13 0.02 -0.42 0 -0.04 0.02 -0.38 0.01 -0.22 0.01 -0.2 0.02 -0.39 0 -0.03 0.02 -0.42 0.01 -0.14 0.01 -0.27 0.02 -0.32 0 -0.1 0.03 -0.42 0 -0.07 0.01 -0.34 0.02 -0.25 0.01 -0.17 0.02 -0.41 0 -0.01 0.02 -0.41 0.01 -0.18 0.01 -0.23 0.02 -0.36 0 -0.05 0.02 -0.41 0.01 -0.13 0.01 -0.28 0.02 -0.31 0.01 -0.1 0.02 -0.41 0 -0.08 0.02 -0.33 0.01 -0.25 0.01 -0.15 0.07 -1.22 0.02 -0.38 0 -0.02 0.02 -0.4 0.01 -0.16 0.03 -0.59 0.01 -0.05 0.02 -0.4 0 -0.13 0.1 -1.73 0.01 -0.12 0.07 -1.18 0.03 -0.39 0 -0.04c0.21,-3.63 0.45,-7.19 0.72,-10.67l0.4 -5.03 -18.4 0 -0.29 1.9zm451.68 -193.89c2.41,-7.73 4.73,-15.71 6.95,-23.88l0.07 -0.27 0.11 -0.4 0.11 -0.4 0.1 -0.4 0.02 -0.07 0.09 -0.33 0.11 -0.4 0.11 -0.4 0.1 -0.4 0.01 -0.02 0.1 -0.38 0.11 -0.41 0.1 -0.41 0.22 -0.81 0.1 -0.4 0.22 -0.82 0.1 -0.4c0.68,-2.59 1.35,-5.21 2.01,-7.87 -1.33,-7.64 -2.61,-15.61 -3.84,-23.89 -1.33,-8.94 -2.58,-18.04 -3.73,-27.26 -3.18,-25.47 -5.8,-52.68 -8.13,-80.68 -2.27,-27.22 -4.33,-56.28 -6.38,-85.18 -2.71,-38.29 -5.41,-76.34 -8.61,-110.58 -3.27,-35.06 -7.17,-67.84 -12.33,-96.26 -4.6,-25.35 -10.21,-47.1 -16.49,-65.83 -6.22,-18.56 -13.09,-34.1 -20.25,-47.19 -7.4,-13.52 -15.14,-24.55 -22.85,-33.68 -6.35,-7.53 -12.72,-13.78 -18.9,-19.12l-3.69 -3.02c-11.66,-9.56 -22.22,-15.96 -32.08,-20.42l-0.06 -0.02c-0.77,-0.35 -1.54,-0.69 -2.31,-1.02l-0.41 -0.17 -0.16 -0.07 -0.4 -0.17 -0.18 -0.07 -0.57 -0.23 -0.35 -0.15 -0.22 -0.08 -0.33 -0.13 -0.23 -0.1 -0.32 -0.12 -0.25 -0.1 -0.29 -0.11 -0.28 -0.11 -0.27 -0.1 -0.29 -0.11 -0.25 -0.1 -0.31 -0.11 -0.24 -0.09 -0.33 -0.12 -0.21 -0.08 -0.35 -0.13 -0.19 -0.06 -0.38 -0.14 -0.27 -0.09 -0.29 -0.11 -1.22 -0.41c-5.27,-1.77 -10.56,-3.14 -15.87,-4.29 -2.26,-0.49 -4.48,-0.94 -6.66,-1.35l-0.02 0 -0.49 -0.09 -0.04 -0.01 -0.09 -0.02 -0.12 -0.02 -0.12 -0.02 -0.13 -0.03 -0.09 -0.01 -0.03 -0.01 -0.13 -0.02 -0.12 -0.02 -0.04 -0.01 -0.22 -0.04 -0.03 -0.01 -0.52 -0.09 -0.46 -0.08 -0.08 -0.02 -0.17 -0.03 -0.06 -0.01 -0.19 -0.03 -0.13 -0.03 -0.11 -0.02 -0.09 -0.01 -0.16 -0.03 -0.18 -0.03 -0.07 -0.01 -0.12 -0.03 -0.12 -0.02 -0.23 -0.04 -0.02 0 -0.15 -0.03 -0.09 -0.01 -0.25 -0.05 -0.04 0 -0.15 -0.03 -0.05 -0.01 -0.24 -0.04 -0.1 -0.02 -0.13 -0.02 -0.01 0 -0.01 0 -0.25 -0.05 -0.14 -0.02 -0.1 -0.02 -0.02 0 -0.22 -0.04 -0.21 -0.03 -0.04 -0.01 -0.05 -0.01 -0.19 -0.03 -0.25 -0.05 -0.01 0 -0.08 -0.01 -0.15 -0.03 -0.24 -0.04 -0.08 -0.01 -0.05 -0.01 -0.12 -0.02 -0.24 -0.04 -0.13 -0.02 -0.04 -0.01 -0.08 -0.01 -0.24 -0.04 -0.18 -0.04 -0.02 0 -0.04 -0.01 -0.24 -0.04 -0.25 -0.04c-1.25,-0.22 -1.88,-0.33 -3.15,-0.4 -3,0 -5.71,1.21 -7.66,3.15 -1.93,1.97 -3.14,4.68 -3.14,7.66 0,2.8 1.05,5.35 2.77,7.25 1.76,1.95 4.19,3.26 6.88,3.53l0.64 0.08 0.24 0.04 0.22 0.04 0.02 0 0.24 0.04 0.2 0.03 0.04 0.01 0.25 0.04 0.17 0.03 0.07 0.01 0.24 0.04 0.15 0.03 0.09 0.01 0.24 0.05 0.13 0.02 0.11 0.02 0.24 0.04 0.11 0.02 0.13 0.02 0.25 0.04 0.08 0.02 0.16 0.02 0.24 0.05 0.06 0.01 0.18 0.03 0.24 0.04 0.05 0.01 0.19 0.03 0.25 0.05 0.02 0 0.22 0.04 0.24 0.04 0 0 0.25 0.05 0.21 0.03 0.03 0.01 0.24 0.04 0.19 0.04 0.05 0.01 0.25 0.04 0.17 0.03 0.07 0.02 0.24 0.04 0.15 0.03 0.09 0.01 0.25 0.05 0.12 0.02 0.12 0.03 0.25 0.04 0.1 0.02 0.14 0.03 0.24 0.04 0.08 0.02 0.17 0.03 0.24 0.05 0.06 0.01 0.19 0.03 0.24 0.05 0.03 0 0.21 0.05 0.25 0.04 0.01 0 0.46 0.1 0.02 0 0.25 0.05 0.2 0.04 0.04 0.01 0.25 0.05 0.18 0.03 0.06 0.02 0.25 0.05 0.15 0.03 0.09 0.02 0.25 0.05 0.13 0.03 0.12 0.02 0.35 0.07 0.14 0.04 0.25 0.05 0.08 0.01 0.16 0.04 0.25 0.05 0.06 0.01 0.19 0.05 0.25 0.05 0.03 0.01 0.22 0.05 0.25 0.05 0 0 0.47 0.11 0.02 0 0.25 0.06 0.2 0.04 0.05 0.02 0.25 0.05 0.18 0.04 0.07 0.02 0.26 0.06 0.14 0.03 0.11 0.03 0.26 0.06 0.11 0.03 0.15 0.03 0.25 0.06 0.07 0.02 0.19 0.04 0.29 0.08 0.22 0.05 0.25 0.06 0.01 0 0.26 0.07 0.21 0.06 0.48 0.12 0.08 0.02 0.26 0.06 0.14 0.04 0.11 0.03 0.26 0.07 0.11 0.03 0.15 0.04 0.26 0.07 0.07 0.02 0.19 0.05 0.26 0.07 0.03 0.01 0.23 0.06 0.25 0.07 0.01 0 0.26 0.07 0.22 0.06 0.04 0.01 0.26 0.08 0.18 0.05 0.08 0.02 0.53 0.16 0.26 0.07 0.1 0.03 0.16 0.05 0.27 0.08 0.06 0.02 0.2 0.06 0.29 0.09 0.24 0.07 0.25 0.08 0.01 0 0.26 0.08 0.22 0.07 0.05 0.01 0.26 0.09 0.18 0.05 0.09 0.03 0.26 0.09 0.14 0.04 0.13 0.04 0.26 0.09 0.11 0.03 0.16 0.06 0.27 0.08 0.06 0.03 0.2 0.06 0.27 0.09 0.03 0.01 0.49 0.17 0.01 0.01 0.27 0.09 0.22 0.07 0.05 0.02 0.27 0.1 0.18 0.06 0.09 0.03 0.27 0.1 0.14 0.04 0.13 0.05 0.27 0.1 0.1 0.04 0.51 0.18 0.2 0.08 1.33 0.5 0.51 0.2 0.51 0.2 12.49 4.84 -0.69 0.71 0.22 0.11 0.08 0.05 0.29 0.16 0.16 0.09 0.14 0.07 0.3 0.17 0.1 0.06 0.19 0.11 0.3 0.17 0.04 0.02 0.26 0.15 0.28 0.16 0.02 0.01 0.29 0.17 0.23 0.13 0.07 0.04 0.3 0.18 0.17 0.1 0.13 0.07 0.3 0.18 0.11 0.07 0.19 0.11 0.3 0.18 0.06 0.04 0.24 0.14 0.3 0.19 0.3 0.18 0.24 0.15 0.06 0.04 0.3 0.19 0.19 0.11 0.11 0.08 0.31 0.19 0.12 0.08 0.18 0.11 0.3 0.2 0.07 0.04 0.24 0.15 0.3 0.2 0.01 0.01 0.3 0.19 0.25 0.17 0.05 0.03 0.31 0.2 0.19 0.13 0.11 0.08 0.31 0.2 0.14 0.09 0.16 0.12 0.31 0.21 0.08 0.05 0.22 0.15 0.31 0.22 0.03 0.01 0.28 0.2 0.27 0.19 0.04 0.02 0.31 0.22 0.21 0.15 0.1 0.07 0.31 0.22 0.15 0.11 0.15 0.11 0.32 0.22 0.09 0.07 0.22 0.15 0.31 0.23 0.03 0.03 0.28 0.2 0.29 0.21 0.02 0.02 0.31 0.23 0.23 0.17 0.08 0.06 0.32 0.24 0.17 0.12 0.14 0.11 0.32 0.24 0.1 0.08 0.21 0.16 0.31 0.24 0.05 0.04 0.27 0.21 0.3 0.23 0.01 0.01 0.32 0.25 0.24 0.19 0.08 0.06 0.31 0.25 0.19 0.14 0.13 0.11 0.32 0.25 0.12 0.1 0.2 0.16 0.32 0.25 0.06 0.05 0.25 0.21 0.32 0.26 7.63 6.26 -0.23 0.26c4.14,3.86 8.38,8.25 12.64,13.3 1.58,1.88 3.17,3.85 4.75,5.91l1.15 1.46 -0.01 0.05c4.8,6.41 9.56,13.75 14.19,22.21 6.74,12.33 13.21,27.04 19.09,44.73 5.81,17.49 11.04,37.9 15.38,61.8 4.99,27.52 8.81,59.93 12.05,94.89 3.31,35.83 5.93,72.64 8.55,109.67 2.03,28.59 4.07,57.33 6.47,86.23 2.34,28.11 4.96,55.37 8.12,80.73 3,24.02 6.48,46.33 10.38,66.83 1.79,9.44 3.68,18.53 5.64,27.26l0.1 -0.31 0.1 -0.31 0.1 -0.3 0.08 -0.26 0.02 -0.05 0.1 -0.3 0.1 -0.31 0.1 -0.31 0.1 -0.31 0.05 -0.15 0.05 -0.15 0.09 -0.31 0.1 -0.31 0.1 -0.3 0.1 -0.31 0.02 -0.07 0.08 -0.24 0.09 -0.31 0.1 -0.31 0.1 -0.31 0.09 -0.28 0.01 -0.03 0.09 -0.31 0.1 -0.31 0.19 -0.61 0.06 -0.19 0.04 -0.13zm229.41 -357.04c-1.67,-6.99 -3.41,-13.18 -5.22,-18.64l-0.02 -0.08 -0.04 -0.11 -0.06 -0.19 -0.06 -0.18 -0.04 -0.11 -0.03 -0.07 -0.06 -0.19 -0.06 -0.19c-0.47,-1.35 -0.95,-2.71 -1.45,-4.05l0 -0.04 -0.05 -0.13 -0.05 -0.14 -0.05 -0.12 0 -0.02 -0.06 -0.13 -0.05 -0.14 -0.04 -0.11 -0.01 -0.02 -0.05 -0.14 -0.05 -0.13 -0.03 -0.09 -0.02 -0.04 -0.05 -0.13 -0.05 -0.14 -0.03 -0.08 -0.02 -0.05 -0.05 -0.13 -0.05 -0.13 -0.03 -0.07 -0.02 -0.06 -0.05 -0.13 -0.05 -0.13 -0.02 -0.05 -0.03 -0.08 -0.05 -0.13 -0.21 -0.51 0 -0.02 -0.1 -0.23 -0.05 -0.12 0 -0.02 -0.29 -0.71 -0.01 -0.02c-0.53,-1.3 -1.06,-2.52 -1.59,-3.69 -1.55,3.01 -3.03,6.18 -4.45,9.54 -3.72,8.74 -7.04,18.66 -10.05,30.18 -3.21,12.37 -6.09,26.64 -8.72,43.38 -2.64,16.86 -5.06,36.34 -7.36,59.02 -1.26,12.51 -2.31,23.63 -3.26,34.16l-2.88 33.44c-3.46,40.5 -7.24,84.72 -12.33,126.53 -5.1,42.02 -11.52,81.48 -20.21,112.08 -4.06,14.22 -8.57,26.48 -13.42,36.81 -5.19,11.08 -10.8,19.95 -16.65,26.64 -2.67,3.06 -5.35,5.62 -8.01,7.68 -3.01,2.32 -6.01,4.04 -8.97,5.18 -2.42,0.92 -4.93,1.45 -7.5,1.59 -2.53,0.13 -5.06,-0.15 -7.57,-0.84l-0.19 -0.02c-2.47,-0.71 -4.94,-1.79 -7.38,-3.23 -1.75,-1.04 -3.54,-2.31 -5.36,-3.79 -1.08,2.54 -2.18,5.02 -3.3,7.45 -1.98,4.3 -4.02,8.44 -6.11,12.4 1.67,1.16 3.35,2.22 5.06,3.17 3.69,2.08 7.45,3.68 11.25,4.77 4.87,1.38 9.7,1.97 14.47,1.76 4.72,-0.21 9.5,-1.24 14.31,-3.08 4.42,-1.69 8.76,-4.09 12.97,-7.18 4.32,-3.17 8.52,-7.06 12.54,-11.67 6.71,-7.67 13.1,-17.57 19,-29.7 5.78,-11.9 11.05,-25.89 15.63,-41.99 8.92,-31.4 15.48,-71.4 20.69,-113.82 5.23,-42.65 9.09,-87.7 12.62,-128.96l3.19 -36.93 0.04 0c1.06,-12 2.03,-22.49 2.82,-30.34 2.2,-21.79 4.53,-40.59 7.07,-56.93 2.57,-16.45 5.34,-30.32 8.42,-42.17 0.84,-3.23 1.62,-6.02 2.31,-8.36l1.58 -5.08zm-23.64 -47c-1.19,-0.1 -2.48,0.03 -3.84,0.4 -2.58,0.72 -5.42,2.27 -8.45,4.71 -4.5,3.62 -9.06,8.77 -13.53,15.54 -4.44,6.72 -8.75,14.94 -12.77,24.73 -4.9,11.93 -9.32,25.95 -13.34,41.58 -4.09,15.85 -7.78,33.38 -11.18,52.13 -3.36,18.58 -6.5,38.97 -9.49,60.45 -2.89,20.87 -5.68,43.18 -8.4,66.05l-3.48 29.67c-4.75,40.87 -9.51,81.8 -15.81,120.23 -5.97,36.41 -13.3,70.23 -23.25,98.94l0.28 0.3c1.21,1.29 2.36,2.42 3.46,3.37 1.33,1.16 2.65,2.14 3.96,2.91 1.04,0.61 2,1.05 2.85,1.29 0.04,0 0.12,0 0.11,0.05 0.47,0.12 0.97,0.16 1.49,0.14 0.47,-0.03 1.04,-0.16 1.67,-0.4 1.29,-0.5 2.67,-1.3 4.11,-2.42 1.71,-1.32 3.49,-3.03 5.32,-5.13 4.71,-5.39 9.34,-12.76 13.75,-22.16 4.36,-9.29 8.49,-20.59 12.29,-33.94l0 -0.04c8.39,-29.51 14.62,-67.98 19.62,-109.08 5.02,-41.3 8.8,-85.43 12.25,-125.85 0.6,-6.95 1.26,-14.61 2.95,-33.52 1.06,-11.78 2.14,-23.24 3.27,-34.4 2.31,-22.87 4.78,-42.69 7.5,-60.05 2.75,-17.47 5.75,-32.36 9.1,-45.25 3.27,-12.55 6.89,-23.36 10.94,-32.87 2.66,-6.28 5.53,-12.03 8.62,-17.38zm109.21 425.2l0.05 3.03 0.03 1.45 0.02 1.16 0.01 0.29 0.02 1.45 0.03 1.45 0.02 0.91 0.01 0.54 0.03 1.46 0.02 1.46 0.02 0.66 0.01 0.8 0.08 4.38 0.03 1.47 0.03 1.61 0.02 1.32 0.05 2.83 0 0.11 0.02 1.47 0.03 1.47 0.02 1.11 0 0.37 0.03 1.48 0.03 1.47 0.01 0.85 0.01 0.63 0.02 1.48 0.03 1.48 0.01 0.59 0.01 0.9 0.03 1.48 0.02 1.49 0.03 1.48 0.02 1.49 0.03 1.49 0 0.06 0.02 1.43 0.07 4.48 0.02 1.5 0.02 1.02 0.01 0.48 0.02 1.49 0.02 1.5 0.02 0.76 0.01 0.75 0.02 1.5 0.02 1.5 0.01 0.49 0.01 1.01 0.03 1.51 0.02 1.51 0 0.22 0.02 1.29 0.02 1.51 0.05 3.02 0.02 1.51 0.02 1.18 0 0.33 0.03 1.52 0.02 1.51 0.01 0.92 0.01 0.6 0.02 1.52 0.02 1.52 0.01 0.64 0.01 0.88 0.02 1.52 0.05 3.05 0.02 1.52 0.02 1.53 0 0.08 0.02 1.44 0.02 1.38 0.02 1.38 0 0.11 0.02 1.26 0.01 1.38 0.02 1.38 0.01 0.29 0.01 1.1 0.02 1.38 0.01 1.38 0.01 0.46 0.01 0.92 0.02 1.39 0.02 1.39 0.01 0.62 0.01 0.76 0.01 1.39 0.02 1.39 0.01 0.8 0.01 0.59 0.02 1.39 0.1 8.35 0.02 1.4 0.02 1.31 0 0.08 0.02 1.4 0.01 1.4 0.02 1.4 0 0.08 0.01 1.32 0.02 1.4 0.02 1.4 0 0.25 0.02 1.15 0.01 1.4 0.02 1.4 0 0.42 0.01 0.99 0.02 1.4 0.02 1.41 0.01 0.58 0 0.82 0.02 1.41 0.02 1.41 0.01 0.74 0 0.66 0.02 1.41 0.05 4.23 0.01 1.41 0.02 1.08 0 0.33 0.02 1.42 0.01 1.41 0.02 1.24 0 0.17 0.01 1.42 0.02 1.41 0.01 1.4 0 0.02 0.02 1.41 0.01 1.42 0.02 1.42 0 0.14 0.02 1.27 0.01 1.42 0.02 1.42 0 0.31 0.01 1.11 0.02 1.42 0.01 1.42 0.01 0.47 0.01 0.95 0.01 1.42 0.02 1.42 18.34 0c0.32,-74.92 0.57,-147.91 0.61,-215.01 0.03,-69.94 -0.17,-133.56 -0.77,-186.43 -0.36,-32.24 -0.89,-60.6 -1.73,-85.54 -0.83,-24.75 -1.96,-45.86 -3.55,-63.69 -1.7,-18.97 -3.98,-34.63 -7.03,-47.37 -2.9,-12.13 -6.48,-21.49 -10.88,-28.45 -1.57,-2.47 -3.28,-4.73 -5.11,-6.75 -1.82,-2.03 -3.67,-3.73 -5.54,-5.13l-0.02 0.02c-3.57,-2.66 -7.3,-4.51 -11.14,-5.6 -4.03,-1.15 -8.25,-1.51 -12.58,-1.16 -3.65,0.29 -7.36,1.13 -11.06,2.45 -1.86,0.67 -3.69,1.44 -5.51,2.32 1.64,2.22 3.23,4.59 4.79,7.12 2.15,3.52 4.23,7.35 6.23,11.53l0.48 -0.19c2.33,-0.94 4.6,-1.53 6.76,-1.7l0.04 0c1.46,-0.11 2.97,0.01 4.51,0.41 1.61,0.41 3.15,1.12 4.54,2.16l0.02 -0.03c0.98,0.74 1.99,1.69 2.99,2.85 0.77,0.84 1.55,1.91 2.35,3.19 3.78,5.96 6.8,14.43 9.21,25.75 2.22,10.46 4.02,23.84 5.5,40.44 1.58,17.7 2.7,38.59 3.51,63.04 0.81,24.26 1.32,52.33 1.69,84.5 0.34,30.12 0.55,63.81 0.67,100.21 0.1,36.25 0.12,75.18 0.07,115.96zm-502.38 -703.4l0.05 0 0.05 0.01 0 0 0.05 0.01 0.01 0 0.05 0.01 0 0 0.05 0.01 0 0 0.05 0.01 0.05 0.01 0.01 0 0.05 0.01 0 0 0.05 0.01 0 0 0.05 0.01 0 0 0.05 0.01 0.05 0.01 0.01 0 0.05 0.01 0 0 0.05 0.01 0 0 0.05 0.01 0 0 0 0 0.05 0.01 0 0 0.05 0.01 0.05 0.01 0 0 0.05 0.01 0 0 0.05 0.01 0 0 0.01 0 0.04 0.01 0.01 0 0.04 0.01 0.01 0 0.04 0.01 0.01 0 0 0 0.04 0.01 0.01 0 0.04 0.01 0.01 0 0 0 0.04 0.01 0.01 0 0.04 0.01 0.01 0 0.04 0.01 0.01 0 0.04 0.01 0 0 0.01 0 0.04 0.01 0.01 0 0.04 0.01 0 0 0.01 0 0.04 0.01 0 0 0.01 0 0.04 0.01 0 0 0 0 0.05 0.02 0 0 0 0 0.05 0.01 0 0 0 0 0.05 0.01 0 0 0 0 0.55 0.09 0.03 0.01 0.52 0.09 0.05 0 0.5 0.09 0.07 0.01 0.48 0.09 0.1 0.01 0.46 0.08 0.11 0.02 0.39 0.07c-3.15,-1.11 -6.56,-1.71 -10.13,-1.71 -8.36,0 -15.94,3.39 -21.42,8.87 -5.48,5.48 -8.87,13.06 -8.87,21.42 0,8.39 3.38,15.97 8.85,21.45 5.46,5.45 13.01,8.82 21.36,8.85l-0.18 -0.03 -0.42 -0.08 -1.26 -0.21 -0.42 -0.07 -0.42 -0.08 -0.42 -0.07 -0.42 -0.07c-7.37,-0.9 -13.9,-4.45 -18.6,-9.66 -4.79,-5.3 -7.71,-12.33 -7.71,-20.03 0,-8.26 3.35,-15.75 8.77,-21.16l0.03 0c5.42,-5.42 12.9,-8.77 21.13,-8.77 1.13,0 2.3,0.07 3.5,0.21l0.06 0 0.05 0.01 0.06 0.01 0.06 0.01 0.05 0 0.06 0.01 0.05 0.01 0.06 0.01 0.06 0 0.05 0.01 0.06 0.01 0.05 0.01 0.05 0 0.01 0 0.05 0.01 0.06 0.01 0.05 0.01 0.05 0 0.06 0.01 0.05 0.01 0.06 0.01 0.05 0.01 0.06 0 0.05 0.01 0.05 0.01 0 0 0.06 0.01 0.05 0.01 0.05 0.01 0 0 0.06 0.01zm-510.44 -765.85l297.92 0c1.95,0 4.05,0.15 6.27,0.43 11.48,1.47 21.32,6.89 28.3,14.88 6.97,7.98 11.06,18.47 11.06,30.08l0.04 0c0,1.92 -0.15,4.06 -0.45,6.4l-69.24 541.5c-1.75,13.65 -8.86,26.01 -18.9,34.91 -10.07,8.93 -23.16,14.48 -36.82,14.48l-297.92 0c-1.96,0 -4.05,-0.15 -6.28,-0.43 -11.49,-1.47 -21.33,-6.89 -28.31,-14.88 -6.96,-7.97 -11.05,-18.46 -11.05,-30.08l-0.04 0c0,-1.92 0.15,-4.06 0.44,-6.4l69.25 -541.49c1.74,-13.66 8.85,-26.02 18.89,-34.92 10.08,-8.93 23.17,-14.48 36.84,-14.48zm297.92 19.13l-297.92 0c-8.9,0 -17.52,3.69 -24.21,9.62 -6.73,5.97 -11.48,14.13 -12.61,23.04l-69.25 541.5c-0.15,1.17 -0.22,2.51 -0.22,4l-0.04 0c0,6.84 2.35,12.95 6.35,17.53 3.99,4.56 9.67,7.67 16.35,8.52 1.08,0.14 2.38,0.21 3.89,0.21l297.92 0c8.89,0 17.5,-3.69 24.2,-9.62 6.72,-5.97 11.47,-14.13 12.61,-23.04l69.25 -541.49c0.14,-1.18 0.22,-2.52 0.22,-4.01l0.04 0c0,-6.83 -2.35,-12.95 -6.35,-17.53 -3.99,-4.56 -9.68,-7.67 -16.35,-8.52 -1.08,-0.14 -2.37,-0.21 -3.88,-0.21zm-92.92 688.54l75.4 0c10.55,0 20.8,-4.38 28.8,-11.44 8.03,-7.08 13.73,-16.77 15.15,-27.34l14.15 -105.12 0.01 0 64.65 -480.23c0.67,-4.99 0.33,-9.73 -0.87,-14.03 -1.19,-4.28 -3.26,-8.17 -6.02,-11.44 -1.99,-2.15 -3.96,-4.62 -5.88,-6.86l-14.82 -17.3 -78.48 582.9 -0.1 0.71 -0.11 0.72 -0.11 0.71 -0.13 0.71 -0.14 0.71 -0.14 0.7 -0.15 0.7 -0.17 0.7 -0.16 0.7 -0.18 0.7 -0.19 0.69 -0.19 0.69 -0.2 0.69 -0.21 0.68 -0.22 0.68 -0.22 0.68 -0.24 0.67 -0.24 0.68 -0.24 0.66 0 0.01 -0.26 0.66 -0.26 0.66 0 0 -0.28 0.66 -0.27 0.66 0 0 -0.29 0.65 -0.29 0.65 0 0 -0.3 0.64 0 0.01 -0.31 0.64 0 0 -0.31 0.64 -0.33 0.63 -0.32 0.63 0 0 -0.34 0.63 0 0 -0.34 0.62 0 0 -0.35 0.62 -0.36 0.61 -0.36 0.61 0 0.01 -0.37 0.6 -0.38 0.6 0 0.01 -0.38 0.59 0 0.01 -0.39 0.59 0 0 -0.39 0.59 0 0 -0.4 0.58 0 0.01 -0.41 0.58 -0.41 0.57 -0.42 0.58 -0.43 0.56 0 0 -0.43 0.57 0 0 -0.44 0.55 0 0.01 -0.44 0.55 0 0 -0.45 0.55 0 0 -0.46 0.54 0 0 -0.45 0.54 0 0 -0.47 0.53 0 0.01 -0.47 0.52 0 0.01 -0.48 0.52 0 0 -0.48 0.52 0 0 -0.49 0.51 0 0 -0.49 0.51 0 0 -0.5 0.5 0 0 -0.5 0.5 0 0 -0.51 0.49 0 0.01 -0.51 0.48 0 0 -0.52 0.48 0 0 -0.53 0.48 0 0 -0.52 0.47 0 0 -0.54 0.46 0 0.01 -0.54 0.46 0 0 -0.54 0.45 0 0 -0.55 0.45 0 0 -0.56 0.44 0 0.01 -0.55 0.43 0 0 -0.57 0.43 0 0 -0.56 0.43 0 0 -0.57 0.42 0 0 -0.58 0.41 0 0 -0.58 0.41 0 0 -0.59 0.4 0 0 -0.59 0.39 0 0.01 -0.59 0.38 0 0.01 -0.6 0.38 0 0 -0.6 0.37 0 0 -0.6 0.37 0 0.01 -0.61 0.36 0 0 -0.61 0.35 0 0 -0.62 0.35 0 0.01 -0.62 0.33 0 0.01 -0.62 0.33 0 0 -0.63 0.33 0 0 -0.63 0.32 0 0.01 -0.63 0.31 0 0 -0.64 0.31 0 0 -0.64 0.3 0 0.01 -0.65 0.29 0 0 -0.64 0.29 0 0 -0.65 0.28 0 0 -0.66 0.27 0 0 -0.65 0.27 0 0 -0.67 0.26 0 0 -0.66 0.25 0 0 -0.66 0.24 0 0 -0.67 0.24 0 0 -0.67 0.23 0 0 -0.67 0.22 0 0 -0.68 0.21 0 0.01 -0.68 0.2 0 0 -0.68 0.2 0 0 -0.68 0.19 0 0 -0.68 0.18 0 0.01 -0.69 0.17 0 0 -0.69 0.16 0 0.01 -0.69 0.15 0 0.01 -0.7 0.15 0 0 -0.69 0.14 0 0 -0.7 0.13 0 0.01 -0.7 0.12 0 0 -0.7 0.12 0 0 -0.7 0.11 0 0 -0.71 0.1 0 0 -0.71 0.09 0 0 -0.7 0.08 0 0.01 -0.71 0.07 0 0 -0.71 0.07 0 0 -0.72 0.05 0 0 -0.71 0.05 0 0 -0.71 0.04 0 0 -0.72 0.03 0 0.01 -0.72 0.02 0 0 -0.72 0.01 0 0 -0.71 0 0 0.01 -340.77 0c5.47,6.43 14.34,15.6 18.82,22.18 2.77,4.12 6.54,7.49 11.04,9.8 4.38,2.25 9.56,3.52 15.28,3.52l266.39 0zm-333.07 -61.59c2.06,1.67 4.38,3.1 6.9,4.21 3.58,1.57 7.62,2.52 11.99,2.71l0 0.01 0.08 0 0.08 0 0.07 0 0.01 0 0.08 0.01 0.08 0 0.06 0 0.02 0 0.08 0 0.08 0.01 0.05 0 0.03 0 0.08 0 0.08 0 0.17 0 0.08 0 0.17 0.01 0.08 0 0.25 0 341.79 0 0.49 0 0 -0.01 0.49 0 0 -0.01 0.5 -0.01 0 0 0.49 -0.02 0 0 0.49 -0.03 0 0 0.49 -0.03 0 -0.01 0.49 -0.04 0 0 0.49 -0.04 0 -0.01 0.49 -0.05 0 0 0.49 -0.06 0 0 0.49 -0.06 0 0 0.48 -0.07 0 0 0.49 -0.08 0 0 0.48 -0.08 0 0 0.49 -0.09 0 0 0.48 -0.09 0 -0.01 0.48 -0.1 0 0 0.48 -0.1 0 0 0.48 -0.11 0 -0.01 0.48 -0.11 0 0 0.47 -0.13 0 0 0.47 -0.12 0 -0.01 0.48 -0.13 0 0 0.47 -0.14 0 0 0.47 -0.14 0 -0.01 0.47 -0.15 0 0 0.47 -0.15 0 -0.01 0.46 -0.15 0 -0.01 0.47 -0.16 0 0 0.46 -0.17 0 0 0.46 -0.18 0 0 0.45 -0.18 0 0 0.46 -0.19 0 0 0.46 -0.19 0 -0.01 0.45 -0.19 0 -0.01 0.45 -0.2 0 0 0.45 -0.2 0 -0.01 0.45 -0.21 0 0 0.44 -0.22 0 0 0.44 -0.22 0 0 0.44 -0.23 0 0 0.44 -0.23 0 0 0.43 -0.23 0 -0.01 0.44 -0.24 0 0 0.43 -0.25 0 0 0.43 -0.25 0 0 0.42 -0.25 0 0 0.43 -0.26 0 0 0.42 -0.27 0 0 0.42 -0.27 0 0 0.41 -0.27 0 -0.01 0.41 -0.27 0 0 0.41 -0.28 0 -0.01 0.41 -0.28 0 0 0.41 -0.29 0 -0.01 0.4 -0.29 0 0 0.4 -0.3 0 0 0.39 -0.3 0 -0.01 0.39 -0.3 0 -0.01 0.39 -0.3 0 -0.01 0.39 -0.31 0 0 0.38 -0.32 0 0 0.38 -0.33 0 0 0.38 -0.33 0 0 0.37 -0.33 0 0 0.37 -0.34 0 0 0.37 -0.34 0 0 0.37 -0.34 0 -0.01 0.36 -0.34 0.35 -0.35 0 -0.01 0.36 -0.35 0 0 0.35 -0.36 0 0 0.34 -0.36 0 0 0.34 -0.37 0 0 0.34 -0.37 0 0 0.34 -0.37 0 -0.01 0.33 -0.37 0.33 -0.38 0 0 0.32 -0.38 0 0 0.32 -0.39 0.31 -0.39 0 0 0.31 -0.39 0 0 0.31 -0.4 0 0 0.3 -0.39 0 -0.01 0.29 -0.4 0.3 -0.4 0 -0.01 0.28 -0.4 0.29 -0.41 0 0 0.28 -0.42 0.28 -0.41 0 0 0.27 -0.42 0 0 0.26 -0.42 0.26 -0.43 0 0 0.26 -0.43 0 0 0.25 -0.43 0.25 -0.43 0 0 0.24 -0.43 0.24 -0.44 0 0 0.23 -0.44 0.23 -0.44 0 -0.01 0.22 -0.44 0 0 0.22 -0.45 0 0 0.21 -0.45 0 0 0.21 -0.45 0.2 -0.45 0.19 -0.46 0.19 -0.46 0.19 -0.46 0.18 -0.46 0.18 -0.47 0 0 0.16 -0.46 0.17 -0.47 0 0 0.16 -0.47 0.15 -0.47 0 -0.01 0.15 -0.47 0.14 -0.48 0.13 -0.48 0.13 -0.48 0.13 -0.48 0.12 -0.48 0.11 -0.48 0.11 -0.49 0 0 0.1 -0.49 0.09 -0.49 0.09 -0.49 0.08 -0.49 0.08 -0.49 0.07 -0.5 78.8 -585.35 0.07 -0.51 0.01 -0.06 0 -0.02 0.01 -0.07 0.01 -0.08 0 -0.02 0.01 -0.05 0.02 -0.23 0.01 -0.08 0 -0.01 0.01 -0.06 0 -0.08 0.01 -0.05 0 -0.02 0.01 -0.08 0.02 -0.28 0 -0.03 0.03 -0.3 0 -0.05c0.07,-0.94 0.1,-1.92 0.1,-2.92 0,-1.01 -0.04,-2.01 -0.13,-3l-0.01 -0.15 -0.02 -0.18 0 -0.04 -0.01 -0.14 -0.02 -0.17 -0.01 -0.05 -0.01 -0.13 -0.02 -0.18 -0.01 -0.06 -0.01 -0.12 -0.03 -0.24 -0.02 -0.11 -0.02 -0.18 -0.06 -0.35 -0.01 -0.09 -0.01 -0.09c-0.08,-0.47 -0.16,-0.94 -0.25,-1.4 -0.25,-1.23 -0.56,-2.43 -0.93,-3.6l-0.04 -0.12 -0.02 -0.04 -0.05 -0.17 -0.04 -0.12 -0.02 -0.04 -0.05 -0.17 -0.04 -0.12 -0.02 -0.04 -0.06 -0.16 -0.04 -0.13 -0.01 -0.04 -0.06 -0.16 -0.05 -0.13 -0.01 -0.03 -0.07 -0.16 -0.05 -0.13 -0.01 -0.03 -0.06 -0.16 -0.06 -0.14 0 -0.02 -0.07 -0.16 -0.06 -0.14 0 -0.02c-1.25,-2.97 -2.92,-5.69 -4.98,-8.06 -4.69,-5.4 -11.39,-9.1 -19.3,-10.16 -1.44,-0.19 -3.05,-0.3 -4.84,-0.3l-341.79 0c-10.54,0 -20.79,4.38 -28.79,11.44 -8.03,7.08 -13.74,16.77 -15.16,27.34l-78.81 585.35c-0.21,1.56 -0.31,3.24 -0.31,5 0,8.11 2.75,15.34 7.45,20.77l0.45 0.5 0.06 0.06 0.13 0.15 0.03 0.03 0.11 0.12 0.13 0.13 0.01 0.02 0.14 0.15 0.08 0.07 0.21 0.22 0.02 0.02 0.12 0.12 0.12 0.12 0.03 0.02 0.14 0.14 0.07 0.07 0.08 0.07 0.15 0.14 0.02 0.02 0.13 0.12 0.11 0.11 0.04 0.03 0.15 0.14 0.06 0.06 0.09 0.07 0.15 0.14 0.02 0.01 0.14 0.12 0.11 0.1 0.04 0.03 0.16 0.13 0.06 0.06 0.1 0.07 0.15 0.13 0.01 0.01zm642.71 -16.67c-2.9,-0.92 -6.01,-1.42 -9.24,-1.42 -8.36,0 -15.94,3.39 -21.42,8.87 -5.48,5.48 -8.87,13.06 -8.87,21.42 0,8.37 3.39,15.95 8.87,21.43 5.46,5.49 13.04,8.87 21.42,8.87l1.1 -0.02 -0.15 -0.02 -0.45 -0.06 -0.45 -0.06 -0.44 -0.06 -0.45 -0.06 -0.45 -0.06 -0.45 -0.06 -0.45 -0.07 -0.44 -0.06 -0.45 -0.06 -0.45 -0.06 -0.45 -0.06c-8.16,-1.1 -15.12,-5.41 -19.75,-11.48 -4.63,-6.07 -6.95,-13.92 -5.86,-22.09 1.1,-8.17 5.42,-15.12 11.48,-19.75 6.07,-4.63 13.92,-6.95 22.09,-5.86l0.48 0.07 0.48 0.06 0.48 0.07 0.47 0.06 0.48 0.07 0.48 0.06 0.48 0.07 0.48 0.06 0.48 0.07 0.48 0.06 0.47 0.07zm-290.51 1688.31l0 121.42c0,4.5 1.85,8.6 4.82,11.57 2.97,2.97 7.07,4.81 11.57,4.81l32.38 0c4.5,0 8.6,-1.84 11.57,-4.81 2.97,-2.97 4.82,-7.07 4.82,-11.57l0 -54.2 0 -372.87 -65.16 0 0 305.65zm65.16 -858.66l0 -565.58 -48.77 0 -0.27 0 -0.18 -0.01 -0.1 0 -0.27 0 -0.09 0 -0.19 -0.01 -0.26 -0.01 -0.01 0 -0.28 -0.01 -0.17 -0.01 -0.1 0 -0.27 -0.02 -0.08 -0.01 -0.19 -0.01 -0.26 -0.02 -0.02 0 -0.27 -0.02 -0.16 -0.01 -0.11 -0.02 -0.27 -0.02 -0.07 -0.01 -0.2 -0.02 -0.24 -0.03 -0.03 0 -0.27 -0.03 -0.15 -0.02 -0.12 -0.01 -0.26 -0.04 -0.06 -0.01 -0.21 -0.03 -0.23 -0.04 -0.03 0 -0.27 -0.04 -0.14 -0.03 -0.13 -0.02 -0.26 -0.04 -0.05 -0.01 -0.21 -0.04 -0.04 -0.01 -0.23 -0.04 -0.26 -0.05 -0.13 -0.03 -0.13 -0.03 -0.26 -0.05 -0.04 -0.01 -0.22 -0.05 -0.21 -0.05 -0.05 -0.01 -0.26 -0.06 -0.12 -0.03 -0.14 -0.03 -0.25 -0.07 -0.2 -0.05 -0.06 -0.02 -0.2 -0.05 -0.05 -0.02 -0.26 -0.07 -0.11 -0.03 -0.14 -0.04 -0.26 -0.07 -0.02 -0.01 -0.23 -0.07 -0.19 -0.06 -0.06 -0.02 -0.25 -0.08 -0.1 -0.03 -0.15 -0.05 -0.25 -0.08 -0.02 -0.01 -0.23 -0.08 -0.18 -0.06 -0.07 -0.02 -0.25 -0.09 -0.09 -0.04 -0.15 -0.06 -0.25 -0.09 0 0 -0.24 -0.09 -0.17 -0.07 -0.08 -0.03 -0.24 -0.1 -0.08 -0.03 -0.16 -0.07 -0.24 -0.09 0 -0.01 -0.24 -0.1 -0.16 -0.07 -0.08 -0.04 -0.24 -0.1 -0.07 -0.03 -0.17 -0.08 -0.22 -0.1 -0.01 -0.01 -0.24 -0.11 -0.14 -0.07 -0.09 -0.04 -0.24 -0.12 -0.06 -0.03 -0.17 -0.08 -0.21 -0.11 -0.02 -0.01 -0.23 -0.12 0 630.78 0.13 -0.2 0.12 -0.21 0.07 -0.1 0.06 -0.1 0.13 -0.2 0.12 -0.2 0.04 -0.06 0.09 -0.14 0.13 -0.2 0.13 -0.2 0.01 -0.03 0.12 -0.18 0.13 -0.2 0.11 -0.18 0.02 -0.02 0.13 -0.2 0.13 -0.2 0.09 -0.14 0.04 -0.06 0.13 -0.2 0.13 -0.2 0.06 -0.1 0.07 -0.11 0.13 -0.2 0.14 -0.2 0.03 -0.05 0.1 -0.15 0.13 -0.2 0.13 -0.2 0.01 -0.01 0.13 -0.19 0.13 -0.2 0.12 -0.17 0.02 -0.03 0.13 -0.2 0.13 -0.2 0.09 -0.13 0.05 -0.07 0.13 -0.2 0.14 -0.19 0.06 -0.1 0.08 -0.11 0.13 -0.2 0.14 -0.19 0.03 -0.06 0.11 -0.14 0.13 -0.2 0.14 -0.2 0.01 -0.01 0.13 -0.19 0.14 -0.2 0.11 -0.17 0.03 -0.03 0.13 -0.2 0.14 -0.2 0.09 -0.12 0.05 -0.07 0.14 -0.2 0.14 -0.2 0.07 -0.09 0.07 -0.11 0.14 -0.2 0.15 -0.2 0.03 -0.04 0.11 -0.15 0.14 -0.2 0.14 -0.2 0 0 0.14 -0.19 0.15 -0.2 0.11 -0.16 0.03 -0.04 0.14 -0.2 0.15 -0.19 0.09 -0.13 0.05 -0.07 0.14 -0.2 0.15 -0.19 0.06 -0.09 0.08 -0.11 0.15 -0.2 0.15 -0.2 0.03 -0.04 0.11 -0.15 0.15 -0.2 0.15 -0.19c8.82,-11.77 19.44,-22.91 32.28,-32.79l0.21 -0.16 0.21 -0.16 0.43 -0.33 0.21 -0.16 0.22 -0.17 0.05 -0.04 0.16 -0.12 0.21 -0.16 0.22 -0.16 0.09 -0.07 0.12 -0.09 0.22 -0.16 0.22 -0.16 0.12 -0.09 0.09 -0.07 0.22 -0.16 0.21 -0.16 0.16 -0.11 0.06 -0.05 0.22 -0.15 0.22 -0.16 0.19 -0.14 0.02 -0.02 0.66 -0.47 0.01 -0.01 0.21 -0.15 0.22 -0.16 0.22 -0.15 0.04 -0.03 0.18 -0.13 0.21 -0.15c2.72,-1.92 5.48,-3.77 8.32,-5.52 3.25,-2.03 6.58,-3.97 9.99,-5.81zm524.57 1079.17l68.57 0 52.89 0 0 -88.84c0,-6.99 -2.85,-13.34 -7.43,-17.92l-0.03 -0.03c-4.58,-4.59 -10.93,-7.43 -17.92,-7.43l-601.52 0 0 15.13c0,9.78 -3.99,18.66 -10.43,25.09 -6.43,6.43 -15.32,10.42 -25.09,10.42l-32.38 0c-9.78,0 -18.66,-3.99 -25.1,-10.42 -6.43,-6.43 -10.42,-15.31 -10.42,-25.09l0 -113.75 -165.03 -170.25c-3.75,-3.87 -10.43,-7.29 -18.15,-9.67 -8.07,-2.49 -17.02,-3.72 -24.89,-3.09l-47.43 3.83c-3.91,0.31 -6.98,1.03 -9.13,2.05 -0.62,0.29 -1.11,0.57 -1.45,0.82l0.79 1.68 0 110.32 72.2 73.74 87.32 89.19 -148.43 0 -49.67 0 -348.75 0c-7,0 -13.34,2.84 -17.92,7.43l-0.04 0.03c-4.58,4.58 -7.42,10.93 -7.42,17.92l0 88.84 52.89 0 68.56 0 259.91 0 45.96 0 156.32 0 45.97 0 54.44 0 301 307.44 13.3 0 68.57 0 7.7 0 0 -109.81 0.12 -0.72 -0.04 0.02c-0.28,-0.62 -0.84,-1.39 -1.7,-2.27l-188.69 -194.66 402.55 0zm-784.09 -157.9l-24.29 -24.81 0 0 -2.31 0.56 -0.02 0 -0.63 0.16 -0.64 0.17 -0.27 0.07 -0.38 0.1 -1.28 0.35 -0.64 0.18 -0.01 0c-1.48,0.43 -2.96,0.89 -4.42,1.37l-0.12 0.04 -0.51 0.17c-1.05,0.35 -2.08,0.71 -3.12,1.09l-0.1 0.04 -0.51 0.19c-6.8,2.54 -13.3,5.67 -19.44,9.33 -12.22,7.29 -23.04,16.69 -31.96,27.69l-0.92 1.14c-1.72,2.18 -3.37,4.42 -4.94,6.71l36.56 0c7.9,-7.32 17.07,-13.28 27.14,-17.48 10.17,-4.25 21.23,-6.73 32.81,-7.07zm571.97 354.81l0.03 -0.21c0.03,-0.19 -0.04,0.16 -0.07,0.23l0.04 -0.02zm-1020.98 -144.76c-1.91,0.02 -3.65,0.82 -4.91,2.08 -1.29,1.29 -2.09,3.06 -2.09,5.01l0 52.79c21.98,-19.08 50.01,-31.39 80.83,-33.66l0 -19.13c0,-1.95 -0.81,-3.72 -2.09,-5.01 -1.27,-1.26 -3.01,-2.06 -4.91,-2.08l-0.1 0 -8.6 0 -58.04 0 -0.09 0zm18.25 -19.13l30.32 0 0 -13.89 -30.32 0 0 13.89zm65.95 91.89c25.48,0 48.55,10.33 65.24,27.03 16.7,16.7 27.03,39.77 27.03,65.25 0,25.47 -10.33,48.54 -27.03,65.24 -16.69,16.7 -39.76,27.03 -65.24,27.03 -25.48,0 -48.55,-10.33 -65.25,-27.03 -16.69,-16.7 -27.02,-39.77 -27.02,-65.24 0,-25.48 10.33,-48.55 27.02,-65.25 16.7,-16.7 39.77,-27.03 65.25,-27.03zm51.72 40.55c-13.23,-13.23 -31.52,-21.42 -51.72,-21.42 -20.2,0 -38.49,8.19 -51.72,21.42 -13.24,13.24 -21.43,31.53 -21.43,51.73 0,20.19 8.19,38.48 21.43,51.72 13.23,13.23 31.52,21.42 51.72,21.42 20.2,0 38.49,-8.19 51.72,-21.42 13.24,-13.24 21.42,-31.53 21.42,-51.72 0,-20.2 -8.19,-38.49 -21.42,-51.73zm33.18 -33.18c-21.72,-21.73 -51.74,-35.16 -84.9,-35.16 -33.15,0 -63.17,13.43 -84.9,35.16 -21.73,21.73 -35.17,51.75 -35.17,84.91 0,33.15 13.44,63.17 35.17,84.9 21.72,21.72 51.75,35.16 84.9,35.16 33.16,0 63.18,-13.44 84.9,-35.16 21.73,-21.73 35.17,-51.75 35.17,-84.9 0,-33.16 -13.44,-63.18 -35.17,-84.91zm208.63 -362.98l-10.12 0c-1.94,0 -3.71,0.8 -5,2.08 -1.28,1.29 -2.08,3.07 -2.08,5.01l0 52.84c5.82,-5.06 12.06,-9.64 18.67,-13.68l0.33 -0.2 0.02 -0.01 0.31 -0.19 0.54 -0.32 0.13 -0.08 0.42 -0.25 0.3 -0.17 0.13 -0.08 0.42 -0.25 0.3 -0.17 0.13 -0.08 0.43 -0.24 0.3 -0.18 0.13 -0.07 0.43 -0.24 0.31 -0.17 0.12 -0.07 0.43 -0.24 0.31 -0.17 0.12 -0.07 1.3 -0.71 0.33 -0.17 0.11 -0.06 0.44 -0.23 0.32 -0.17 0.12 -0.06 0.43 -0.23 0.34 -0.17 0.1 -0.06 0.44 -0.22 0.34 -0.17 0.1 -0.05 0.45 -0.23 0.34 -0.17 0.1 -0.05 0.45 -0.22 0.34 -0.17 0.1 -0.04 0.45 -0.22 0.35 -0.17 0.1 -0.04 0.44 -0.22 0.36 -0.17 0.09 -0.04 0.45 -0.21 0.36 -0.17 0.09 -0.04 0.46 -0.2 0.36 -0.17 0.09 -0.04 0.45 -0.2 0.37 -0.17 0.08 -0.03 0.46 -0.2 0.37 -0.17 0.08 -0.03 0.46 -0.2 0.38 -0.16 0.08 -0.03 0.46 -0.2 0.38 -0.16 0.08 -0.03 0.46 -0.19 0.39 -0.16 0.07 -0.03 0.46 -0.19 0.39 -0.16 0.07 -0.03 0.46 -0.18c1.55,-0.61 3.11,-1.19 4.68,-1.75l0.42 -0.16 0.05 -0.01c1.26,-0.44 2.53,-0.87 3.81,-1.28l-31.74 -32.41zm84.39 92.6c-3.32,-0.46 -6.79,-0.71 -10.4,-0.71 -9.88,0 -19.27,1.94 -27.83,5.46l49.15 0 -3.15 -3.22c-2.49,-0.63 -5.09,-1.15 -7.77,-1.53zm25.95 157.23c-5.37,2.31 -10.96,4.12 -16.69,5.37 -6.36,1.38 -12.94,2.11 -19.66,2.11 -6.71,0 -13.29,-0.73 -19.65,-2.11 -5.73,-1.25 -11.32,-3.06 -16.69,-5.37l-48.69 0c8.79,8.81 18.94,16.27 30.12,22.03 16.42,8.46 35.1,13.24 54.92,13.24 19.82,0 38.49,-4.78 54.91,-13.24 11.18,-5.76 21.33,-13.22 30.12,-22.03l-48.69 0zm457.39 340.46c-1.91,0.02 -3.65,0.82 -4.91,2.08 -1.3,1.27 -2.09,3.05 -2.09,5.01l0 52.79c21.98,-19.08 50.01,-31.39 80.83,-33.66l0 -19.13c0,-1.96 -0.8,-3.74 -2.08,-5.02 -1.28,-1.25 -3.02,-2.05 -4.92,-2.07l-0.09 0 -8.61 0 -58.04 0 -0.09 0zm18.25 -19.13l30.32 0 0 -13.89 -30.32 0 0 13.89zm65.95 91.89c25.48,0 48.55,10.34 65.25,27.03 16.69,16.7 27.02,39.77 27.02,65.25 0,25.47 -10.33,48.54 -27.02,65.24 -16.7,16.7 -39.77,27.03 -65.25,27.03 -25.48,0 -48.55,-10.33 -65.25,-27.03 -16.69,-16.7 -27.02,-39.77 -27.02,-65.24 0,-25.48 10.33,-48.55 27.02,-65.25 16.7,-16.69 39.77,-27.03 65.25,-27.03zm51.72 40.55c-13.23,-13.23 -31.52,-21.42 -51.72,-21.42 -20.2,0 -38.49,8.19 -51.72,21.42 -13.24,13.24 -21.43,31.53 -21.43,51.73 0,20.19 8.19,38.48 21.43,51.72 13.23,13.23 31.52,21.42 51.72,21.42 20.2,0 38.49,-8.19 51.72,-21.42 13.24,-13.24 21.43,-31.53 21.43,-51.72 0,-20.2 -8.19,-38.49 -21.43,-51.73zm33.18 -33.18c-21.72,-21.73 -51.74,-35.16 -84.9,-35.16 -33.15,0 -63.18,13.43 -84.9,35.16 -21.73,21.73 -35.17,51.75 -35.17,84.91 0,33.15 13.44,63.17 35.17,84.9 21.72,21.72 51.75,35.17 84.9,35.17 33.16,0 63.18,-13.45 84.9,-35.17 21.73,-21.73 35.17,-51.75 35.17,-84.9 0,-33.16 -13.44,-63.18 -35.17,-84.91zm112.41 -327.69c21.98,-19.08 50.02,-31.39 80.83,-33.66l0 -19.13c0,-1.95 -0.8,-3.72 -2.09,-5.01 -1.26,-1.26 -3,-2.06 -4.91,-2.08l-0.09 0 -8.6 0 -58.04 0 -0.1 0c-1.92,0.02 -3.66,0.81 -4.92,2.07 -1.27,1.3 -2.08,3.07 -2.08,5.02l0 52.79zm25.26 -79.01l30.31 0 0 -13.89 -30.31 0 0 13.89zm65.95 91.89c25.47,0 48.54,10.33 65.24,27.03 16.7,16.7 27.03,39.77 27.03,65.25 0,25.47 -10.33,48.54 -27.03,65.24 -16.69,16.7 -39.77,27.03 -65.24,27.03 -25.48,0 -48.55,-10.33 -65.25,-27.03 -16.7,-16.7 -27.03,-39.77 -27.03,-65.24 0,-25.48 10.33,-48.55 27.03,-65.25 16.7,-16.7 39.77,-27.03 65.25,-27.03zm51.72 40.55c-13.24,-13.23 -31.53,-21.42 -51.72,-21.42 -20.2,0 -38.49,8.19 -51.73,21.42 -13.23,13.24 -21.42,31.53 -21.42,51.73 0,20.19 8.19,38.48 21.42,51.72 13.24,13.23 31.53,21.42 51.73,21.42 20.19,0 38.49,-8.19 51.72,-21.42 13.23,-13.24 21.42,-31.53 21.42,-51.72 0,-20.2 -8.19,-38.49 -21.42,-51.73zm33.18 -33.18c-21.73,-21.73 -51.74,-35.16 -84.9,-35.16 -33.16,0 -63.18,13.44 -84.91,35.16 -21.72,21.73 -35.16,51.75 -35.16,84.91 0,33.15 13.44,63.17 35.16,84.9 21.73,21.72 51.75,35.16 84.91,35.16 33.16,0 63.18,-13.44 84.9,-35.16 21.73,-21.73 35.17,-51.75 35.17,-84.9 0,-33.16 -13.44,-63.18 -35.17,-84.91z"/>
 </g>
</svg>
