<?xml version="1.0" encoding="UTF-8"?>
<!DOCTYPE svg PUBLIC "-//W3C//DTD SVG 1.1//EN" "http://www.w3.org/Graphics/SVG/1.1/DTD/svg11.dtd">
<!-- Creator: CorelDRAW -->
<svg xmlns="http://www.w3.org/2000/svg" xml:space="preserve" width="3.771mm" height="6.359mm" version="1.1" style="shape-rendering:geometricPrecision; text-rendering:geometricPrecision; image-rendering:optimizeQuality; fill-rule:evenodd; clip-rule:evenodd"
viewBox="0 0 377.1 635.9"
 xmlns:xlink="http://www.w3.org/1999/xlink"
 xmlns:xodm="http://www.corel.com/coreldraw/odm/2003">
 <defs>
  <style type="text/css">
   <![CDATA[
    .fil0 {fill:white}
   ]]>
  </style>
 </defs>
 <g id="Слой_x0020_1">
  <metadata id="CorelCorpID_0Corel-Layer"/>
  <path class="fil0" d="M182.31 639.68c-0.09,0.16 -151.21,-188.51 -182.76,-372.29l-0.02 -0.16c-0.54,-3.14 -1.05,-6.28 -1.52,-9.43l-0.13 -0.97c-0.41,-2.8 -0.8,-5.6 -1.15,-8.39l-0.27 -2.31c-0.3,-2.47 -0.58,-4.94 -0.82,-7.4l-0.24 -2.54c-0.22,-2.29 -0.43,-4.57 -0.6,-6.86l-0.24 -3.54c-0.13,-2.03 -0.26,-4.05 -0.35,-6.06l-0.16 -3.99 -0.16 -5.4 -0.06 -4.75 0 -4.59c0.01,-1.8 0.05,-3.59 0.1,-5.39l0.04 -2.6c-0.65,-48.46 17.78,-92.97 48.18,-126.63l0.99 -1.1 1.48 -1.6c29.24,-31.37 69.04,-52.76 113.76,-58.46l0.44 -0.06 0.2 -0.02c1.48,-0.19 2.96,-0.35 4.46,-0.5l0.16 -0.02 4.53 -0.39 0.13 -0.01 4.59 -0.29 0.1 0c1.54,-0.07 3.09,-0.13 4.65,-0.17l0.06 0 9.33 0 0.07 0c1.55,0.04 3.1,0.1 4.65,0.17l0.1 0c1.53,0.08 3.06,0.17 4.59,0.29l0.13 0.01c1.52,0.11 3.02,0.25 4.53,0.39l0.16 0.02c1.49,0.15 2.98,0.31 4.45,0.5l0.21 0.02 0.44 0.06c44.71,5.7 84.52,27.09 113.75,58.46l1.48 1.6 1 1.1c30.39,33.66 48.83,78.17 48.17,126.63l0.05 2.6c0.03,1.8 0.09,3.59 0.1,5.39l-0.01 4.59 -0.06 4.75 -0.16 5.4 -0.15 3.99c-0.1,2.02 -0.23,4.03 -0.36,6.06l-0.24 3.54c-0.17,2.29 -0.38,4.57 -0.59,6.86l-0.24 2.54c-0.25,2.46 -0.53,4.93 -0.82,7.4l-0.28 2.31c-0.35,2.8 -0.73,5.59 -1.14,8.39l-0.14 0.97c-0.47,3.15 -0.98,6.29 -1.51,9.43l-0.03 0.16c-31.56,183.77 -182.68,372.43 -182.75,372.29l-0.06 -0.06 -0.06 0.06zm-5.32 -339.73c-55.78,-2.83 -100.15,-48.96 -100.15,-105.45 0,-56.48 44.36,-102.61 100.15,-105.45l2.6 -0.1 0.11 0 2.61 -0.03 0.12 0 2.6 0.03 0.12 0 2.59 0.1c55.79,2.83 100.15,48.97 100.15,105.45 0,56.49 -44.36,102.62 -100.15,105.45l-2.59 0.1 -0.12 0 -2.6 0.03 -0.12 0 -2.61 -0.03 -0.11 0 -2.6 -0.1z"/>
 </g>
</svg>
