<?xml version="1.0" encoding="UTF-8"?>
<!DOCTYPE svg PUBLIC "-//W3C//DTD SVG 1.1//EN" "http://www.w3.org/Graphics/SVG/1.1/DTD/svg11.dtd">
<!-- Creator: CorelDRAW -->
<svg xmlns="http://www.w3.org/2000/svg" xml:space="preserve" width="18.708mm" height="29.945mm" version="1.1" style="shape-rendering:geometricPrecision; text-rendering:geometricPrecision; image-rendering:optimizeQuality; fill-rule:evenodd; clip-rule:evenodd"
viewBox="0 0 1870.8 2994.5"
 xmlns:xlink="http://www.w3.org/1999/xlink"
 xmlns:xodm="http://www.corel.com/coreldraw/odm/2003">
 <defs>
  <style type="text/css">
   <![CDATA[
    .fil0 {fill:white;fill-rule:nonzero}
   ]]>
  </style>
 </defs>
 <g id="Слой_x0020_1">
  <metadata id="CorelCorpID_0Corel-Layer"/>
  <path class="fil0" d="M323.89 2717.07c18.82,0 36.83,3.76 53.28,10.57 17.05,7.05 32.42,17.42 45.26,30.24 12.84,12.86 23.21,28.22 30.27,45.29 6.8,16.45 10.57,34.46 10.57,53.28 0,18.86 -3.76,36.87 -10.57,53.3l-0.16 0.36c-7.07,16.94 -17.38,32.17 -30.1,44.88l-0.26 0.25c-12.77,12.72 -28.05,22.99 -44.98,30.01 -16.43,6.83 -34.46,10.59 -53.31,10.59 -18.83,0 -36.85,-3.76 -53.3,-10.57 -17.05,-7.05 -32.4,-17.42 -45.24,-30.28 -12.55,-12.53 -22.73,-27.47 -29.74,-43.96 -6.6,-15.44 -10.46,-32.35 -11.01,-50.07l-1.58 -2.88 -1.95 -4.65c-0.61,-1.85 -1.08,-3.79 -1.41,-5.86 -0.31,-1.92 -0.48,-3.91 -0.48,-5.93l0 -115.24c0,-5.02 1.02,-9.9 2.87,-14.31l0.1 -0.24c1.84,-4.35 4.55,-8.36 7.87,-11.71l0.2 -0.2c2.82,-2.85 6.17,-5.28 9.82,-7.08l0.22 -0.1c1.94,-0.97 3.98,-1.77 6.08,-2.38l0 -21.74 -45.33 0c-2.82,0 -5.45,-1.15 -7.33,-3.03l-0.4 -0.44c-1.6,-1.82 -2.64,-4.25 -2.64,-6.89l0 -101.64c0,-3.59 0.74,-7.1 2.07,-10.28 1.36,-3.29 3.4,-6.29 5.86,-8.75 2.47,-2.48 5.45,-4.48 8.74,-5.84 3.18,-1.34 6.7,-2.07 10.3,-2.07l28.73 0 0 -20.28 -10.09 0c-6.14,0 -12.03,-1.24 -17.42,-3.48 -5.56,-2.32 -10.6,-5.72 -14.8,-9.91 -4.18,-4.18 -7.59,-9.23 -9.91,-14.8l-0.14 -0.38c-2.11,-5.26 -3.34,-11.04 -3.34,-17.01l0 -694.74c0,-6.14 1.24,-12.03 3.48,-17.4 1.1,-2.63 2.43,-5.14 3.96,-7.49l-109.56 0c-2.84,0 -5.44,-1.16 -7.32,-3.03l-0.4 -0.44c-1.6,-1.82 -2.63,-4.25 -2.63,-6.88l0 -534.91 -32.2 0c-2.82,0 -5.41,-1.19 -7.27,-3 -1.93,-1.91 -3.09,-4.54 -3.09,-7.36l0 -107.88c0,-2.8 1.16,-5.43 3.04,-7.29 1.88,-1.88 4.48,-3.04 7.32,-3.04l432.28 0 0 -307.62c0,-5.4 1.09,-10.63 3.08,-15.39l0.17 -0.36c2.04,-4.81 5.01,-9.17 8.59,-12.74l0.28 -0.26c3.63,-3.57 8.02,-6.47 12.82,-8.48 4.77,-2 10,-3.1 15.4,-3.1l283.67 0c5.32,0 10.49,1.08 15.21,3.03 4.8,1.97 9.22,4.88 12.85,8.44l0.41 0.39c3.71,3.68 6.74,8.16 8.79,13.08 1.97,4.74 3.08,9.99 3.08,15.39l0 307.62 541 0 0 -290.85 -915.55 -121.9c-2.49,-0.33 -4.78,-1.57 -6.37,-3.37 -1.65,-1.83 -2.63,-4.28 -2.63,-6.86l-0.07 -46.18 -235.31 0c-3.86,0 -7.61,-0.79 -11.01,-2.21l-0.34 -0.16c-3.4,-1.44 -6.45,-3.55 -8.97,-6.08 -2.06,-2.05 -3.84,-4.47 -5.2,-7.11l-0.18 -0.36c-0.95,-1.88 -1.69,-3.86 -2.2,-5.9 -0.77,-1.27 -1.07,-2.8 -0.74,-4.35 2.11,-21.15 -0.13,-54.08 -0.13,-76.59l-40.03 0c-5.57,0 -10.97,-1.12 -15.88,-3.16 -5.09,-2.12 -9.67,-5.22 -13.5,-9.04 -7.51,-7.51 -12.16,-17.91 -12.16,-29.38l0 -395.19c0,-5.58 1.12,-10.95 3.16,-15.87 2.1,-5.09 5.21,-9.69 9,-13.5 3.81,-3.82 8.4,-6.9 13.5,-9.02 4.91,-2.05 10.31,-3.18 15.88,-3.18l38.66 0c0.17,-2.11 0.69,-4.15 1.47,-6.06 0.98,-2.49 2.52,-4.76 4.4,-6.65 1.94,-1.93 4.21,-3.46 6.67,-4.48l0.42 -0.16c2.32,-0.91 4.83,-1.41 7.38,-1.41l564.22 0c2.71,0 5.38,0.57 7.8,1.57 2.48,1.02 4.75,2.57 6.63,4.43 1.85,1.85 3.37,4.09 4.41,6.59 0.83,1.91 1.37,4.01 1.54,6.17l38.64 0c5.59,0 10.96,1.13 15.86,3.17 5.06,2.1 9.66,5.21 13.48,9.02 3.83,3.8 6.91,8.39 9.03,13.5 2.05,4.9 3.17,10.3 3.17,15.88l0 395.22c0,5.59 -1.12,10.97 -3.16,15.87 -2.11,5.07 -5.23,9.69 -9.02,13.48 -3.77,3.78 -8.39,6.89 -13.52,9.01 -4.91,2.03 -10.28,3.16 -15.84,3.16l-32.8 0 0.27 2.43 0 8.68c0,1.56 -0.33,3.1 -0.94,4.55l-0.1 0.21c-0.59,1.37 -1.44,2.61 -2.44,3.61 -1.02,1.02 -2.32,1.91 -3.77,2.53l-0.27 0.12 -0.13 54.45c0.35,1.57 0.04,3.12 -0.73,4.39 -0.53,2.18 -1.35,4.29 -2.38,6.28 -1.25,2.44 -2.87,4.68 -4.76,6.64l594.54 79.17 0 -70.27 -210.17 0c-3.85,0 -7.58,-0.79 -10.98,-2.2 -3.49,-1.44 -6.7,-3.6 -9.35,-6.25 -2.04,-2.03 -3.79,-4.41 -5.17,-7.04 -1.05,-2.02 -1.86,-4.14 -2.41,-6.35 -0.77,-1.25 -1.06,-2.78 -0.74,-4.33 -1.39,-24.34 -0.12,-51.87 -0.12,-76.59l-40.05 0c-5.57,0 -10.96,-1.12 -15.88,-3.18 -5.02,-2.08 -9.63,-5.18 -13.45,-9.02 -3.85,-3.83 -6.95,-8.42 -9.05,-13.48 -2.04,-4.9 -3.17,-10.29 -3.17,-15.9l0 -395.19c0,-5.58 1.13,-10.98 3.17,-15.88 2.11,-5.09 5.23,-9.7 9.03,-13.5 7.51,-7.5 17.92,-12.19 29.35,-12.19l38.67 0c0.17,-2.11 0.69,-4.19 1.49,-6.1 1.03,-2.51 2.57,-4.8 4.43,-6.66 1.85,-1.85 4.12,-3.4 6.61,-4.43l0.42 -0.16c2.32,-0.91 4.86,-1.41 7.41,-1.41l564.21 0c2.71,0 5.36,0.57 7.78,1.57 2.52,1.03 4.78,2.55 6.66,4.43l0.3 0.33c1.72,1.78 3.14,3.96 4.13,6.31 0.82,1.93 1.33,3.99 1.5,6.12l38.66 0c5.59,0 10.96,1.13 15.86,3.17 5.08,2.11 9.7,5.23 13.49,9.02 3.82,3.82 6.92,8.41 9.03,13.5 2.04,4.9 3.17,10.3 3.17,15.88l0 395.22c0,5.59 -1.13,10.98 -3.18,15.88 -2.09,5.03 -5.2,9.65 -9.04,13.47 -3.81,3.79 -8.39,6.89 -13.47,8.99 -4.9,2.05 -10.27,3.18 -15.86,3.18l-32.8 0 0.27 2.43 0 8.68c0,1.56 -0.33,3.1 -0.94,4.55l-0.1 0.21c-0.59,1.37 -1.44,2.61 -2.44,3.61l-0.44 0.41c-0.98,0.86 -2.11,1.6 -3.32,2.12l-0.28 0.11 -0.12 54.46c0.34,1.57 0.03,3.12 -0.74,4.39 -0.55,2.21 -1.38,4.32 -2.38,6.28l-0.16 0.28c-1.36,2.54 -3.07,4.84 -5.04,6.81 -2.62,2.62 -5.81,4.78 -9.33,6.22 -3.4,1.44 -7.15,2.23 -11,2.23l-210.17 0 0 469.16 382.74 0c2.85,0 5.45,1.16 7.33,3.04l0.31 0.34c1.7,1.83 2.73,4.32 2.73,6.95l0 107.88c0,2.85 -1.16,5.45 -3.04,7.33 -1.88,1.88 -4.48,3.03 -7.33,3.03l-276.04 0 0 1330.75 138.97 0c3.64,0 7.12,0.75 10.29,2.07 3.29,1.36 6.27,3.36 8.74,5.84l0.49 0.53c2.35,2.51 4.18,5.36 5.45,8.44l0.11 0.28c1.2,3.06 1.89,6.38 1.89,9.78l0 101.64c0,2.82 -1.19,5.45 -3.05,7.31 -1.86,1.86 -4.46,3.05 -7.31,3.05l-49.81 0 0 21.74c2.2,0.64 4.31,1.49 6.35,2.51 3.5,1.75 6.7,4.04 9.44,6.7l0.55 0.53c3.19,3.25 5.84,7.16 7.72,11.47 0.97,2.21 1.72,4.54 2.25,6.95l6.96 -0.81c4.52,-0.43 9,-0.66 13.37,-0.66 18.83,0 36.84,3.76 53.28,10.57 17.07,7.06 32.45,17.43 45.26,30.24 12.81,12.81 23.2,28.19 30.28,45.29 6.79,16.45 10.57,34.46 10.57,53.28 0,18.83 -3.78,36.84 -10.57,53.28 -7.05,17.06 -17.42,32.41 -30.28,45.25 -12.86,12.87 -28.22,23.24 -45.23,30.29 -16.43,6.81 -34.45,10.57 -53.31,10.57 -18.84,0 -36.85,-3.76 -53.29,-10.57 -17.1,-7.08 -32.47,-17.47 -45.28,-30.28 -12.5,-12.49 -22.68,-27.42 -29.72,-43.96 -6.58,-15.44 -10.47,-32.35 -11.01,-50.08 -1.59,-2.87 -2.26,-4.5 -3.53,-7.6 -0.58,-1.77 -1.06,-3.69 -1.39,-5.76 -0.31,-1.93 -0.49,-3.92 -0.49,-5.95l0 -115.24c0,-5.02 1.02,-9.9 2.87,-14.31l0.11 -0.24c1.83,-4.35 4.54,-8.36 7.86,-11.71l0.2 -0.2c2.82,-2.85 6.16,-5.3 9.76,-7.08l0.55 -0.24c1.86,-0.91 3.8,-1.66 5.79,-2.24l0 -21.74 -1332.18 0 0 21.74c2.18,0.64 4.31,1.49 6.33,2.51 3.44,1.66 6.62,3.96 9.36,6.61l0.66 0.62c3.19,3.25 5.86,7.18 7.72,11.48 0.96,2.21 1.71,4.54 2.24,6.96l6.86 -0.83c4.56,-0.43 9.07,-0.66 13.47,-0.66zm180.84 -2111.61c-2.48,-0.38 -4.64,-1.64 -6.16,-3.35l-0.73 -0.89 -58.23 0 0.08 37.11 903.91 120.37 0 -41.54 -838.87 -111.7zm124.74 -4.24l714.13 95.09 0 -3.98 -660.27 -87.92c-2.09,-0.23 -4.03,-1.17 -5.52,-2.47l-0.76 -0.72 -47.58 0zm-207.73 -17.65l1.24 -1.13c1.75,-1.35 3.91,-2.16 6.29,-2.16 2.37,0 4.56,0.83 6.28,2.14l1.22 1.15 291.52 0c1.52,0 2.96,-0.3 4.21,-0.8 1.35,-0.57 2.62,-1.41 3.64,-2.42 0.8,-0.81 1.5,-1.78 2.02,-2.75l0.81 -1.99 -9.04 -39.15 -3.96 2.75c-5.38,3.75 -11.07,7.08 -16.94,9.95l-0.25 0.12c-5.81,2.84 -11.84,5.23 -18,7.16 -6.29,1.97 -12.68,3.45 -19.09,4.42 -6.44,0.97 -13.04,1.47 -19.67,1.47l-392.08 0c-6.64,0 -13.23,-0.5 -19.67,-1.47 -6.4,-0.97 -12.81,-2.45 -19.09,-4.42 -6.17,-1.94 -12.31,-4.38 -18.26,-7.3 -5.87,-2.88 -11.56,-6.22 -16.91,-9.93l-3.98 -2.75 -9.02 39.1 0.84 2.07c0.54,1.02 1.23,1.96 1.98,2.72 1.02,1.01 2.28,1.85 3.63,2.42 1.32,0.51 2.73,0.8 4.21,0.8l238.07 0zm942.57 486.81l82.87 0 0 -469.16 -82.87 0 0 469.16zm-1.32 -490.1l85.51 0c2.35,0 4.64,0.45 6.77,1.23 1.42,0.52 2.78,1.21 4.02,2.06l218.77 0c1.52,0 2.96,-0.3 4.2,-0.8 1.36,-0.57 2.63,-1.43 3.65,-2.43 0.78,-0.8 1.49,-1.75 1.99,-2.71l0.83 -2.02 -9.02 -39.15 -4.23 2.93c-5.33,3.69 -10.93,6.98 -16.68,9.77l-0.38 0.17c-5.81,2.82 -11.81,5.22 -17.88,7.11 -6.28,1.97 -12.69,3.45 -19.09,4.42 -6.44,0.97 -13.03,1.47 -19.66,1.47l-392.09 0c-6.64,0 -13.22,-0.5 -19.66,-1.47 -6.4,-0.97 -12.81,-2.45 -19.09,-4.42 -6.21,-1.96 -12.35,-4.42 -18.27,-7.3 -5.88,-2.88 -11.56,-6.22 -16.92,-9.93l-3.99 -2.75 -9.01 39.07c1.08,2.65 1.01,2.41 2.82,4.81 1.02,1 2.27,1.86 3.64,2.43 1.31,0.51 2.72,0.8 4.21,0.8l218.77 0c1.25,-0.83 2.61,-1.52 4.02,-2.06 2.13,-0.78 4.44,-1.23 6.77,-1.23zm-640.79 -59.83l0 -22.03 -532.42 0.03 0 22 6.22 4.23c4.71,3.27 9.65,6.19 14.74,8.66l0.34 0.19c4.92,2.38 10.1,4.43 15.36,6.07 5.3,1.65 10.87,2.95 16.56,3.79 5.56,0.85 11.24,1.29 16.94,1.29l392.08 0c5.7,0 11.4,-0.44 16.98,-1.29 5.68,-0.84 11.26,-2.14 16.55,-3.79 5.39,-1.67 10.68,-3.79 15.74,-6.26 4.97,-2.44 9.91,-5.36 14.64,-8.64l6.27 -4.25zm0.34 -500.33l0 -1.09 -533.1 0 0 1.09 533.1 0zm53.94 428.45l-642.08 0c-3.29,0 -5.96,-2.68 -5.96,-5.97l0 -362.7c0,-3.29 2.67,-5.96 5.96,-5.96l643.18 0c3.28,0 5.96,2.67 5.96,5.96l0 362.7c0,3.29 -2.68,5.97 -5.96,5.97l-1.1 0zm-630.39 -17.65l619.8 0 0 -339.32 -619.8 0 0 339.32zm439.89 -362.87l-259.98 0c-1.64,0 -3.24,-0.36 -4.74,-0.96 -1.58,-0.62 -3.03,-1.61 -4.17,-2.72 -1.17,-1.15 -2.14,-2.57 -2.77,-4.09 -0.67,-1.54 -1.02,-3.23 -1.02,-4.95 0,-1.64 0.35,-3.34 0.97,-4.87l0.77 -1.57 -199.19 0c-2.07,0 -4.05,0.43 -5.78,1.15l-0.32 0.12c-1.69,0.74 -3.3,1.87 -4.62,3.18 -1.39,1.4 -2.55,3.09 -3.29,4.89 -0.72,1.77 -1.12,3.74 -1.12,5.82l0 390.48c0,2.07 0.4,4.06 1.12,5.8 0.76,1.83 1.9,3.52 3.28,4.88 1.41,1.4 3.11,2.57 4.92,3.31 1.76,0.72 3.74,1.14 5.81,1.14l678.33 0c2.05,0 4.02,-0.41 5.74,-1.13 1.85,-0.76 3.54,-1.92 4.94,-3.32 1.39,-1.39 2.55,-3.08 3.32,-4.93 0.72,-1.72 1.13,-3.7 1.13,-5.75l0 -390.48c0,-2.06 -0.41,-4.04 -1.13,-5.76l-0.13 -0.33c-0.75,-1.72 -1.85,-3.3 -3.16,-4.62 -1.39,-1.39 -3.1,-2.57 -4.9,-3.3 -1.77,-0.72 -3.75,-1.15 -5.81,-1.15l-197.22 0 0.75 1.52c0.61,1.52 0.97,3.18 0.97,4.86 0,1.64 -0.35,3.3 -0.96,4.82 -0.59,1.55 -1.56,2.98 -2.71,4.15 -1.2,1.22 -2.64,2.18 -4.18,2.82l-0.5 0.19c-1.36,0.5 -2.83,0.8 -4.35,0.8zm1085.99 452.39l0 -22.02 -532.45 0.03 0 21.99 6.25 4.26c4.75,3.28 9.69,6.18 14.71,8.64 5.04,2.47 10.33,4.59 15.72,6.26 5.29,1.65 10.87,2.95 16.55,3.79 5.56,0.85 11.26,1.29 16.95,1.29l392.09 0c5.69,0 11.39,-0.44 16.96,-1.29 5.67,-0.84 11.25,-2.14 16.54,-3.79 5.39,-1.67 10.68,-3.79 15.72,-6.26 4.98,-2.44 9.93,-5.34 14.68,-8.64l6.28 -4.26zm0.31 -500.32l0 -1.09 -533.09 0 0 1.09 533.09 0zm53.95 428.45l-642.07 0c-3.29,0 -5.97,-2.68 -5.97,-5.97l0 -362.7c0,-3.29 2.68,-5.96 5.97,-5.96l643.19 0c3.29,0 5.96,2.67 5.96,5.96l0 362.7c0,3.29 -2.67,5.97 -5.96,5.97l-1.12 0zm-630.37 -17.65l619.79 0 0 -339.32 -619.79 0 0 339.32zm439.87 -362.87l-259.96 0c-1.67,0 -3.33,-0.36 -4.77,-0.94 -1.59,-0.66 -3.01,-1.63 -4.15,-2.74 -1.23,-1.21 -2.2,-2.63 -2.84,-4.26l-0.11 -0.3c-0.53,-1.41 -0.84,-2.93 -0.84,-4.48 0,-1.71 0.34,-3.41 1,-4.96l0.73 -1.48 -199.19 0c-2.07,0 -4.04,0.41 -5.76,1.13 -1.85,0.77 -3.54,1.93 -4.94,3.32 -1.39,1.4 -2.55,3.09 -3.32,4.93 -0.72,1.74 -1.12,3.72 -1.12,5.78l0 390.48c0,2.07 0.42,4.04 1.14,5.78l0.12 0.32c0.74,1.69 1.85,3.28 3.17,4.58 1.41,1.4 3.1,2.56 4.95,3.32 1.72,0.72 3.69,1.13 5.76,1.13l678.32 0c2.05,0 4.04,-0.41 5.78,-1.13 1.84,-0.76 3.53,-1.92 4.93,-3.32 1.39,-1.39 2.55,-3.1 3.3,-4.91 0.72,-1.74 1.13,-3.72 1.13,-5.77l0 -390.48c0,-2.06 -0.41,-4.04 -1.13,-5.78l-0.12 -0.31c-0.74,-1.69 -1.87,-3.3 -3.18,-4.62 -1.4,-1.39 -3.09,-2.55 -4.93,-3.32 -1.74,-0.72 -3.73,-1.13 -5.78,-1.13l-197.21 0 0.91 1.9c0.52,1.41 0.83,2.91 0.83,4.48 0,1.67 -0.36,3.3 -0.92,4.76 -0.68,1.63 -1.63,3.02 -2.71,4.16 -1.26,1.27 -2.67,2.23 -4.22,2.87l-0.5 0.19c-1.38,0.5 -2.86,0.8 -4.37,0.8zm-1476.84 1624.11l5.13 0 0 -493.21 -5.13 0 0 493.21zm25.84 0l121.61 0 0 -493.21 -121.61 0 0 493.21zm111.52 31.35l10.09 0 0 -10.65 -147.45 0 0 10.65 137.36 0zm30.79 0l29.51 0 0 -524.56 -29.51 0 0 524.56zm50.21 0l10.15 0c6.12,0 12.03,1.24 17.41,3.48 5.55,2.3 10.59,5.71 14.77,9.93 4.21,4.18 7.61,9.2 9.93,14.78 2.24,5.37 3.48,11.26 3.48,17.4l0 694.74c0,6.1 -1.27,12 -3.48,17.36 -2.32,5.6 -5.73,10.65 -9.91,14.83l-0.27 0.25c-4.15,4.09 -9.1,7.41 -14.52,9.66 -5.38,2.24 -11.29,3.48 -17.41,3.48l-10.15 0 0 20.28 77.94 0 0 -1330.75 -77.94 0 0 524.56zm244.02 -980.37c-1.45,0 -2.84,0.31 -4.09,0.81l-0.19 0.08c-1.21,0.53 -2.33,1.3 -3.26,2.21 -0.94,0.95 -1.75,2.13 -2.28,3.41 -0.49,1.25 -0.8,2.65 -0.8,4.09l0 316.64 219.54 0 0 -316.64c0,-1.44 -0.32,-2.85 -0.82,-4.1l-0.08 -0.21c-0.53,-1.19 -1.31,-2.28 -2.22,-3.19 -0.96,-0.96 -2.15,-1.79 -3.4,-2.3 -1.25,-0.49 -2.66,-0.8 -4.09,-0.8l-198.31 0zm227.76 0c1.2,3.4 1.88,6.95 1.88,10.6l0 316.64 30.97 0 0 -307.62c0,-2.66 -0.53,-5.23 -1.47,-7.49 -0.99,-2.39 -2.49,-4.58 -4.29,-6.39l-0.31 -0.32c-1.77,-1.7 -3.89,-3.07 -6.14,-4 -2.29,-0.89 -4.81,-1.42 -7.41,-1.42l-13.23 0zm-259.09 327.24l0 -316.64c0,-3.7 0.68,-7.28 1.88,-10.6l-13.23 0c-2.66,0 -5.22,0.53 -7.47,1.47 -2.43,1 -4.62,2.49 -6.41,4.27 -1.8,1.81 -3.3,4.01 -4.29,6.41 -0.94,2.26 -1.47,4.81 -1.47,7.47l0 307.62 30.99 0zm-124.41 107.84l1474.76 0 0 -87.15 -1823.97 0 0 87.15 349.21 0zm618.62 146.34c-0.68,-0.63 -1.49,-1.16 -2.32,-1.51 -0.89,-0.36 -1.9,-0.56 -2.96,-0.56 -1.05,0 -2.07,0.22 -2.99,0.6l-2.46 1.64c-0.72,0.72 -1.33,1.6 -1.69,2.49 -0.36,0.89 -0.57,1.91 -0.57,2.98 0,1 0.21,2 0.55,2.86 0.24,0.64 1.19,2.12 1.71,2.59 0.7,0.7 1.56,1.3 2.49,1.67 0.86,0.36 1.88,0.56 2.96,0.56 1.05,0 2.08,-0.21 2.99,-0.57l0.34 -0.13c0.79,-0.36 1.51,-0.89 2.12,-1.5 0.72,-0.74 1.31,-1.6 1.67,-2.48 0.36,-0.94 0.58,-1.96 0.58,-3 0,-1.09 -0.22,-2.1 -0.56,-2.96 -0.36,-0.91 -0.97,-1.79 -1.69,-2.51l-0.17 -0.17zm-5.28 -56.21c8.31,0 16.33,1.69 23.63,4.7 7.58,3.13 14.41,7.73 20.09,13.42 5.67,5.67 10.29,12.51 13.43,20.11 3.02,7.3 4.69,15.3 4.69,23.62 0,8.31 -1.67,16.31 -4.69,23.61 -3.14,7.6 -7.76,14.44 -13.43,20.11 -5.66,5.67 -12.51,10.29 -20.1,13.44 -7.3,3.02 -15.31,4.7 -23.62,4.7 -8.33,0 -16.34,-1.68 -23.63,-4.7 -7.58,-3.15 -14.41,-7.75 -20.1,-13.44 -5.67,-5.67 -10.29,-12.51 -13.42,-20.11 -3.02,-7.3 -4.7,-15.3 -4.7,-23.61 0,-8.32 1.68,-16.32 4.7,-23.62 3.13,-7.6 7.75,-14.44 13.42,-20.11 5.67,-5.67 12.5,-10.27 20.1,-13.42 7.29,-3.02 15.3,-4.7 23.63,-4.7zm5.28 213.13c-0.68,-0.62 -1.49,-1.16 -2.32,-1.5 -0.89,-0.36 -1.9,-0.57 -2.96,-0.57 -1.05,0 -2.07,0.22 -2.99,0.6l-2.46 1.64c-0.72,0.72 -1.32,1.59 -1.69,2.51 -0.36,0.86 -0.57,1.88 -0.57,2.94 0,1.02 0.21,2.02 0.55,2.89 0.25,0.67 1.18,2.09 1.71,2.58 0.7,0.7 1.56,1.3 2.44,1.66 0.94,0.36 1.96,0.58 3.01,0.58 1.06,0 2.07,-0.2 2.91,-0.55l0.19 -0.08c0.86,-0.37 1.69,-0.95 2.38,-1.63 0.7,-0.7 1.3,-1.56 1.66,-2.45 0.36,-0.91 0.56,-1.93 0.56,-3 0,-1.03 -0.22,-2.05 -0.59,-2.97l-1.83 -2.65zm-5.28 -56.22c8.31,0 16.32,1.67 23.62,4.7 7.59,3.13 14.44,7.75 20.1,13.42l0.27 0.28c5.55,5.65 10.07,12.39 13.16,19.84 3.02,7.3 4.69,15.3 4.69,23.6 0,8.32 -1.67,16.32 -4.69,23.62 -3.14,7.6 -7.76,14.44 -13.43,20.11 -5.68,5.69 -12.51,10.29 -20.06,13.42l-0.37 0.14c-7.21,2.92 -15.1,4.56 -23.29,4.56 -8.33,0 -16.34,-1.68 -23.63,-4.7 -7.6,-3.15 -14.43,-7.75 -20.1,-13.42 -5.67,-5.67 -10.29,-12.51 -13.42,-20.11 -3.02,-7.3 -4.7,-15.3 -4.7,-23.62 0,-8.3 1.68,-16.3 4.7,-23.6 3.13,-7.58 7.75,-14.41 13.42,-20.11 5.67,-5.68 12.52,-10.3 20.11,-13.43 7.3,-3.03 15.3,-4.7 23.62,-4.7zm312.28 68.22c4.25,0 8.35,0.86 12.11,2.41 3.88,1.6 7.42,3.98 10.33,6.89l0.27 0.28c2.8,2.87 5.09,6.31 6.64,10.06l0.16 0.4c1.44,3.64 2.27,7.62 2.27,11.72 0,4.24 -0.89,8.35 -2.43,12.09 -1.6,3.88 -3.98,7.42 -6.89,10.34l-0.33 0.29c-2.83,2.76 -6.25,5.05 -10.02,6.6 -3.76,1.55 -7.86,2.41 -12.11,2.41 -4.23,0 -8.33,-0.86 -12.09,-2.41 -3.87,-1.6 -7.42,-4 -10.32,-6.88 -2.94,-2.93 -5.31,-6.42 -6.92,-10.3 -1.57,-3.73 -2.43,-7.87 -2.43,-12.14 0,-4.28 0.86,-8.41 2.43,-12.14l0.11 -0.25c1.61,-3.77 3.95,-7.2 6.78,-10.04 2.93,-2.94 6.47,-5.32 10.32,-6.92 3.74,-1.55 7.85,-2.41 12.12,-2.41zm7.83 23.93c-1.02,-1.02 -2.24,-1.86 -3.55,-2.4 -1.26,-0.51 -2.73,-0.81 -4.28,-0.81 -1.53,0 -2.99,0.3 -4.24,0.8 -1.32,0.56 -2.55,1.39 -3.57,2.41 -1,1 -1.85,2.25 -2.4,3.59l-0.11 0.25c-0.45,1.19 -0.7,2.53 -0.7,3.99 0,1.52 0.29,2.99 0.8,4.24 0.56,1.33 1.41,2.59 2.39,3.57 1.99,1.98 4.78,3.23 7.83,3.23 1.55,0 3.01,-0.3 4.26,-0.81 1.32,-0.54 2.55,-1.4 3.57,-2.42l0.22 -0.2c0.89,-0.95 1.66,-2.13 2.18,-3.37l0.11 -0.23c0.45,-1.21 0.7,-2.59 0.7,-4.01 0,-1.55 -0.29,-3.01 -0.8,-4.24 -0.56,-1.34 -1.4,-2.59 -2.41,-3.59zm97.16 -145.98c4.97,0 9.73,1 14.07,2.8l0.34 0.16c4.37,1.85 8.33,4.56 11.59,7.82 3.37,3.36 6.11,7.44 7.97,11.93l0.14 0.38c1.71,4.26 2.67,8.89 2.67,13.68 0,4.95 -1.01,9.71 -2.81,14.05 -1.86,4.5 -4.6,8.58 -7.97,11.95l-0.3 0.28c-3.32,3.24 -7.28,5.89 -11.63,7.69l-0.38 0.14c-4.26,1.71 -8.89,2.67 -13.69,2.67 -4.91,0 -9.66,-1.01 -14.01,-2.81 -4.51,-1.85 -8.58,-4.6 -11.97,-7.97 -3.38,-3.37 -6.12,-7.45 -7.98,-11.95 -1.81,-4.34 -2.81,-9.1 -2.81,-14.05 0,-4.91 1,-9.68 2.81,-14.03 1.86,-4.52 4.6,-8.6 7.97,-11.96l0.29 -0.29c3.32,-3.22 7.3,-5.88 11.67,-7.69 4.36,-1.8 9.12,-2.8 14.03,-2.8zm11.37 25.4c-1.47,-1.47 -3.27,-2.69 -5.21,-3.49 -1.9,-0.77 -3.98,-1.2 -6.16,-1.2 -2.19,0 -4.29,0.43 -6.12,1.17 -1.97,0.83 -3.79,2.07 -5.25,3.52 -1.47,1.48 -2.69,3.28 -3.49,5.22 -0.75,1.83 -1.19,3.95 -1.19,6.15 0,2.2 0.44,4.31 1.18,6.13 0.83,1.97 2.05,3.77 3.5,5.23 1.48,1.47 3.28,2.69 5.24,3.51l0.26 0.12c1.77,0.67 3.78,1.07 5.87,1.07 2.2,0 4.3,-0.44 6.16,-1.21l0.3 -0.11c1.83,-0.8 3.52,-1.96 4.91,-3.37 1.49,-1.5 2.71,-3.29 3.5,-5.2 0.75,-1.84 1.19,-3.96 1.19,-6.17 0,-2.22 -0.44,-4.32 -1.19,-6.17 -0.8,-1.92 -2.02,-3.72 -3.5,-5.2zm-242.4 -116.03l-65.84 0 0 257.69 65.84 0 0 -257.69zm-68.09 -20.7l70.36 0c2.46,0 4.87,0.5 7.07,1.41l0.37 0.17c2.1,0.92 4.01,2.25 5.58,3.82l0.31 0.33c1.55,1.64 2.82,3.58 3.7,5.68 0.89,2.18 1.42,4.58 1.42,7.03l0 262.19c0,2.38 -0.48,4.68 -1.3,6.76l-0.17 0.4c-0.86,2 -2.08,3.86 -3.54,5.43l-0.33 0.34c-1.75,1.77 -3.79,3.15 -6.03,4.09 -2.21,0.93 -4.62,1.43 -7.08,1.43l-70.36 0c-2.45,0 -4.81,-0.5 -7.04,-1.41 -2.25,-0.94 -4.29,-2.3 -5.96,-3.96 -1.72,-1.74 -3.1,-3.78 -4.03,-6.02 -0.92,-2.19 -1.42,-4.6 -1.42,-7.06l0 -262.19c0,-2.36 0.48,-4.66 1.31,-6.76l0.14 -0.31c0.85,-2.07 2.09,-3.92 3.53,-5.49l0.47 -0.51c1.66,-1.65 3.71,-3.02 5.92,-3.95l0.28 -0.11c2.16,-0.84 4.45,-1.31 6.8,-1.31zm-52.88 -37.51l-131.36 0 -1.76 0.33 -1.72 1.2c-0.78,0.83 -1.28,1.99 -1.28,3.23l0 337.83 0.33 1.8c1.25,1.84 0.81,1.55 2.67,2.64l1.76 0.33 131.36 0 1.84 -0.34c1.69,-1.08 1.5,-0.9 2.58,-2.57l0.36 -1.86 0 -337.83 -0.33 -1.8c-1.22,-1.8 -0.81,-1.52 -2.63,-2.62l-1.82 -0.34zm-131.36 -20.71l131.36 0c3.34,0 6.54,0.68 9.48,1.85l0.53 0.25c2.84,1.22 5.44,2.96 7.63,5.04l0.48 0.49c2.28,2.3 4.17,5.07 5.41,8.1 1.25,3.02 1.96,6.34 1.96,9.74l0 337.83c0,3.41 -0.71,6.73 -1.96,9.75 -1.27,3.09 -3.21,5.92 -5.53,8.24 -2.32,2.32 -5.14,4.21 -8.27,5.51 -2.99,1.27 -6.31,1.98 -9.73,1.98l-131.36 0c-3.34,0 -6.58,-0.68 -9.51,-1.85l-0.62 -0.3c-2.78,-1.21 -5.31,-2.9 -7.46,-4.96l-0.41 -0.38c-2.31,-2.32 -4.21,-5.12 -5.51,-8.24 -1.25,-3.02 -1.96,-6.32 -1.96,-9.75l0 -337.83c0,-3.4 0.71,-6.7 1.96,-9.73 1.27,-3.08 3.18,-5.92 5.51,-8.25 2.32,-2.32 5.16,-4.21 8.29,-5.51 2.99,-1.27 6.31,-1.98 9.71,-1.98zm535.69 31.89l-204.74 0c-1.53,0 -2.99,0.31 -4.29,0.85 -1.38,0.56 -2.65,1.42 -3.67,2.45l-0.23 0.22c-0.94,0.99 -1.72,2.18 -2.26,3.46l-0.09 0.22c-0.47,1.24 -0.74,2.63 -0.74,4.09l0 335.34c0,1.55 0.32,3 0.85,4.3 0.58,1.41 1.43,2.67 2.44,3.67l0.25 0.25c0.97,0.92 2.12,1.69 3.39,2.19l0.31 0.14c1.22,0.47 2.6,0.74 4.04,0.74l204.74 0c1.55,0 3.01,-0.31 4.31,-0.85 1.4,-0.58 2.66,-1.42 3.66,-2.44l0.25 -0.25c0.92,-0.97 1.69,-2.13 2.19,-3.4l0.14 -0.31c0.47,-1.22 0.74,-2.6 0.74,-4.04l0 -335.34c0,-1.55 -0.31,-3.04 -0.81,-4.31 -0.52,-1.22 -1.26,-2.36 -2.15,-3.32l-0.5 -0.48c-1.02,-0.99 -2.24,-1.8 -3.54,-2.33 -1.3,-0.54 -2.76,-0.85 -4.29,-0.85zm-204.74 -20.7l204.74 0c4.29,0 8.42,0.87 12.2,2.44 3.9,1.63 7.44,4.02 10.37,6.95 2.96,2.95 5.35,6.5 6.98,10.4l0.14 0.39c1.47,3.68 2.3,7.69 2.3,11.81l0 335.34c0,4.29 -0.87,8.42 -2.44,12.2l-0.17 0.37c-1.63,3.78 -3.96,7.19 -6.77,10 -3,2.97 -6.53,5.37 -10.41,6.98l-0.39 0.14c-3.68,1.47 -7.68,2.3 -11.81,2.3l-204.74 0c-4.29,0 -8.41,-0.87 -12.18,-2.44l-0.36 -0.16c-3.78,-1.61 -7.19,-3.96 -10.01,-6.78 -2.98,-2.97 -5.37,-6.51 -7,-10.41 -1.57,-3.78 -2.45,-7.91 -2.45,-12.2l0 -335.34c0,-4.24 0.88,-8.36 2.45,-12.15 1.61,-3.92 4.02,-7.47 6.95,-10.42l0.33 -0.33c2.91,-2.8 6.33,-5.09 10.09,-6.65 3.77,-1.57 7.9,-2.44 12.18,-2.44zm69.02 510.44l0 -18.78 -695.73 0 0 18.78 695.73 0zm-716.44 0l0 -29.15c0,-2.8 1.16,-5.43 3.04,-7.29 1.88,-1.88 4.48,-3.04 7.33,-3.04l716.41 0c2.85,0 5.45,1.16 7.32,3.04l0.32 0.34c1.69,1.83 2.72,4.32 2.72,6.95l0 29.15 180.34 0 0 -524.56 -1097.81 0 0 524.56 180.33 0zm-201.04 0l0 -524.56 -19.39 0 0 524.56 19.39 0zm1139.23 -524.56l0 524.56 19.38 0 0 -524.56 -19.38 0zm-1317.8 1289.76l70.7 0c3.36,0 6.61,-0.67 9.47,-1.84 3.01,-1.27 5.8,-3.15 8.1,-5.45 2.3,-2.31 4.18,-5.09 5.43,-8.12 1.21,-2.89 1.88,-6.1 1.88,-9.46l0 -694.74c0,-3.35 -0.67,-6.56 -1.88,-9.44l-0.09 -0.24c-1.25,-2.94 -3.1,-5.65 -5.34,-7.89 -2.3,-2.3 -5.07,-4.18 -8.1,-5.44 -2.89,-1.2 -6.12,-1.88 -9.47,-1.88l-91.15 0c-3.37,0 -6.59,0.68 -9.49,1.88 -3.01,1.26 -5.78,3.14 -8.08,5.44 -2.3,2.3 -4.18,5.07 -5.44,8.08 -1.2,2.9 -1.88,6.12 -1.88,9.49l0 694.74c0,3.37 0.68,6.6 1.88,9.49 1.26,3.01 3.14,5.78 5.44,8.09 4.49,4.49 10.73,7.29 17.57,7.29l20.45 0zm10.34 40.99l29.51 0 0 -20.28 -29.51 0 0 20.28zm1237.04 -693.27c0,-1.33 -0.26,-2.6 -0.72,-3.7 -0.48,-1.17 -1.23,-2.27 -2.11,-3.15 -0.89,-0.91 -2.01,-1.66 -3.18,-2.14 -1.1,-0.46 -2.37,-0.72 -3.68,-0.72l-979.01 0c-1.33,0 -2.59,0.26 -3.68,0.72 -1.15,0.47 -2.26,1.23 -3.17,2.14 -0.87,0.88 -1.62,1.99 -2.11,3.17 -0.45,1.09 -0.72,2.35 -0.72,3.68 0,1.31 0.27,2.56 0.72,3.68 0.49,1.16 1.22,2.25 2.11,3.14 0.9,0.9 1.99,1.65 3.17,2.13 1.09,0.46 2.35,0.73 3.68,0.73l979.01 0c1.33,0 2.58,-0.27 3.69,-0.73 1.18,-0.48 2.28,-1.23 3.15,-2.11 0.91,-0.89 1.65,-1.99 2.13,-3.15 0.46,-1.11 0.72,-2.36 0.72,-3.69zm20.71 0c0,4.07 -0.83,8.01 -2.34,11.6l-0.15 0.36c-1.54,3.59 -3.76,6.83 -6.44,9.51 -5.48,5.48 -13.11,8.91 -21.47,8.91l-979.01 0c-4.09,0 -8.02,-0.83 -11.61,-2.32l-0.36 -0.16c-3.58,-1.53 -6.82,-3.75 -9.5,-6.43 -2.76,-2.76 -5.05,-6.14 -6.58,-9.87 -1.5,-3.6 -2.35,-7.55 -2.35,-11.6 0,-4.09 0.83,-8.02 2.32,-11.61 1.55,-3.71 3.82,-7.08 6.61,-9.87l0.26 -0.25c2.74,-2.69 6.02,-4.88 9.59,-6.35l0.39 -0.14c3.52,-1.41 7.31,-2.18 11.23,-2.18l979.01 0c4.05,0 8,0.83 11.6,2.32 3.73,1.56 7.11,3.83 9.87,6.6 2.77,2.78 5.06,6.14 6.61,9.86l0.14 0.39c1.41,3.52 2.18,7.31 2.18,11.23zm-1089.52 88.58l0 -180.8 -19.39 0 0 180.8 19.39 0zm20.71 -180.8l0 180.8 1097.81 0 0 -180.8 -1097.81 0zm1118.52 0l0 180.8 19.38 0 0 -180.8 -19.38 0zm-70.42 293.7c0,-1.33 -0.26,-2.59 -0.72,-3.68 -0.48,-1.18 -1.23,-2.27 -2.11,-3.15 -0.91,-0.89 -2.02,-1.65 -3.18,-2.13 -1.11,-0.46 -2.37,-0.72 -3.68,-0.72l-979.01 0c-1.32,0 -2.57,0.26 -3.67,0.72 -1.2,0.5 -2.3,1.25 -3.18,2.13 -0.87,0.88 -1.62,1.99 -2.11,3.16 -0.45,1.1 -0.72,2.35 -0.72,3.67 0,1.31 0.27,2.57 0.72,3.68l0.11 0.3c0.49,1.06 1.17,2.05 2,2.89 0.88,0.86 1.98,1.62 3.18,2.12 1.1,0.45 2.35,0.72 3.67,0.72l979.01 0c1.31,0 2.57,-0.27 3.68,-0.72 1.16,-0.49 2.27,-1.24 3.16,-2.13 0.9,-0.9 1.65,-2.01 2.13,-3.17 0.46,-1.11 0.72,-2.36 0.72,-3.69zm20.71 0c0,4.08 -0.83,8.05 -2.34,11.63 -1.52,3.68 -3.79,7.04 -6.59,9.82 -2.79,2.81 -6.14,5.08 -9.84,6.61 -3.6,1.51 -7.56,2.35 -11.63,2.35l-979.01 0c-4.09,0 -8.04,-0.83 -11.62,-2.33 -3.68,-1.52 -7.03,-3.79 -9.84,-6.61 -2.79,-2.76 -5.06,-6.14 -6.59,-9.85 -1.52,-3.59 -2.35,-7.54 -2.35,-11.62 0,-4.06 0.85,-8.01 2.35,-11.61l0.08 -0.17c1.53,-3.63 3.77,-6.97 6.5,-9.69 2.78,-2.79 6.17,-5.06 9.88,-6.61 3.59,-1.49 7.5,-2.32 11.59,-2.32l979.01 0c4.09,0 8.02,0.83 11.6,2.32 3.72,1.55 7.08,3.82 9.87,6.61 2.77,2.77 5.04,6.13 6.58,9.86 1.52,3.59 2.35,7.55 2.35,11.61zm-1089.52 88.61l0 -180.81 -19.39 0 0 180.81 19.39 0zm20.71 -180.81l0 180.81 1097.81 0 0 -180.81 -1097.81 0zm1118.52 0l0 180.81 19.38 0 0 -180.81 -19.38 0zm-70.42 392.73c0,-1.33 -0.26,-2.6 -0.72,-3.69 -0.48,-1.16 -1.22,-2.26 -2.08,-3.1 -0.92,-0.93 -2.02,-1.68 -3.2,-2.16 -1.11,-0.46 -2.36,-0.72 -3.69,-0.72l-979.01 0c-1.33,0 -2.59,0.26 -3.68,0.72 -1.16,0.48 -2.27,1.23 -3.17,2.13 -0.89,0.89 -1.62,1.99 -2.11,3.14 -0.45,1.1 -0.72,2.37 -0.72,3.68 0,1.32 0.27,2.57 0.72,3.69 0.49,1.17 1.24,2.28 2.11,3.16 0.9,0.89 1.99,1.64 3.17,2.13 1.09,0.45 2.35,0.72 3.68,0.72l979.01 0c1.33,0 2.58,-0.27 3.69,-0.72 1.18,-0.49 2.28,-1.24 3.15,-2.12 0.9,-0.89 1.65,-1.98 2.13,-3.16 0.46,-1.11 0.72,-2.36 0.72,-3.7zm20.71 0c0,4.06 -0.83,7.99 -2.32,11.59 -1.55,3.75 -3.84,7.11 -6.61,9.89l-0.27 0.25c-2.71,2.66 -5.98,4.84 -9.55,6.34l-0.23 0.09c-3.56,1.44 -7.43,2.24 -11.42,2.24l-979.01 0c-4.06,0 -7.97,-0.83 -11.59,-2.31 -3.71,-1.52 -7.08,-3.81 -9.87,-6.61 -2.8,-2.79 -5.07,-6.16 -6.62,-9.87 -1.49,-3.59 -2.32,-7.52 -2.32,-11.61 0,-4.05 0.85,-8 2.35,-11.6l0.06 -0.16c1.54,-3.66 3.79,-6.97 6.52,-9.69 2.78,-2.79 6.15,-5.06 9.86,-6.61 3.59,-1.49 7.52,-2.32 11.61,-2.32l979.01 0c4.05,0 7.99,0.83 11.59,2.32 3.74,1.55 7.11,3.84 9.88,6.61 2.76,2.76 5.03,6.11 6.58,9.85 1.52,3.59 2.35,7.55 2.35,11.6zm-1089.52 191.26l0 -382.49 -19.39 0 0 382.49 19.39 0zm20.71 -382.49l0 382.49 1097.81 0 0 -382.49 -1097.81 0zm1118.52 0l0 382.49 19.38 0 0 -382.49 -19.38 0zm125.16 521.43l-29.52 0 0 20.25 29.52 0 0 -20.25zm10.34 40.97l-50.2 0c-2.28,0 -4.48,0.46 -6.42,1.27l-0.33 0.13c-1.89,0.81 -3.65,2.05 -5.14,3.54 -1.53,1.53 -2.83,3.41 -3.68,5.46 -0.79,1.93 -1.25,4.12 -1.25,6.39l0 66.37 2.13 -3.97c6.31,-11.36 14.21,-21.77 23.32,-30.9 8.58,-8.6 18.4,-16.13 29.08,-22.29 9.09,-5.23 18.81,-9.49 28.98,-12.57l-0.93 -3.01c-0.86,-2.07 -2.14,-3.95 -3.68,-5.48 -1.53,-1.54 -3.43,-2.84 -5.46,-3.68 -1.93,-0.8 -4.14,-1.26 -6.42,-1.26zm-134.02 -159.21l0 97.54 183.82 0 0 -91.3c-0.35,-1.85 -0.44,-3.01 -1.83,-4.4 -1.12,-1.12 -2.7,-1.84 -4.41,-1.84l-177.58 0zm-1319.28 97.54l138.49 0 0 -97.54 -177.58 0c-0.86,0 -1.67,0.18 -2.36,0.44 -0.74,0.31 -1.46,0.8 -2.05,1.4 -0.58,0.57 -1.07,1.31 -1.38,2.05 -0.28,0.69 -0.46,1.52 -0.46,2.35l0 91.3 45.34 0zm1298.58 -97.54l-1139.4 0 0 97.54 1139.4 0 0 -97.54zm-1288.24 138.49l29.51 0 0 -20.25 -29.51 0 0 20.25zm-27.16 103.85l2.13 -3.97c6.31,-11.36 14.21,-21.77 23.34,-30.87 8.58,-8.62 18.38,-16.15 29.05,-22.29 9.08,-5.23 18.81,-9.49 28.97,-12.57l-0.92 -3.01c-0.86,-2.07 -2.15,-3.95 -3.68,-5.48 -1.57,-1.57 -3.43,-2.85 -5.44,-3.67 -1.99,-0.81 -4.18,-1.27 -6.45,-1.27l-50.18 0c-2.28,0 -4.48,0.46 -6.42,1.27l-0.33 0.13c-1.89,0.81 -3.65,2.05 -5.13,3.54 -1.54,1.53 -2.84,3.41 -3.68,5.46 -0.8,1.93 -1.26,4.12 -1.26,6.39l0 66.34z"/>
 </g>
</svg>
