<?xml version="1.0" encoding="UTF-8"?>
<!DOCTYPE svg PUBLIC "-//W3C//DTD SVG 1.1//EN" "http://www.w3.org/Graphics/SVG/1.1/DTD/svg11.dtd">
<!-- Creator: CorelDRAW -->
<svg xmlns="http://www.w3.org/2000/svg" xml:space="preserve" width="133.748mm" height="63.15mm" version="1.1" style="shape-rendering:geometricPrecision; text-rendering:geometricPrecision; image-rendering:optimizeQuality; fill-rule:evenodd; clip-rule:evenodd"
viewBox="0 0 13374.8 6315"
 xmlns:xlink="http://www.w3.org/1999/xlink"
 xmlns:xodm="http://www.corel.com/coreldraw/odm/2003">
 <defs>
  <style type="text/css">
   <![CDATA[
    .str0 {stroke:#C5ECF9;stroke-width:20;stroke-linecap:round;stroke-linejoin:round;stroke-miterlimit:22.9256}
    .fil3 {fill:none}
    .fil2 {fill:none}
    .fil0 {fill:#336699}
    .fil1 {fill:#549BBF}
   ]]>
  </style>
   <clipPath id="id0">
    <path d="M1254.23 2.67l10858.09 0c692.03,0 1258.36,566.26 1258.36,1258.39l0 3798.23c0,692.13 -566.33,1258.39 -1258.36,1258.39l-10858.09 0c-692.03,0 -1258.36,-566.26 -1258.36,-1258.39l0 -3798.23c0,-692.13 566.33,-1258.39 1258.36,-1258.39z"/>
   </clipPath>
     <mask id="id1">
  <linearGradient id="id2" gradientUnits="userSpaceOnUse" x1="11474.13" y1="331.74" x2="1601.43" y2="5942.02">
   <stop offset="0" style="stop-opacity:1; stop-color:white"/>
   <stop offset="1" style="stop-opacity:0; stop-color:white"/>
  </linearGradient>
      <rect style="fill:url(#id2)" x="-14.13" y="-7.33" width="13394.81" height="6335.01"/>
     </mask>
     <clipPath id="id3">
      <path d="M1254.23 2.67l10858.09 0c692.03,0 1258.36,566.26 1258.36,1258.39l0 3798.23c0,692.13 -566.33,1258.39 -1258.36,1258.39l-10858.09 0c-692.03,0 -1258.36,-566.26 -1258.36,-1258.39l0 -3798.23c0,-692.13 566.33,-1258.39 1258.36,-1258.39z"/>
     </clipPath>
     <clipPath id="id4">
      <path d="M1254.23 2.67l10858.09 0c692.03,0 1258.36,566.26 1258.36,1258.39l0 3798.23c0,692.13 -566.33,1258.39 -1258.36,1258.39l-10858.09 0c-692.03,0 -1258.36,-566.26 -1258.36,-1258.39l0 -3798.23c0,-692.13 566.33,-1258.39 1258.36,-1258.39z"/>
     </clipPath>
 </defs>
 <g id="Слой_x0020_1">
  <metadata id="CorelCorpID_0Corel-Layer"/>
  <path class="fil0" d="M1254.23 2.67l10858.09 0c692.03,0 1258.36,566.26 1258.36,1258.39l0 3798.23c0,692.13 -566.33,1258.39 -1258.36,1258.39l-10858.09 0c-692.03,0 -1258.36,-566.26 -1258.36,-1258.39l0 -3798.23c0,-692.13 566.33,-1258.39 1258.36,-1258.39z"/>
  <g style="clip-path:url(#id0)">
   <g id="_1642027845568">
    <path id="_1" class="fil1" style="mask:url(#id1)" d="M1254.23 2.67l10858.09 0c692.03,0 1258.36,566.26 1258.36,1258.39l0 3798.23c0,692.13 -566.33,1258.39 -1258.36,1258.39l-10858.09 0c-692.03,0 -1258.36,-566.26 -1258.36,-1258.39l0 -3798.23c0,-692.13 566.33,-1258.39 1258.36,-1258.39z"/>
    <g>
    </g>
    <g style="clip-path:url(#id3)">
     <image x="-2069.35" y="-8488.26" width="24491.79" height="16861.64" xlink:href="блог_главная_Images\блог_главная_ImgID1.png"/>
    </g>
    <g style="clip-path:url(#id4)">
    </g>
    <g>
     <polygon class="fil2 str0" points="10321.93,-3790.74 21805.64,-1497.45 18885.8,5903.02 "/>
     <polygon class="fil2 str0" points="13389.51,-318.43 18046.82,-2248.2 15818.08,2430.56 "/>
     <polygon class="fil2 str0" points="14603.73,1055.99 21805.64,-1497.45 18885.8,5903.02 "/>
     <polygon class="fil2 str0" points="10321.93,-3790.74 11181.78,7888.11 18885.8,5903.02 "/>
     <polygon class="fil2 str0" points="13389.51,-318.43 10900.22,4065.4 15818.08,2430.56 "/>
     <polygon class="fil2 str0" points="14603.73,1055.99 11181.78,7888.11 18885.8,5903.02 "/>
     <polygon class="fil3 str0" points="14603.73,1055.99 16852.65,258.46 15818.08,2430.56 "/>
     <polygon class="fil3 str0" points="14603.73,1055.99 13535,3189.42 15818.08,2430.56 "/>
     <polygon class="fil2 str0" points="9466.08,3373.84 -2017.63,1080.55 902.21,-6319.93 "/>
     <polygon class="fil2 str0" points="6398.5,-98.47 1741.19,1831.3 3969.93,-2847.46 "/>
     <polygon class="fil2 str0" points="5184.28,-1472.89 -2017.63,1080.55 902.21,-6319.93 "/>
     <polygon class="fil2 str0" points="9466.08,3373.84 8606.23,-8305.01 902.21,-6319.93 "/>
     <polygon class="fil2 str0" points="6398.5,-98.47 8887.79,-4482.31 3969.93,-2847.46 "/>
     <polygon class="fil2 str0" points="5184.28,-1472.89 8606.23,-8305.01 902.21,-6319.93 "/>
     <polygon class="fil3 str0" points="5184.28,-1472.89 2935.35,-675.37 3969.93,-2847.46 "/>
     <polygon class="fil3 str0" points="5184.28,-1472.89 6253.01,-3606.32 3969.93,-2847.46 "/>
    </g>
   </g>
  </g>
  <path class="fil3" d="M1254.23 2.67l10858.09 0c692.03,0 1258.36,566.26 1258.36,1258.39l0 3798.23c0,692.13 -566.33,1258.39 -1258.36,1258.39l-10858.09 0c-692.03,0 -1258.36,-566.26 -1258.36,-1258.39l0 -3798.23c0,-692.13 566.33,-1258.39 1258.36,-1258.39z"/>
 </g>
</svg>
