<?xml version="1.0" encoding="UTF-8"?>
<!DOCTYPE svg PUBLIC "-//W3C//DTD SVG 1.1//EN" "http://www.w3.org/Graphics/SVG/1.1/DTD/svg11.dtd">
<!-- Creator: CorelDRAW -->
<svg xmlns="http://www.w3.org/2000/svg" xml:space="preserve" width="18.363mm" height="18.363mm" version="1.1" style="shape-rendering:geometricPrecision; text-rendering:geometricPrecision; image-rendering:optimizeQuality; fill-rule:evenodd; clip-rule:evenodd"
viewBox="0 0 1836.3 1836.3"
 xmlns:xlink="http://www.w3.org/1999/xlink"
 xmlns:xodm="http://www.corel.com/coreldraw/odm/2003">
 <defs>
  <style type="text/css">
   <![CDATA[
    .fil1 {fill:#669933}
    .fil0 {fill:white}
   ]]>
  </style>
 </defs>
 <g id="Слой_x0020_1">
  <metadata id="CorelCorpID_0Corel-Layer"/>
  <g id="_1642020638048">
   <rect class="fil0" x="-4.72" y="4.72" width="1836.29" height="1836.29" rx="480.51" ry="480.51"/>
   <path class="fil1" d="M705.55 885.37c0.17,0.11 0.39,0.15 0.45,0.4l5.48 11.04c2.59,4.71 4.62,6.52 7.3,10.7 2.7,4.25 3.88,6.9 6.43,11.78l31.08 44.05c3.52,4.29 5.33,5.61 8.71,10.49 7.43,10.72 5.41,7.24 12.22,15.14 17.14,19.87 40.27,45.94 60.32,62.47l7.75 5.86c1.29,1.13 1.27,0.98 2.56,2 2.25,1.8 2.61,2.48 4.7,4.39 2.05,1.85 3.62,2.79 5.69,4.53l15.89 11.4c2.83,2.06 2.4,2.33 5.63,4.56l34.31 21.42c7.03,6.09 39.67,20.04 50.31,24.73l41.76 15.08c4.52,1.55 25.94,7.79 28.93,7.62 8.81,0 11.62,2.12 19.13,2.31 22.42,0.6 40.34,1.45 60.46,-6.07 1.47,-0.55 3.29,-2.08 6.24,-3.42 6.93,-3.18 31.3,-15.56 35.99,-19.78l5.22 -5.88c6.01,-6.93 2.29,1.99 14.74,-18.52 6.92,-11.44 3.69,-6.9 6.38,-16.85 1.66,-6.12 3.47,-11.25 3.76,-18.11 0.15,-3.63 -0.34,-7.35 0.34,-10.85 0.83,-4.27 2.15,-4.54 1.25,-9.21 -1.93,-9.89 1.07,1.46 -9.27,-12.89 -5.46,-7.58 -21.91,-12.01 -28.77,-15.88 -2.04,-1.15 -3.8,-2.67 -6.77,-4.07 -8.66,-4.1 -6.24,-2.57 -6.77,-5.99l-23.78 -11.49c-20.68,-8.62 -45.68,-30.84 -61.37,-7.04 -3.15,4.79 -36.48,46.21 -42.4,50.82 -5.73,4.46 -11.74,3.27 -17.66,0.42 -1.06,-0.49 -1.74,-0.74 -3.17,-1.33 -0.27,-0.11 -0.57,-0.22 -0.84,-0.34l-32.14 -13.59 -33.82 -20.64c-4.29,-3.24 -7.79,-4.71 -11.62,-7.74l-34.09 -29.49 -21.38 -25.18c-7.81,-8.02 -6.07,-6.66 -12.31,-15.07 -2,-2.72 -2.91,-2.95 -4.88,-5.25 -1.06,-1.25 -19.54,-28.82 -21.08,-33.33 -1.92,-5.69 -0.73,-12.46 2.29,-14.54 2.21,-6.64 12.63,-15.5 17.75,-21.69 6.13,-7.37 10.48,-13.44 15.07,-22.49 5.37,-10.61 7.58,-16.92 1.49,-30.46l-29.07 -66.21c-1.97,-4.65 -3.46,-8.26 -5.24,-13.06 -7.52,-20.36 -5.14,-13.33 -14.08,-24.44 -3.76,-4.65 -5.09,-6.62 -11.93,-7.74 -15.84,-2.59 -36.45,1.5 -49.48,7.32 -19.98,8.92 -33.23,33.27 -44.25,51.38 -2.23,3.69 -3.29,8.7 -5.01,13.24 -12.31,32.42 -8.17,80.44 6.59,111.37 1.54,3.21 0.95,1.23 2.63,6.26 0.87,2.57 1.72,3.99 2.33,7.86zm-215.56 250.55c5.05,5.49 15.45,25.49 16.16,29.72 2.82,16.66 -9.2,37.79 -12.97,55.85 -3.17,15.35 -2.06,8.39 -5.38,18.49l-9.85 38.28c-6.85,17.43 -11.69,46.77 -15.22,54.03 -2.88,5.9 -3.5,9.74 -5.31,18.49 -3.05,14.48 -6.92,23.44 -10.35,36.03 -0.92,3.37 -1,6.43 -1.9,9.85 -1.08,4.05 -2.25,5.43 -3.28,8.79 -1.9,6.3 -3.91,11.9 -2.79,19.42 2,0.17 1.06,0.28 2.95,-0.15l93.05 -25.79c6.33,-1.72 9.62,-2.57 16.54,-3.87 3.33,-0.65 4.93,-1.44 8.36,-2.08l25.18 -6.6c5.06,-1.78 10.55,-3.44 15.69,-4.42 10.3,-1.97 16.11,-5.28 33.88,-8.36 5.71,-1 2.02,-1.17 7.5,-2.52 2.95,-0.73 6.3,-0.69 9.4,-1.22 6.69,-1.14 9.45,-3.26 16.37,-4.88l16.73 -3.95c19.87,-5.43 17.98,-3.75 31.99,3.25l59.12 24.08c2.38,0.72 6.22,1.37 8.18,2.08 7.34,2.71 7.79,4.54 23.35,7.49 3.23,0.61 5.24,1.3 7.66,2.31l24.95 6.56c5.84,1.17 12.25,1.32 18.24,2.55 12.52,2.55 23.5,4.59 36.81,4.97 57.12,1.65 102.55,1.85 156.99,-10.32l47.19 -13.93c10.04,-3.44 58.53,-20.86 66.05,-27.04 2.78,-2.29 3.86,-2.66 6.91,-4.46 4.4,-2.63 8.2,-4.48 13.4,-7.11l31.99 -20.32c7.73,-6.43 22.21,-14.69 30.43,-21.84 3.73,-3.23 7.17,-6.2 11.06,-9.37 4.3,-3.5 7.21,-6.68 11.31,-10.27 22.06,-19.26 41.76,-41.12 60.44,-63.46 3.86,-4.62 4.99,-7.81 8.15,-12.43 7.69,-11.26 7.98,-7.33 17.6,-24.38 2.98,-5.3 6.07,-8.11 8.81,-12.63 1.59,-2.59 11.85,-25.26 14.88,-26.02l21.25 -49.47c0.11,-0.25 0.24,-0.55 0.34,-0.81 1.26,-2.97 1.72,-3.84 2.77,-6.28 8.47,-19.57 14.18,-40.4 19,-60.67l6.94 -32.89c7.19,-35.79 8.7,-75.64 6.7,-112.45 -1.48,-26.88 -4.22,-38.28 -8.98,-61.1 -0.65,-3.14 -1.29,-4.18 -1.63,-7.22 -1.68,-14.49 -5.86,-27.42 -9.7,-40.67l-6.84 -22.7c-1.1,-4.86 -3.97,-9.72 -5.5,-15 -1.63,-5.59 -3.03,-8.86 -5.22,-14.25 -1.38,-3.38 -1.87,-3.55 -3.48,-6.73 -1.59,-3.14 -1.68,-4.71 -2.84,-7.43l-13.19 -26.52c-2.38,-4.5 -3.56,-8.47 -6.58,-12.86l-14.99 -24.69c-3.61,-6.81 -8.89,-11.85 -12.48,-18.19 -5.1,-8.96 -11.91,-17.92 -19.25,-25.27l-6.27 -8.45c-2.78,-3.26 -2.29,-1.29 -5.13,-5.05 -5.36,-7.15 -11.53,-15.84 -18.05,-21.74 -13.61,-12.31 -26.75,-26.28 -42.06,-37.51 -4.47,-3.27 -5.81,-6.13 -10.12,-9.13 -4.38,-3.06 -8.92,-4.9 -12.89,-7.75 -7.32,-5.26 -15.88,-12.16 -23.44,-16.36l-57.97 -31.7c-7.64,-4.67 -40.97,-16.71 -50.78,-19.11 -5.73,-1.4 -7.73,-4.05 -13.34,-5.54l-64 -15.54c-10.36,-2.18 -24.37,-2.52 -34.73,-4.94 -9.56,-2.23 -25.92,-1.62 -37.03,-1.91 -13.41,-0.34 -26.43,0.25 -39.8,0.42 -15.67,0.21 -36.05,5.12 -53.42,6.2 -15.79,0.96 -32.92,6.54 -48.63,10.7 -4.73,1.25 -11.42,2.36 -16.6,4.18 -18.41,6.43 -36.24,12.57 -53.48,21.27l-43.24 20.47c-6.07,2.59 -8.3,4.1 -13.25,7.28l-17.54 11.95c-2.84,1.95 -3.54,2.49 -6.34,3.85 -12.25,5.98 -24.16,16.49 -33.88,25.34 -2.45,2.25 -3.1,2.51 -5.69,4.52 -14.91,11.47 -33.61,29.54 -46.24,43.57l-23.02 26.98c-10.27,11.57 -14.03,19.51 -20.84,28.02 -3.16,3.91 -5.8,8.35 -8.22,12.15 -2.59,4.05 -4.94,7.38 -7.45,11.88 -2.72,4.87 -5.1,8.16 -7.68,12.72 -2.11,3.7 -3.83,8.6 -6.42,13.06 -5.22,9.02 -8.44,17.07 -12.88,26.98 -13.93,31.04 -12.19,28.57 -22.17,57.38 -1.82,5.2 -3.24,10.15 -5.01,15.27 -3.37,9.8 -6.45,29.44 -9.08,41.22 -4.2,18.83 -6.27,42.29 -8.15,60.93 -2.04,20.02 -0.64,77.08 3.2,95.41 2.78,13.24 2.12,15.96 6.24,33.37 0.75,3.18 0.38,6.49 1.04,9.59 0.7,3.34 1.58,3.08 2.74,7.03 1.4,4.88 2.3,10.3 3.89,15.43 4.63,15.01 7.81,32.63 14.03,46.6 2.12,4.76 3.67,8.41 5.63,13.8 2.73,7.45 10.48,21.53 11.48,27.54zm44.12 -142.98c-1.55,7.24 6.66,33.86 9.02,41.5 2.88,9.28 -0.64,5.41 5.94,19.06 3.29,6.82 5.76,20.77 14.54,36.6 12.51,22.57 10.89,24.88 27.37,49.83 8.92,13.5 5.29,26.03 1.14,42.05l-16.87 59.34c-5.31,15.39 -16.77,52.05 -15.29,62.58 4.59,0.26 45.43,-9.68 56.15,-12.86 4.65,-1.36 6.71,-2.84 12.85,-3.95l68.42 -17.9c16.03,-5.09 32.25,3.83 45.18,12.45 17.32,11.56 36.94,17.04 54.43,24.13 10.83,4.4 36.07,12.17 46.02,13.85l37.35 6.92c16.24,3.75 82.58,4.73 101.15,3.65l44.31 -7.82c6.94,-0.78 7.77,-2.12 13.65,-3.22l21.72 -6.65c5.56,-1.95 10.91,-1.76 18.95,-5.18l30.85 -12.37c10.47,-3.53 54.88,-28.73 61.02,-34.29l25.04 -18.28c1.3,-0.85 4.23,-2.55 5.44,-3.61l26.52 -24.6c3.29,-3.38 6.19,-5.52 9.19,-8.96 3.03,-3.46 4.8,-5.58 8.04,-9.06 9.81,-10.51 23.19,-29.15 31.02,-38.34 3.04,-3.57 4.01,-6.5 6.96,-10.07 5.33,-6.49 9.43,-14.46 13.19,-22.08 4.35,-8.77 8,-10.82 12.8,-22.16 1.82,-4.29 3.58,-8.51 5.07,-12.19 2.1,-5.15 5.37,-7.75 4.54,-12.67 -0.67,-6.92 6.33,-20.3 8.62,-27.36 2.95,-9.01 5.23,-17.86 8.13,-25.76 2.87,-7.87 1.79,-16.53 4.46,-23.16 7.81,-19.51 9.62,-83.07 7.96,-102.83l-5.2 -45.5c-3.22,-18.59 -1.55,-14.26 -6.18,-15.85 0.09,-11.85 -2.18,-31.3 -8.08,-41.15l-0.75 -1.4c-3.31,-6.9 -5.05,-9.7 -6.49,-18.4 -1.7,-10.28 -8.47,-28.09 -12.93,-36.26 -1.93,-3.53 -1.55,-2.21 -2.85,-6.25 -2.91,-9.1 -5.41,-4.88 -10.57,-17.7 -1.46,-3.65 -0.44,-2.82 -3.4,-5.82 -8.27,-8.36 -1.72,-1.76 -5.86,-10.97 -2.42,-5.33 -4.52,-3.91 -6.3,-8.52 -2.21,-5.75 -3.84,-10.33 -7.88,-14.98 -3.88,-4.46 -5.58,-4.74 -8.4,-10.83 -3.7,-7.94 -2.23,-5.84 -8.09,-11.36 -14.31,-13.5 -11.72,-18.81 -18.6,-16.68 1.68,-6.37 -1.93,-5.18 -9.02,-13.61 -5.56,-6.61 -18.43,-12.8 -19.53,-20.6l-4.25 2.3c-0.25,-2.44 -0.06,-1.6 -0.87,-3.12l-8.7 -5.99c-3.51,-1.78 -4.25,-2.8 -6.9,-8.26l-12.42 -8.26c-5.69,-4.12 -20.11,-14.09 -26.92,-15.98 -14.26,-3.97 -11.15,-9.32 -22.69,-8.34 2.56,-5.72 -14.91,-7.39 -20.85,-11.02 -3.27,-2 -2.44,-1.4 -6.11,-3.02 -17.94,-7.89 -9.71,1.55 -17.41,-2.71l5.64 -2.45 -16.55 -5.2c-0.26,-0.15 -1.02,-0.74 -1.3,-0.91 -3.37,-1.89 -6.47,-1.27 -9.34,-1.17 -3.31,0.11 -1,0.53 -3.65,-0.64 -2.53,-1.12 0.23,0.01 -2.13,-1.14l-1.61 -0.76c-1.08,-0.47 -1.44,-0.54 -2.46,-1l-7.43 -2.79c-6.07,-1.84 -13.55,-4.22 -19.68,-4.01 -15.18,0.49 -17.47,-4.22 -25.67,-4.65 -4.39,-0.25 -6.22,-1.82 -10.51,-2.54 -13.37,-2.28 -69.71,-1.62 -85.78,-2.08 -4.63,-0.13 -17.64,0.44 -21.08,1.93l-20.83 9.44c-5.69,-1.84 -0.83,-4.56 -7.13,-4.54 -5.71,0.02 -9.62,2.97 -14.54,4.06 -3.49,0.76 -6.82,2.16 -9.81,2.88 -5.1,1.23 -7.48,-0.04 -14.57,3.1 -0.25,0.09 -0.53,0.24 -0.78,0.34l-23.08 8.73c-6.83,2.4 -2.7,1.8 -6.9,5.47 -8.58,0.07 -12.31,1.03 -18.79,4.38 -5.54,2.87 -1.12,1.91 -5.51,5.62 -3.36,2.81 -12.6,5.01 -18.6,9.81 -3.84,3.08 -7.11,2.91 -11.72,5.27 -6.16,3.16 -8,7.81 -14.27,10.74 -4.01,1.87 -8.96,4.44 -11.67,7.73 -2.28,2.78 -3.99,6.13 -7.63,8.21 -1.06,0.58 -1.04,0.49 -2.29,1.09 -5.84,2.84 -8.85,5.45 -12.48,10.33l-1.02 1.23c-0.23,0.22 -1.02,0.75 -1.29,0.96l-15.93 14.8c-2.8,2.89 -6.92,4.37 -9.83,7.26l-5.85 6.58c-0.15,0.19 -0.37,0.45 -0.53,0.62 -6.59,7.6 -3.87,5.2 -8.11,11.35 -2.09,3.04 -5.97,4.19 -8.47,7.37l-10.03 12.72c-1.36,1.84 -3.16,5.17 -4.54,6.79 -1.72,2.01 -3.76,2.89 -4.94,5.45 -3.1,6.69 -1.66,9.16 -7.8,14.74 -10.34,9.4 -8.7,5.16 -13.43,19.36 -1.45,4.41 -5.04,8.85 -8.3,12.35 -4.51,4.84 -1.56,1.26 -3.8,7.75 -1.6,4.63 -1.81,2.85 -4.21,7.05l-6.94 15.8c-0.96,1.97 -2.61,4.03 -3.8,6.49 -1.66,3.36 -2.02,4.61 -3.65,7.65 -2.53,4.75 -1.7,3.29 -2.29,9.31 -0.66,6.73 -4.65,8.47 -6.69,14.8l-4.95 17.75c-1.38,4.75 -0.45,5.52 -0.93,10.53l-5.56 27.39c-0.66,5.13 0.55,0.97 -1.49,3.92 -3.84,5.54 -1.95,5.54 -2.76,12.89 -1.59,14.39 -3.33,26.64 -3.33,41.23 0,7.43 -0.15,15.39 0.08,22.75 0.45,13.89 3.18,27.83 3.31,42.06 0.09,10.97 2.87,13.29 1.6,19.49z"/>
  </g>
 </g>
</svg>
