<?xml version="1.0" encoding="UTF-8"?>
<!DOCTYPE svg PUBLIC "-//W3C//DTD SVG 1.1//EN" "http://www.w3.org/Graphics/SVG/1.1/DTD/svg11.dtd">
<!-- Creator: CorelDRAW -->
<svg xmlns="http://www.w3.org/2000/svg" xml:space="preserve" width="16.464mm" height="13.525mm" version="1.1" style="shape-rendering:geometricPrecision; text-rendering:geometricPrecision; image-rendering:optimizeQuality; fill-rule:evenodd; clip-rule:evenodd"
viewBox="0 0 1646.4 1352.5"
 xmlns:xlink="http://www.w3.org/1999/xlink"
 xmlns:xodm="http://www.corel.com/coreldraw/odm/2003">
 <defs>
  <style type="text/css">
   <![CDATA[
    .fil0 {fill:#336699;fill-rule:nonzero}
    .fil2 {fill:#549BBF;fill-rule:nonzero}
    .fil1 {fill:#82D7F1;fill-rule:nonzero}
   ]]>
  </style>
 </defs>
 <g id="Слой_x0020_1">
  <metadata id="CorelCorpID_0Corel-Layer"/>
  <g id="_1641697278160">
   <path class="fil0" d="M216.82 901.66c20.59,43.07 2.38,94.72 -40.69,115.31 -43.06,20.59 -94.71,2.37 -115.3,-40.69 -22.15,-46.1 -38.96,-94.3 -50.18,-143.59 -11.41,-50.03 -17.21,-100.66 -17.21,-150.88 0,-187.97 76.22,-358.15 199.39,-481.35 123.18,-123.18 293.43,-199.4 481.36,-199.4 187.96,0 358.14,76.22 481.35,199.4 76.98,76.99 135.61,172.34 168.77,278.9l162.45 -194.41c30.71,-36.7 85.38,-41.56 122.08,-10.85 36.7,30.71 41.55,85.38 10.84,122.08l-281.58 336.98c-15.81,21.49 -41.26,35.47 -69.98,35.47 -12.13,0 -23.68,-2.5 -34.16,-6.99l-416.37 -139.21c-45.31,-15.15 -69.76,-64.21 -54.6,-109.52 15.16,-45.32 64.22,-69.76 109.53,-54.6l293.12 98.01c-22.8,-89.64 -69.48,-169.74 -132.85,-233.11 -91.74,-91.75 -218.56,-148.51 -358.6,-148.51 -140.06,0 -266.86,56.76 -358.61,148.51 -91.74,91.74 -148.5,218.56 -148.5,358.6 0,38.81 4.21,76.68 12.45,112.89 8.42,36.96 20.92,72.87 37.29,106.96z"/>
   <path class="fil1" d="M915.9 1127.82c42.13,-22.66 94.67,-6.86 117.33,35.27 22.66,42.13 6.86,94.68 -35.27,117.34 -24.48,13.24 -51.11,25.41 -79.57,36.37 -27.69,10.65 -55.6,19.43 -83.46,26.2 -46.44,11.22 -93.22,-17.31 -104.44,-63.75 -11.22,-46.45 17.31,-93.22 63.76,-104.44 21.73,-5.29 42.62,-11.8 62.42,-19.41 19.01,-7.32 38.85,-16.55 59.23,-27.58z"/>
   <path class="fil2" d="M586.66 1181.37c47.18,8.24 78.78,53.19 70.55,100.37 -8.24,47.19 -53.19,78.78 -100.38,70.55 -60.55,-10.58 -119.33,-29.45 -174.72,-55.8 -55.27,-26.28 -107.05,-60.08 -153.81,-100.63 -36.14,-31.27 -40.08,-85.94 -8.81,-122.08 31.27,-36.14 85.94,-40.08 122.08,-8.81 34.7,30.1 73.25,55.24 114.47,74.84 41.06,19.54 85.01,33.59 130.62,41.56z"/>
  </g>
 </g>
</svg>
