<?xml version="1.0" encoding="UTF-8"?>
<!DOCTYPE svg PUBLIC "-//W3C//DTD SVG 1.1//EN" "http://www.w3.org/Graphics/SVG/1.1/DTD/svg11.dtd">
<!-- Creator: CorelDRAW -->
<svg xmlns="http://www.w3.org/2000/svg" xml:space="preserve" width="9.424mm" height="9.424mm" version="1.1" style="shape-rendering:geometricPrecision; text-rendering:geometricPrecision; image-rendering:optimizeQuality; fill-rule:evenodd; clip-rule:evenodd"
viewBox="0 0 942.4 942.4"
 xmlns:xlink="http://www.w3.org/1999/xlink"
 xmlns:xodm="http://www.corel.com/coreldraw/odm/2003">
 <defs>
  <style type="text/css">
   <![CDATA[
    .fil0 {fill:#E6E6E6;fill-rule:nonzero}
   ]]>
  </style>
 </defs>
 <g id="Слой_x0020_1">
  <metadata id="CorelCorpID_0Corel-Layer"/>
  <path class="fil0" d="M468.27 2.92c130.11,0 247.93,52.76 333.18,138.01 85.26,85.26 138.02,203.07 138.02,333.19 0,130.12 -52.76,247.94 -138.02,333.19 -85.25,85.25 -203.07,138.02 -333.18,138.02 -130.12,0 -247.94,-52.77 -333.19,-138.02 -85.26,-85.25 -138.02,-203.07 -138.02,-333.19 0,-130.12 52.76,-247.93 138.02,-333.19 85.25,-85.25 203.07,-138.01 333.19,-138.01zm0 169.74c106.02,0 191.97,85.95 191.97,191.97 0,106.03 -85.95,191.98 -191.97,191.98 -106.03,0 -191.98,-85.95 -191.98,-191.98 0,-106.02 85.95,-191.97 191.98,-191.97zm-261.26 649.97c16.91,-51.88 48.84,-96.95 90.62,-130.1 46.86,-37.2 106.19,-59.44 170.64,-59.44 64.44,0 123.77,22.22 170.63,59.44 41.78,33.15 73.71,78.22 90.62,130.1 16.53,-12.41 32.13,-25.95 46.72,-40.54 78.8,-78.79 127.57,-187.71 127.57,-307.97 0,-120.26 -48.77,-229.17 -127.57,-307.97 -78.8,-78.8 -187.72,-127.57 -307.97,-127.57 -120.26,0 -229.18,48.77 -307.98,127.57 -78.8,78.8 -127.57,187.71 -127.57,307.97 0,120.26 48.77,229.18 127.57,307.97 14.59,14.59 30.19,28.13 46.72,40.54z"/>
 </g>
</svg>
