<?xml version="1.0" encoding="UTF-8"?>
<!DOCTYPE svg PUBLIC "-//W3C//DTD SVG 1.1//EN" "http://www.w3.org/Graphics/SVG/1.1/DTD/svg11.dtd">
<!-- Creator: CorelDRAW -->
<svg xmlns="http://www.w3.org/2000/svg" xml:space="preserve" width="69.975mm" height="15.597mm" version="1.1" style="shape-rendering:geometricPrecision; text-rendering:geometricPrecision; image-rendering:optimizeQuality; fill-rule:evenodd; clip-rule:evenodd"
viewBox="0 0 6997.5 1559.7"
 xmlns:xlink="http://www.w3.org/1999/xlink"
 xmlns:xodm="http://www.corel.com/coreldraw/odm/2003">
 <defs>
  <style type="text/css">
   <![CDATA[
    .fil9 {fill:none}
    .fil5 {fill:#32356A}
    .fil8 {fill:#3A81AA}
    .fil2 {fill:#82D7F1}
    .fil0 {fill:white;fill-rule:nonzero}
    .fil1 {fill:white;fill-rule:nonzero}
    .fil4 {fill:#454979}
    .fil7 {fill:#549BBF}
    .fil3 {fill:#707297}
    .fil6 {fill:#82D7F1}
   ]]>
  </style>
    <clipPath id="id0">
     <path d="M104.81 1105.96l743.44 -977.74 743.44 977.74 -743.44 378.96 -743.44 -378.96z"/>
    </clipPath>
 </defs>
 <g id="Слой_x0020_1">
  <metadata id="CorelCorpID_0Corel-Layer"/>
  <g id="_1641225479056">
   <path class="fil0" d="M46.62 1061.82l801.63 -1054.28 854.65 1124.06 -854.65 435.66 -854.69 -435.66 53.06 -69.78zm801.63 -812.94l-632.21 831.47 632.21 322.26 632.2 -322.26 -632.2 -831.47z"/>
   <path class="fil1" d="M2317.1 1151.39l0 -169.3 16.1 18.38c17.21,19.66 33.98,36.61 50.23,50.65 16.14,13.95 31.89,25.2 47.13,33.69 15.26,8.36 30.98,14.66 47.1,18.85 16.04,4.14 32.68,6.25 49.84,6.25 18.2,0 34.43,-2.11 48.51,-6.25 13.83,-4.06 25.81,-10.2 35.78,-18.3 9.87,-8.02 17.32,-17.45 22.21,-28.13 4.92,-10.75 7.42,-23.14 7.42,-37.02 0,-11.51 -1.69,-22.37 -5.05,-32.32 -3.36,-9.92 -8.41,-19.21 -15.1,-27.7 -6.88,-8.86 -18.96,-19.87 -36.07,-33.02 -17.39,-13.36 -40.1,-28.93 -67.88,-46.53 -43.75,-28.23 -79.32,-53.25 -106.68,-75.05 -28.07,-22.34 -47.99,-41.66 -59.66,-57.75 -11.69,-16.28 -20.49,-34.14 -26.3,-53.31 -5.78,-19.26 -8.69,-39.99 -8.69,-62.07 0,-31.17 5.57,-59.63 16.63,-85.31 11.07,-25.72 27.74,-48.72 49.82,-68.79 22.08,-19.95 47.41,-34.95 75.88,-44.92 28.27,-9.92 59.63,-14.92 93.94,-14.92 15.24,0 30.44,1.12 45.52,3.33 15.08,2.22 30.1,5.57 44.94,10 14.64,4.4 29.56,10.1 44.58,16.98 14.95,6.85 29.87,14.89 44.69,23.98l4.37 2.71 0 149.33 -14.94 -12.08c-16.49,-13.3 -32.42,-24.84 -47.79,-34.58 -15,-9.58 -29.5,-17.39 -43.53,-23.43 -13.7,-5.84 -27.42,-10.29 -41.07,-13.23 -13.62,-2.92 -27.26,-4.4 -40.91,-4.4 -16.37,0 -31.19,2 -44.37,5.96 -12.94,3.91 -24.45,9.77 -34.39,17.58 -9.79,7.68 -17.14,16.43 -21.93,26.11 -4.79,9.66 -7.21,20.55 -7.21,32.55 0,16.59 10.47,35.86 31.35,57.71 22.08,23.09 55.36,48.59 99.68,76.34l16.53 9.92c37.32,23.18 68.25,45 92.73,65.44 24.84,20.73 43.27,40.28 55.1,58.46 11.9,18.38 20.85,38.93 26.79,61.5 5.89,22.42 8.88,47 8.88,73.56 0,30.52 -5.6,58.51 -16.72,83.9 -11.14,25.42 -27.88,48.17 -50.15,68.17 -22.16,19.92 -47.49,34.95 -75.9,44.92 -28.26,9.9 -59.5,14.9 -93.69,14.9 -20.99,0 -41.2,-1.54 -60.54,-4.54 -19.3,-3.02 -37.58,-7.6 -54.74,-13.67 -17.26,-5.99 -34.21,-13.82 -50.7,-23.38 -16.37,-9.48 -32.54,-20.91 -48.4,-34.14l-3.34 -2.76 0 -4.27zm3886.46 60.05l0 -517.04 119.72 0 0 50.39c7.84,-6.67 15.68,-12.76 23.46,-18.2 13.05,-9.14 26.2,-16.69 39.25,-22.53 13.12,-5.8 26.82,-10.23 41.03,-13.15 14.17,-2.91 28.8,-4.4 43.78,-4.4 19.29,0 37.1,1.83 53.35,5.39 16.46,3.6 31.48,9.14 44.87,16.41 13.3,7.26 25.62,16.66 36.81,28.1 8.68,8.87 16.72,19 24.09,30.33 12.89,-12.21 25.55,-22.99 37.89,-32.26 15.13,-11.35 29.81,-20.52 43.93,-27.32 14.19,-6.84 28.95,-12 44.18,-15.46 15.26,-3.44 30.94,-5.19 46.87,-5.19 28.73,0 54.56,4.2 77.37,12.56 23.04,8.41 43.07,21.11 60.04,37.96 16.98,16.8 29.74,36.82 38.23,59.94 8.38,22.92 12.6,48.93 12.6,77.78l0 345.88 -120.87 0 0 -319.97c0,-19.97 -2.01,-37.16 -5.99,-51.5 -3.85,-13.81 -9.64,-25.18 -17.24,-33.83 -7.5,-8.51 -17.24,-14.97 -29.06,-19.27 -12.24,-4.45 -26.95,-6.69 -43.98,-6.69 -12.78,0 -24.68,1.22 -35.67,3.59 -10.91,2.35 -20.96,5.91 -29.97,10.55 -9.27,4.61 -18.47,10.91 -27.5,18.72 -8.46,7.32 -16.9,16.07 -25.28,26.12l0 372.28 -117.49 0 0 -319.97c0,-19.71 -2.06,-36.77 -6.12,-51.09 -3.96,-13.85 -9.85,-25.2 -17.58,-33.85 -7.68,-8.7 -17.63,-15.23 -29.68,-19.58 -12.42,-4.51 -27.32,-6.77 -44.58,-6.77 -12.5,0 -24.09,1.17 -34.66,3.54 -10.57,2.32 -20.47,5.89 -29.66,10.6 -9.09,4.63 -18.12,10.86 -27.03,18.59 -8.49,7.34 -17,16.14 -25.39,26.25l0 372.28 -119.72 0 0 -9.19zm-311.22 -41.53c-7.82,6.71 -15.63,12.83 -23.41,18.3 -13,9.14 -26.17,16.69 -39.32,22.58 -13.2,5.88 -26.93,10.36 -40.99,13.3 -14.14,2.95 -28.77,4.43 -43.8,4.43 -28.69,0 -54.55,-4.19 -77.44,-12.55 -23.15,-8.44 -43.22,-21.14 -60.07,-37.99 -16.85,-16.85 -29.55,-36.93 -37.99,-60.13 -8.36,-22.88 -12.55,-48.79 -12.55,-77.57l0 -345.88 120.85 0 0 320.18c0,19.71 2.05,36.77 6.14,50.99 3.96,13.77 9.84,25.1 17.58,33.74 7.68,8.68 17.6,15.24 29.66,19.59 12.42,4.5 27.34,6.77 44.6,6.77 12.4,0 23.98,-1.23 34.71,-3.57 10.63,-2.32 20.49,-5.81 29.53,-10.37 9.14,-4.76 18.23,-11.06 27.21,-18.93 8.54,-7.44 17,-16.3 25.29,-26.4l0 -372 119.72 0 0 526.23 -119.72 0 0 -50.72zm-778.55 41.53l0 -517.04 119.73 0 0 89.24c8.28,-11.9 16.27,-22.55 23.98,-31.98 13.12,-16.06 25.65,-28.74 37.42,-37.88 12,-9.35 24.63,-16.46 37.73,-21.17 13.25,-4.79 27.08,-7.22 41.25,-7.22 9.86,0 19.79,1.12 29.68,3.29l29.84 9.66 -49.19 113.34c-6.95,-2.94 -14.11,-5.2 -21.32,-6.64 -7.16,-1.43 -14.66,-2.18 -22.42,-2.18 -12.42,0 -24.06,2.58 -34.74,7.68 -10.88,5.21 -21.09,13.15 -30.46,23.75 -9.69,10.86 -18.05,23.93 -25,39.11 -6.93,15.1 -12.53,32.49 -16.77,52.02l0 295.21 -119.73 0 0 -9.19zm-119.86 -7.76c-8.41,4.69 -16.98,8.77 -25.72,12.11 -8.88,3.36 -18.13,6.19 -27.61,8.33 -9.32,2.21 -19.01,3.88 -28.85,4.97 -10.34,1.12 -20.88,1.67 -31.51,1.67 -29.47,0 -54.78,-3.57 -75.82,-10.65 -21.67,-7.32 -38.9,-18.44 -51.64,-33.3 -12.57,-14.72 -21.97,-35.18 -28.15,-61.35 -5.96,-25.44 -8.98,-56.48 -8.98,-93.07l0 -231.77 -86.68 0 0 -22.63 182.87 -201.83 24.68 0 0 118.24 158.77 0 0 106.22 -158.77 0 0 224.09c0,20.49 1.25,37.29 3.73,50.21 2.26,11.95 5.52,20.46 9.58,25.44 4.12,4.76 10.29,8.48 18.38,11.01 8.81,2.76 19.9,4.17 33.23,4.17 7.32,0 14.5,-0.47 21.4,-1.41 7.04,-0.91 14.2,-2.37 21.28,-4.27 6.87,-1.93 13.72,-4.4 20.39,-7.32 6.85,-2.97 13.64,-6.48 20.26,-10.44l13.9 -8.33 0 117.28 -4.74 2.63zm-342.47 16.79l0 0.16 -163.31 0 -237.92 -259.74 0 259.74 -119.73 0 0 -787.48 119.73 0 0 487.98 208.78 -226.73 149.65 0 -221 241.1 263.8 284.97zm-642.54 -54.99c-17.31,11.04 -34.76,20.75 -52.36,29.01 -17.61,8.28 -35.62,15.23 -54.09,20.83 -18.28,5.52 -36.95,9.69 -55.93,12.42 -18.88,2.73 -38.04,4.14 -57.44,4.14 -41.12,0 -78.3,-6.43 -111.4,-19.24 -33.25,-12.89 -62.36,-32.27 -87.2,-58.1 -24.79,-25.78 -43.41,-55.9 -55.8,-90.27 -12.29,-34.19 -18.47,-72.55 -18.47,-115.02 0,-38.93 5.99,-74.45 17.89,-106.32 11.93,-32 29.92,-60.36 53.8,-84.91 23.9,-24.58 51.48,-43.07 82.68,-55.36 31.03,-12.24 65.69,-18.39 103.87,-18.39 37.75,0 71.84,6.28 102.02,18.75 30.31,12.53 56.71,31.38 78.97,56.4 22.35,24.98 39.11,54.3 50.18,87.89 11.02,33.33 16.54,70.95 16.54,112.82l0 24.04 -379.81 0c1.95,19.03 6.17,36.19 12.52,51.4 7.4,17.58 17.81,32.76 31.12,45.36 13.31,12.6 28.98,22.11 46.84,28.41 18.1,6.35 38.7,9.58 61.69,9.58 15.65,0 31.64,-1.46 47.86,-4.32 16.33,-2.89 33.1,-7.27 50.15,-12.99 17.35,-5.97 34.84,-13.39 52.42,-22.16 17.58,-8.78 35.62,-19.17 54.03,-31.09l14.19 -9.17 0 123.58 -4.27 2.71zm-365.28 -271.77l247.58 0c-2,-13.57 -5.54,-25.96 -10.57,-37.16 -6.22,-13.75 -14.76,-25.86 -25.62,-36.14 -10.78,-10.29 -23.04,-18.05 -36.58,-23.23 -13.62,-5.18 -28.67,-7.81 -45.1,-7.81 -18.49,0 -35.21,2.45 -49.97,7.32 -14.51,4.79 -27.29,12 -38.2,21.53 -11.04,9.5 -20.18,21.43 -27.42,35.65 -5.97,11.69 -10.7,25.02 -14.12,39.84zm-566.22 -74.14l0 275.32c6.72,4.74 13.41,8.9 20,12.44 7.99,4.17 16.01,7.66 24.01,10.39 16.09,5.26 33.36,7.95 51.69,7.95 24.73,0 46.76,-3.75 66.01,-11.23 18.95,-7.37 35.44,-18.51 49.26,-33.3 13.93,-14.82 24.4,-32.6 31.38,-53.15 7.08,-20.75 10.62,-44.52 10.62,-71.21 0,-26.49 -3.54,-50.08 -10.62,-70.68 -6.98,-20.28 -17.45,-37.86 -31.3,-52.49 -13.85,-14.69 -30.39,-25.78 -49.42,-33.1 -19.17,-7.39 -41.22,-11.14 -65.93,-11.14 -9.22,0 -18.18,0.68 -26.8,1.98 -8.67,1.3 -17.05,3.28 -25,5.8 -8.04,2.56 -16.04,5.97 -23.9,10.08 -6.67,3.54 -13.36,7.66 -20,12.34zm-120.87 647.47l0 -772.64 120.87 0 0 20.55 16.15 -8.88c10.41,-5.16 21.24,-9.48 32.39,-12.92 11.14,-3.35 22.89,-5.85 35.1,-7.49 12.21,-1.67 24.92,-2.5 37.97,-2.5 75.98,0 138.11,25.57 186.07,76.65 23.96,25.5 41.95,54.79 53.9,87.76 11.9,32.86 17.89,69.34 17.89,109.39 0,40.05 -5.99,76.53 -17.89,109.39 -11.95,32.94 -29.94,62.23 -53.9,87.75 -23.95,25.52 -51.56,44.74 -82.65,57.5 -31.09,12.75 -65.62,19.16 -103.42,19.16 -13.44,0 -26.43,-0.81 -38.91,-2.4 -12.26,-1.58 -23.87,-4.01 -34.73,-7.16 -10.94,-3.12 -21.69,-7.24 -32.16,-12.29l-15.81 -8.49 0 275.81 -120.87 0 0 -9.19z"/>
   <polygon class="fil2" points="104.81,1105.96 848.25,128.22 1591.69,1105.96 848.25,1484.92 "/>
   <g style="clip-path:url(#id0)">
    <g>
     <polygon id="_1" class="fil3" points="848.25,128.21 104.81,1105.96 848.25,1484.92 "/>
     <polygon class="fil4" points="848.25,614.19 348.14,785.92 848.25,998.93 "/>
     <polygon class="fil4" points="848.25,806.55 104.81,1105.96 848.25,1484.92 "/>
     <polygon class="fil5" points="848.25,806.55 616.08,900.03 848.25,998.93 "/>
     <polygon class="fil6" points="848.25,128.21 1591.69,1105.96 848.25,1484.92 "/>
     <polygon class="fil7" points="848.25,614.19 1348.36,785.92 848.25,998.93 "/>
     <polygon class="fil7" points="848.25,806.55 1591.69,1105.96 848.25,1484.92 "/>
     <polygon class="fil8" points="848.25,806.55 1080.41,900.03 848.25,998.93 "/>
    </g>
   </g>
   <polygon class="fil9" points="104.81,1105.96 848.25,128.22 1591.69,1105.96 848.25,1484.92 "/>
  </g>
 </g>
</svg>
