<?xml version="1.0" encoding="UTF-8"?>
<!DOCTYPE svg PUBLIC "-//W3C//DTD SVG 1.1//EN" "http://www.w3.org/Graphics/SVG/1.1/DTD/svg11.dtd">
<!-- Creator: CorelDRAW -->
<svg xmlns="http://www.w3.org/2000/svg" xml:space="preserve" width="7.534mm" height="7.534mm" version="1.1" style="shape-rendering:geometricPrecision; text-rendering:geometricPrecision; image-rendering:optimizeQuality; fill-rule:evenodd; clip-rule:evenodd"
viewBox="0 0 753.4 753.4"
 xmlns:xlink="http://www.w3.org/1999/xlink"
 xmlns:xodm="http://www.corel.com/coreldraw/odm/2003">
 <defs>
  <style type="text/css">
   <![CDATA[
    .fil0 {fill:#707297;fill-rule:nonzero}
   ]]>
  </style>
 </defs>
 <g id="Слой_x0020_1">
  <metadata id="CorelCorpID_0Corel-Layer"/>
  <path class="fil0" d="M737.7 691.24c15.19,15.19 15.19,39.86 0,55.06 -15.2,15.19 -39.87,15.19 -55.06,0l-213.64 -213.64c-49.57,37.96 -111.59,60.54 -178.85,60.54 -81.3,0 -154.93,-32.96 -208.21,-86.24 -53.25,-53.44 -86.24,-127.04 -86.24,-208.21 0,-81.12 32.96,-154.69 86.24,-208.05l0.16 -0.16c53.36,-53.28 126.93,-86.24 208.05,-86.24 81.17,0 154.77,32.99 208.13,86.32 53.36,53.21 86.32,126.83 86.32,208.13 0,67.27 -22.58,129.28 -60.54,178.85l213.64 213.64zm-294.4 -545.77c-39.09,-39.09 -93.25,-63.27 -153.15,-63.27 -59.9,0 -114.06,24.18 -153.15,63.27l-0.13 0.13c-39.09,39.09 -63.27,93.25 -63.27,153.15 0,59.9 24.18,114.06 63.27,153.15l0.13 0c39.17,39.17 93.33,63.4 153.15,63.4 59.8,0 113.98,-24.23 153.15,-63.4 39.17,-39.17 63.4,-93.35 63.4,-153.15 0,-59.82 -24.23,-113.98 -63.4,-153.15l0 -0.13z"/>
 </g>
</svg>
