<?xml version="1.0" encoding="UTF-8"?>
<!DOCTYPE svg PUBLIC "-//W3C//DTD SVG 1.1//EN" "http://www.w3.org/Graphics/SVG/1.1/DTD/svg11.dtd">
<!-- Creator: CorelDRAW -->
<svg xmlns="http://www.w3.org/2000/svg" xml:space="preserve" width="31.542mm" height="24.594mm" version="1.1" style="shape-rendering:geometricPrecision; text-rendering:geometricPrecision; image-rendering:optimizeQuality; fill-rule:evenodd; clip-rule:evenodd"
viewBox="0 0 3154.2 2459.4"
 xmlns:xlink="http://www.w3.org/1999/xlink"
 xmlns:xodm="http://www.corel.com/coreldraw/odm/2003">
 <defs>
  <style type="text/css">
   <![CDATA[
    .fil0 {fill:white;fill-rule:nonzero}
   ]]>
  </style>
 </defs>
 <g id="Слой_x0020_1">
  <metadata id="CorelCorpID_0Corel-Layer"/>
  <g id="_1641058444240">
   <path class="fil0" d="M2790.18 2390.66l-41.51 -180.11c-1.88,-8.27 -7.48,-14.77 -15.37,-17.84 -7.94,-3.1 -16.51,-2.09 -23.5,2.75l-22.07 15.3c-86.63,60.03 -188.16,91.76 -293.62,91.76l-1646.36 0c-105.45,0 -206.98,-31.73 -293.62,-91.75l-22.07 -15.32c-6.98,-4.82 -15.54,-5.83 -23.5,-2.74 -7.89,3.08 -13.49,9.57 -15.37,17.81l-41.51 180.14 -14.45 -3.33 41.51 -180.11c2.93,-12.91 12.07,-23.51 24.44,-28.32 12.42,-4.83 26.36,-3.2 37.32,4.36l22.07 15.32c84.15,58.3 182.76,89.11 285.18,89.11l1646.36 0c102.43,0 201.04,-30.81 285.17,-89.11l22.08 -15.31c10.95,-7.58 24.89,-9.2 37.32,-4.37 12.37,4.81 21.51,15.41 24.45,28.34l41.5 180.09 -14.45 3.33z"/>
   <path class="fil0" d="M2714.31 2465.83l-2286.76 0c-50.25,0 -91.14,-40.88 -91.14,-91.14l0 -352.76 14.83 0 0 352.76c0,42.08 34.23,76.31 76.31,76.31l2286.76 0c42.08,0 76.32,-34.23 76.32,-76.31l0 -352.76 14.82 0 0 352.76c0,50.26 -40.88,91.14 -91.14,91.14z"/>
   <path class="fil0" d="M2990.89 1987.57l-2848.15 0c-59.58,0 -108.06,-48.48 -108.06,-108.06l0 -1639.52c0,-59.58 48.48,-108.06 108.06,-108.06l2848.15 0c59.58,0 108.06,48.48 108.06,108.06l0 1639.52c0,59.58 -48.48,108.06 -108.06,108.06zm-2848.15 -1840.81c-51.41,0 -93.23,41.82 -93.23,93.23l0 1639.52c0,51.41 41.82,93.23 93.23,93.23l2848.15 0c51.41,0 93.23,-41.82 93.23,-93.23l0 -1639.52c0,-51.41 -41.82,-93.23 -93.23,-93.23l-2848.15 0z"/>
   <path class="fil0" d="M2811.63 97.6l-14.83 0 0 -35.01c0,-22.79 -18.54,-41.34 -41.34,-41.34l-2369.06 0c-22.79,0 -41.34,18.55 -41.34,41.34l0 35.01 -14.82 0 0 -35.01c0,-30.97 25.19,-56.16 56.16,-56.16l2369.06 0c30.97,0 56.17,25.19 56.17,56.16l0 35.01 0 0z"/>
   <path class="fil0" d="M2116.7 227.14l-1091.54 0c-13.08,0 -23.72,-10.64 -23.72,-23.72 0,-13.4 10.64,-24.05 23.72,-24.05l1091.54 0.01c13.08,0 23.73,10.64 23.73,23.72 0,13.4 -10.65,24.04 -23.73,24.04zm-1091.54 -32.94c-4.91,0 -8.89,3.99 -8.89,8.9 0,5.23 3.98,9.22 8.89,9.22l1091.54 0c4.91,0 8.9,-3.99 8.9,-8.9 0,-5.23 -3.99,-9.22 -8.9,-9.22l-1091.54 0z"/>
   <path class="fil0" d="M2916.64 1824.85l-2691.41 0 0 -1513.7 2691.41 0 0 1513.7zm-2676.58 -14.82l2661.74 0 0 -1484.06 -2661.74 0 0 1484.06z"/>
   <path class="fil0" d="M3003.24 2034.28l-2864.62 0c-79.85,0 -144.81,-64.96 -144.81,-144.8l0.01 -1659.45c0,-79.85 64.96,-144.81 144.8,-144.81l2864.62 0c79.85,0 144.81,64.96 144.81,144.81l0 1659.45c0,79.84 -64.96,144.8 -144.81,144.8zm-2864.62 -1924.36c-66.22,0 -120.1,53.88 -120.1,120.11l0 1659.45c0,66.22 53.88,120.1 120.1,120.1l2864.62 0c66.23,0 120.11,-53.88 120.11,-120.1l0 -1659.45c0,-66.23 -53.88,-120.11 -120.11,-120.11l-2864.62 0z"/>
   <rect class="fil0" x="397.36" y="13.85" width="24.71" height="83.73"/>
   <rect class="fil0" x="2719.8" y="13.86" width="24.71" height="83.73"/>
   <rect class="fil0" x="398.77" y="2030.16" width="24.71" height="153.39"/>
   <rect class="fil0" x="2718.38" y="2030.16" width="24.71" height="153.39"/>
   <path class="fil0" d="M2817.01 2130.56l-18.94 0 0 -14.83 18.94 0c2.86,0 5.18,-2.32 5.18,-5.19l0 -36.48c0,-2.9 -2.32,-5.27 -5.18,-5.27l-18.94 0 0 -14.83 18.94 0.01c11.03,0 20.01,9.01 20.01,20.09l0 36.48c0,11.04 -8.98,20.02 -20.01,20.02z"/>
  </g>
 </g>
</svg>
