<?xml version="1.0" encoding="UTF-8"?>
<!DOCTYPE svg PUBLIC "-//W3C//DTD SVG 1.1//EN" "http://www.w3.org/Graphics/SVG/1.1/DTD/svg11.dtd">
<!-- Creator: CorelDRAW -->
<svg xmlns="http://www.w3.org/2000/svg" xml:space="preserve" width="113.73mm" height="37.448mm" version="1.1" style="shape-rendering:geometricPrecision; text-rendering:geometricPrecision; image-rendering:optimizeQuality; fill-rule:evenodd; clip-rule:evenodd"
viewBox="0 0 11373 3744.8"
 xmlns:xlink="http://www.w3.org/1999/xlink"
 xmlns:xodm="http://www.corel.com/coreldraw/odm/2003">
 <defs>
  <style type="text/css">
   <![CDATA[
    .fil2 {fill:none}
    .fil0 {fill:#336699}
    .fil1 {fill:#549BBF}
   ]]>
  </style>
   <clipPath id="id0">
    <path d="M817.67 0.58l9735.12 0c450.42,0 818.93,368.49 818.93,818.88l0 2107.02c0,450.39 -368.51,818.88 -818.93,818.88l-9735.12 0c-450.43,0 -818.93,-368.49 -818.93,-818.88l0 -2107.02c0,-450.39 368.5,-818.88 818.93,-818.88z"/>
   </clipPath>
     <mask id="id1">
  <linearGradient id="id2" gradientUnits="userSpaceOnUse" x1="8898.64" y1="-860.15" x2="2224.38" y2="4578.46">
   <stop offset="0" style="stop-opacity:1; stop-color:white"/>
   <stop offset="1" style="stop-opacity:0; stop-color:white"/>
  </linearGradient>
      <rect style="fill:url(#id2)" x="-11.26" y="-9.42" width="11392.98" height="3764.78"/>
     </mask>
 </defs>
 <g id="Слой_x0020_1">
  <metadata id="CorelCorpID_0Corel-Layer"/>
  <path class="fil0" d="M817.67 0.58l9735.12 0c450.42,0 818.93,368.49 818.93,818.88l0 2107.02c0,450.39 -368.51,818.88 -818.93,818.88l-9735.12 0c-450.43,0 -818.93,-368.49 -818.93,-818.88l0 -2107.02c0,-450.39 368.5,-818.88 818.93,-818.88z"/>
  <g style="clip-path:url(#id0)">
   <g id="_1642027899232">
    <path id="_1" class="fil1" style="mask:url(#id1)" d="M745 0.58l9880.45 0c410.45,0 746.27,335.79 746.27,746.22l0 2252.34c0,410.43 -335.82,746.22 -746.27,746.22l-9880.45 0c-410.44,0 -746.26,-335.79 -746.26,-746.22l0 -2252.34c0,-410.43 335.82,-746.22 746.26,-746.22z"/>
   </g>
  </g>
  <path class="fil2" d="M817.67 0.58l9735.12 0c450.42,0 818.93,368.49 818.93,818.88l0 2107.02c0,450.39 -368.51,818.88 -818.93,818.88l-9735.12 0c-450.43,0 -818.93,-368.49 -818.93,-818.88l0 -2107.02c0,-450.39 368.5,-818.88 818.93,-818.88z"/>
 </g>
</svg>
