<?xml version="1.0" encoding="UTF-8"?>
<!DOCTYPE svg PUBLIC "-//W3C//DTD SVG 1.1//EN" "http://www.w3.org/Graphics/SVG/1.1/DTD/svg11.dtd">
<!-- Creator: CorelDRAW -->
<svg xmlns="http://www.w3.org/2000/svg" xml:space="preserve" width="182.377mm" height="19.047mm" version="1.1" style="shape-rendering:geometricPrecision; text-rendering:geometricPrecision; image-rendering:optimizeQuality; fill-rule:evenodd; clip-rule:evenodd"
viewBox="0 0 18237.7 1904.7"
 xmlns:xlink="http://www.w3.org/1999/xlink"
 xmlns:xodm="http://www.corel.com/coreldraw/odm/2003">
 <defs>
  <style type="text/css">
   <![CDATA[
    .str0 {stroke:#C5ECF9;stroke-width:20;stroke-linecap:round;stroke-linejoin:round;stroke-miterlimit:22.9256}
    .fil2 {fill:none}
    .fil1 {fill:none}
    .fil0 {fill:url(#id3)}
   ]]>
  </style>
   <clipPath id="id0">
    <path d="M512.38 4.38l17196.49 0c286.33,0 520.63,234.27 520.63,520.6l0 863.49c0,286.34 -234.3,520.6 -520.63,520.6l-17196.49 0c-286.39,0 -520.63,-234.26 -520.63,-520.6l0 -863.49c0,-286.33 234.24,-520.6 520.63,-520.6z"/>
   </clipPath>
     <clipPath id="id1">
      <path d="M1849.29 1909.07l0 -1904.69 15859.58 0c286.33,0 520.63,234.27 520.63,520.6l0 863.49c0,286.34 -234.3,520.6 -520.63,520.6l-15859.58 0z"/>
     </clipPath>
     <clipPath id="id2">
      <path d="M512.38 4.38l17196.49 0c286.33,0 520.63,234.27 520.63,520.6l0 863.49c0,286.34 -234.3,520.6 -520.63,520.6l-17196.49 0c-286.39,0 -520.63,-234.26 -520.63,-520.6l0 -863.49c0,-286.33 234.24,-520.6 520.63,-520.6z"/>
     </clipPath>
  <linearGradient id="id3" gradientUnits="userSpaceOnUse" x1="8459.49" y1="3396.41" x2="9761.77" y2="-1482.96">
   <stop offset="0" style="stop-opacity:1; stop-color:#3D77A5"/>
   <stop offset="1" style="stop-opacity:1; stop-color:#4C8EB6"/>
  </linearGradient>
 </defs>
 <g id="Слой_x0020_1">
  <metadata id="CorelCorpID_0Corel-Layer"/>
  <path class="fil0" d="M512.38 4.38l17196.49 0c286.33,0 520.63,234.27 520.63,520.6l0 863.49c0,286.34 -234.3,520.6 -520.63,520.6l-17196.49 0c-286.39,0 -520.63,-234.26 -520.63,-520.6l0 -863.49c0,-286.33 234.24,-520.6 520.63,-520.6z"/>
  <g style="clip-path:url(#id0)">
   <g id="_1642253264496">
    <g>
    </g>
    <g style="clip-path:url(#id1)">
     <image x="1849.29" y="-8729.12" width="19944.65" height="13732.31" xlink:href="обьявления_комп_Images\обьявления_комп_ImgID1.png"/>
    </g>
    <g style="clip-path:url(#id2)">
    </g>
    <g>
     <polygon class="fil1 str0" points="11940.03,-4902.54 21289.87,-3035.39 18912.59,2989.95 "/>
     <polygon class="fil1 str0" points="14437.61,-2075.45 18229.5,-3646.64 16414.9,162.73 "/>
     <polygon class="fil1 str0" points="15426.2,-956.42 21289.87,-3035.39 18912.59,2989.95 "/>
     <polygon class="fil1 str0" points="11940.03,-4902.54 12640.11,4606.17 18912.59,2989.95 "/>
     <polygon class="fil1 str0" points="14437.61,-2075.45 12410.87,1493.79 16414.9,162.73 "/>
     <polygon class="fil1 str0" points="15426.2,-956.42 12640.11,4606.17 18912.59,2989.95 "/>
     <polygon class="fil2 str0" points="15426.2,-956.42 17257.24,-1605.75 16414.9,162.73 "/>
     <polygon class="fil2 str0" points="15426.2,-956.42 14556.06,780.58 16414.9,162.73 "/>
     <polygon class="fil1 str0" points="11243.22,930.73 1893.38,-936.43 4270.66,-6961.76 "/>
     <polygon class="fil1 str0" points="8745.65,-1896.37 4953.75,-325.18 6768.35,-4134.55 "/>
     <polygon class="fil1 str0" points="7757.05,-3015.39 1893.38,-936.43 4270.66,-6961.76 "/>
     <polygon class="fil1 str0" points="11243.22,930.73 10543.14,-8577.98 4270.66,-6961.76 "/>
     <polygon class="fil1 str0" points="8745.65,-1896.37 10772.38,-5465.61 6768.35,-4134.55 "/>
     <polygon class="fil1 str0" points="7757.05,-3015.39 10543.14,-8577.98 4270.66,-6961.76 "/>
     <polygon class="fil2 str0" points="7757.05,-3015.39 5926.01,-2366.06 6768.35,-4134.55 "/>
     <polygon class="fil2 str0" points="7757.05,-3015.39 8627.19,-4752.39 6768.35,-4134.55 "/>
    </g>
   </g>
  </g>
  <path class="fil2" d="M512.38 4.38l17196.49 0c286.33,0 520.63,234.27 520.63,520.6l0 863.49c0,286.34 -234.3,520.6 -520.63,520.6l-17196.49 0c-286.39,0 -520.63,-234.26 -520.63,-520.6l0 -863.49c0,-286.33 234.24,-520.6 520.63,-520.6z"/>
 </g>
</svg>
