<?xml version="1.0" encoding="UTF-8"?>
<!DOCTYPE svg PUBLIC "-//W3C//DTD SVG 1.1//EN" "http://www.w3.org/Graphics/SVG/1.1/DTD/svg11.dtd">
<!-- Creator: CorelDRAW -->
<svg xmlns="http://www.w3.org/2000/svg" xml:space="preserve" width="140.754mm" height="19.073mm" version="1.1" style="shape-rendering:geometricPrecision; text-rendering:geometricPrecision; image-rendering:optimizeQuality; fill-rule:evenodd; clip-rule:evenodd"
viewBox="0 0 14075.4 1907.3"
 xmlns:xlink="http://www.w3.org/1999/xlink"
 xmlns:xodm="http://www.corel.com/coreldraw/odm/2003">
 <defs>
  <style type="text/css">
   <![CDATA[
    .str0 {stroke:#707297;stroke-width:20;stroke-linecap:round;stroke-linejoin:round;stroke-miterlimit:22.9256}
    .fil2 {fill:none}
    .fil1 {fill:none}
    .fil0 {fill:#454979}
   ]]>
  </style>
   <clipPath id="id0">
    <path d="M520.8 7.12l13032.73 0c286.72,0 521.33,234.59 521.33,521.33l0 864.66c0,286.75 -234.61,521.33 -521.33,521.33l-13032.73 0c-286.73,0 -521.33,-234.58 -521.33,-521.33l0 -864.66c0,-286.74 234.6,-521.33 521.33,-521.33z"/>
   </clipPath>
    <clipPath id="id1">
     <path d="M520.8 7.12l13032.73 0c286.72,0 521.33,234.59 521.33,521.33l0 864.66c0,286.75 -234.61,521.33 -521.33,521.33l-13032.73 0c-286.73,0 -521.33,-234.58 -521.33,-521.33l0 -864.66c0,-286.74 234.6,-521.33 521.33,-521.33z"/>
    </clipPath>
    <clipPath id="id2">
     <path d="M520.8 7.12l13032.73 0c286.72,0 521.33,234.59 521.33,521.33l0 864.66c0,286.75 -234.61,521.33 -521.33,521.33l-13032.73 0c-286.73,0 -521.33,-234.58 -521.33,-521.33l0 -864.66c0,-286.74 234.6,-521.33 521.33,-521.33z"/>
    </clipPath>
 </defs>
 <g id="Слой_x0020_1">
  <metadata id="CorelCorpID_0Corel-Layer"/>
  <path class="fil0" d="M520.8 7.12l13032.73 0c286.72,0 521.33,234.59 521.33,521.33l0 864.66c0,286.75 -234.61,521.33 -521.33,521.33l-13032.73 0c-286.73,0 -521.33,-234.58 -521.33,-521.33l0 -864.66c0,-286.74 234.6,-521.33 521.33,-521.33z"/>
  <g style="clip-path:url(#id0)">
   <g id="_3046293492256">
   </g>
   <g style="clip-path:url(#id1)">
    <image x="-607.69" y="-8740.68" width="19981.32" height="13758.32" xlink:href="оферты_кнопка_комп.версия_Images\оферты_кнопка_комп.версия_ImgID1.png"/>
   </g>
   <g style="clip-path:url(#id2)">
    <g>
     <polygon class="fil1 str0" points="9499.34,-4906.53 18862,-3036.81 16481.46,2996.79 "/>
     <polygon class="fil1 str0" points="12000.34,-2075.56 15797.44,-3648.89 13980.35,165.69 "/>
     <polygon class="fil1 str0" points="12990.29,-954.99 18862,-3036.81 16481.46,2996.79 "/>
     <polygon class="fil1 str0" points="9499.34,-4906.53 10200.38,4615.22 16481.46,2996.79 "/>
     <polygon class="fil1 str0" points="12000.34,-2075.56 9970.82,1498.58 13980.35,165.69 "/>
     <polygon class="fil1 str0" points="12990.29,-954.99 10200.38,4615.22 16481.46,2996.79 "/>
     <polygon class="fil2 str0" points="12990.29,-954.99 14823.84,-1605.21 13980.35,165.69 "/>
     <polygon class="fil2 str0" points="12990.29,-954.99 12118.96,784.39 13980.35,165.69 "/>
     <polygon class="fil1 str0" points="8801.57,934.75 -561.09,-934.97 1819.45,-6968.57 "/>
     <polygon class="fil1 str0" points="6300.57,-1896.23 2503.47,-322.89 4320.56,-4137.47 "/>
     <polygon class="fil1 str0" points="5310.62,-3016.79 -561.09,-934.97 1819.45,-6968.57 "/>
     <polygon class="fil1 str0" points="8801.57,934.75 8100.53,-8587.01 1819.45,-6968.57 "/>
     <polygon class="fil1 str0" points="6300.57,-1896.23 8330.09,-5470.36 4320.56,-4137.47 "/>
     <polygon class="fil1 str0" points="5310.62,-3016.79 8100.53,-8587.01 1819.45,-6968.57 "/>
     <polygon class="fil2 str0" points="5310.62,-3016.79 3477.08,-2366.57 4320.56,-4137.47 "/>
     <polygon class="fil2 str0" points="5310.62,-3016.79 6181.96,-4756.17 4320.56,-4137.47 "/>
    </g>
   </g>
  </g>
  <path class="fil2" d="M520.8 7.12l13032.73 0c286.72,0 521.33,234.59 521.33,521.33l0 864.66c0,286.75 -234.61,521.33 -521.33,521.33l-13032.73 0c-286.73,0 -521.33,-234.58 -521.33,-521.33l0 -864.66c0,-286.74 234.6,-521.33 521.33,-521.33z"/>
 </g>
</svg>
