<?xml version="1.0" encoding="UTF-8"?>
<!DOCTYPE svg PUBLIC "-//W3C//DTD SVG 1.1//EN" "http://www.w3.org/Graphics/SVG/1.1/DTD/svg11.dtd">
<!-- Creator: CorelDRAW -->
<svg xmlns="http://www.w3.org/2000/svg" xml:space="preserve" width="193.828mm" height="30.517mm" version="1.1" style="shape-rendering:geometricPrecision; text-rendering:geometricPrecision; image-rendering:optimizeQuality; fill-rule:evenodd; clip-rule:evenodd"
viewBox="0 0 19382.8 3051.7"
 xmlns:xlink="http://www.w3.org/1999/xlink"
 xmlns:xodm="http://www.corel.com/coreldraw/odm/2003">
 <defs>
  <style type="text/css">
   <![CDATA[
    .str0 {stroke:#707297;stroke-width:20;stroke-linecap:round;stroke-linejoin:round;stroke-miterlimit:22.9256}
    .fil2 {fill:none}
    .fil1 {fill:none}
    .fil0 {fill:#454979}
   ]]>
  </style>
     <clipPath id="id0">
      <path d="M-2.95 6.62l19382.84 0 0 3051.7 -19382.84 0 0 -3051.7z"/>
     </clipPath>
    <clipPath id="id1">
     <path d="M852.1 338.46l17195.81 0c286.74,0 521.33,234.59 521.33,521.33l0 864.66c0,286.75 -234.59,521.33 -521.33,521.33l-17195.81 0c-286.74,0 -521.32,-234.58 -521.32,-521.33l0 -864.66c0,-286.74 234.58,-521.33 521.32,-521.33z"/>
    </clipPath>
      <clipPath id="id2">
       <path d="M2166.58 2245.78l0 -1907.32 15881.33 0c286.74,0 521.33,234.59 521.33,521.33l0 864.66c0,286.75 -234.59,521.33 -521.33,521.33l-15881.33 0z"/>
      </clipPath>
      <clipPath id="id3">
       <path d="M852.1 338.46l17195.81 0c286.74,0 521.33,234.59 521.33,521.33l0 864.66c0,286.75 -234.59,521.33 -521.33,521.33l-17195.81 0c-286.74,0 -521.32,-234.58 -521.32,-521.33l0 -864.66c0,-286.74 234.58,-521.33 521.32,-521.33z"/>
      </clipPath>
 </defs>
 <g id="Слой_x0020_1">
  <metadata id="CorelCorpID_0Corel-Layer"/>
  <g id="_1642297791520">
   <g>
    <g style="clip-path:url(#id0)">
     <image x="-2.95" y="6.62" width="19382.84" height="3051.7" xlink:href="оферты кнопка_комп_Images\оферты кнопка_комп_ImgID1.png"/>
    </g>
   </g>
   <path class="fil0" d="M852.1 338.46l17195.81 0c286.74,0 521.33,234.59 521.33,521.33l0 864.66c0,286.75 -234.59,521.33 -521.33,521.33l-17195.81 0c-286.74,0 -521.32,-234.58 -521.32,-521.33l0 -864.66c0,-286.74 234.58,-521.33 521.32,-521.33z"/>
   <g style="clip-path:url(#id1)">
    <g>
     <g>
     </g>
     <g style="clip-path:url(#id2)">
      <image x="2166.58" y="-8407" width="19971.97" height="13751.11" xlink:href="оферты кнопка_комп_Images\оферты кнопка_комп_ImgID2.png"/>
     </g>
     <g style="clip-path:url(#id3)">
     </g>
     <g>
      <polygon class="fil1 str0" points="12271.14,-4575.19 21633.8,-2705.47 19253.26,3328.13 "/>
      <polygon class="fil1 str0" points="14772.14,-1744.22 18569.24,-3317.55 16752.15,497.03 "/>
      <polygon class="fil1 str0" points="15762.09,-623.65 21633.8,-2705.47 19253.26,3328.13 "/>
      <polygon class="fil1 str0" points="12271.14,-4575.19 12972.18,4946.56 19253.26,3328.13 "/>
      <polygon class="fil1 str0" points="14772.14,-1744.22 12742.62,1829.92 16752.15,497.03 "/>
      <polygon class="fil1 str0" points="15762.09,-623.65 12972.18,4946.56 19253.26,3328.13 "/>
      <polygon class="fil2 str0" points="15762.09,-623.65 17595.64,-1273.87 16752.15,497.03 "/>
      <polygon class="fil2 str0" points="15762.09,-623.65 14890.76,1115.73 16752.15,497.03 "/>
      <polygon class="fil1 str0" points="11573.37,1266.09 2210.71,-603.63 4591.25,-6637.23 "/>
      <polygon class="fil1 str0" points="9072.37,-1564.89 5275.27,8.45 7092.36,-3806.13 "/>
      <polygon class="fil1 str0" points="8082.42,-2685.45 2210.71,-603.63 4591.25,-6637.23 "/>
      <polygon class="fil1 str0" points="11573.37,1266.09 10872.33,-8255.67 4591.25,-6637.23 "/>
      <polygon class="fil1 str0" points="9072.37,-1564.89 11101.89,-5139.02 7092.36,-3806.13 "/>
      <polygon class="fil1 str0" points="8082.42,-2685.45 10872.33,-8255.67 4591.25,-6637.23 "/>
      <polygon class="fil2 str0" points="8082.42,-2685.45 6248.88,-2035.23 7092.36,-3806.13 "/>
      <polygon class="fil2 str0" points="8082.42,-2685.45 8953.76,-4424.83 7092.36,-3806.13 "/>
     </g>
    </g>
   </g>
   <path class="fil2" d="M852.1 338.46l17195.81 0c286.74,0 521.33,234.59 521.33,521.33l0 864.66c0,286.75 -234.59,521.33 -521.33,521.33l-17195.81 0c-286.74,0 -521.32,-234.58 -521.32,-521.33l0 -864.66c0,-286.74 234.58,-521.33 521.32,-521.33z"/>
  </g>
 </g>
</svg>
