<?xml version="1.0" encoding="UTF-8"?>
<!DOCTYPE svg PUBLIC "-//W3C//DTD SVG 1.1//EN" "http://www.w3.org/Graphics/SVG/1.1/DTD/svg11.dtd">
<!-- Creator: CorelDRAW -->
<svg xmlns="http://www.w3.org/2000/svg" xml:space="preserve" width="7.099mm" height="5.603mm" version="1.1" style="shape-rendering:geometricPrecision; text-rendering:geometricPrecision; image-rendering:optimizeQuality; fill-rule:evenodd; clip-rule:evenodd"
viewBox="0 0 709.9 560.3"
 xmlns:xlink="http://www.w3.org/1999/xlink"
 xmlns:xodm="http://www.corel.com/coreldraw/odm/2003">
 <defs>
  <style type="text/css">
   <![CDATA[
    .fil0 {fill:white}
   ]]>
  </style>
 </defs>
 <g id="Слой_x0020_1">
  <metadata id="CorelCorpID_0Corel-Layer"/>
  <path class="fil0" d="M75.45 158.13l179.76 176.39c2.87,3.03 4.64,5.91 7.53,8.86 3,3.05 5.26,5.03 8.35,8.06 22.82,22.37 45.85,51.82 84.34,45.24 18.27,-3.12 31.43,-13.15 40.97,-23.18 5.39,-5.67 11.39,-10.23 17.33,-15.52l217.16 -206.03c2.02,-2.05 -2.16,-0.72 3.15,-2.39l0.38 343.62 -560.23 0.5 -0.53 -335.55c2.16,-2.4 -0.22,-1.09 1.79,0zm30.36 -75.24l489.51 -0.27c-2.91,5.02 -10.72,10.85 -14.62,14.37l-171.48 162.55c-7.56,8.82 -52,46.97 -62.3,59.91 -5.92,-2.65 -161.74,-157.81 -181.52,-177 -9.97,-9.67 -20.52,-18.91 -29.91,-29.74 -6.35,-7.33 -24.74,-26.49 -29.68,-29.82zm-43.25 -73.33c-23.73,4.13 -39.01,16.62 -49.08,30.19 -13.89,18.72 -13.43,39.55 -13.43,66.18l0 316.17c0,23.7 -1.88,56.45 0.45,79.08 2.59,25.31 15.71,39.71 28.61,50.49 17.71,14.82 36.6,15.59 63.95,15.59l474.25 0c20.64,0 60.06,2.19 78.47,-0.99 23.28,-4.02 38.77,-17.31 48.72,-30.38 14.04,-18.43 13.53,-39.85 13.53,-66.07l0 -316.17c0,-57.87 10.31,-97.12 -28.97,-129.65 -18.14,-15.03 -36.36,-15.6 -64.03,-15.59l-474.25 0c-21.09,0 -59.46,-2.11 -78.22,1.15z"/>
 </g>
</svg>
