<?xml version="1.0" encoding="UTF-8"?>
<!DOCTYPE svg PUBLIC "-//W3C//DTD SVG 1.1//EN" "http://www.w3.org/Graphics/SVG/1.1/DTD/svg11.dtd">
<!-- Creator: CorelDRAW -->
<svg xmlns="http://www.w3.org/2000/svg" xml:space="preserve" width="14.194mm" height="14.194mm" version="1.1" style="shape-rendering:geometricPrecision; text-rendering:geometricPrecision; image-rendering:optimizeQuality; fill-rule:evenodd; clip-rule:evenodd"
viewBox="0 0 1419.4 1419.4"
 xmlns:xlink="http://www.w3.org/1999/xlink"
 xmlns:xodm="http://www.corel.com/coreldraw/odm/2003">
 <defs>
  <style type="text/css">
   <![CDATA[
    .fil0 {fill:white;fill-rule:nonzero}
   ]]>
  </style>
 </defs>
 <g id="Слой_x0020_1">
  <metadata id="CorelCorpID_0Corel-Layer"/>
  <path class="fil0" d="M708.23 1.52c195.86,0 373.29,79.46 501.71,207.84 128.49,128.53 207.94,305.96 207.94,501.82 0,195.93 -79.42,373.42 -207.84,501.83 -128.41,128.42 -305.84,207.87 -501.81,207.87 -195.85,0 -373.26,-79.42 -501.73,-207.87 -128.55,-128.57 -207.97,-305.98 -207.97,-501.83 0,-195.97 79.45,-373.4 207.86,-501.82 128.42,-128.41 305.91,-207.84 501.84,-207.84zm197.31 1070.12c35.45,0 66.1,-18.77 92.54,-40.07 2.16,-1.75 3.1,-2.69 5.12,-4.39l14.98 -13.58c20.63,-20.63 49.26,-54.27 49.26,-84.08 0,-18.29 -2.29,-21.38 -12.45,-34.42 -21.44,-27.5 -79.29,-71.1 -107.11,-89.98 -7.92,-5.39 -15.62,-10.69 -23.89,-15.68 -4.31,-2.61 -8.46,-4.36 -13.09,-6.68 -16.32,-8.24 -34.36,-3.9 -45.33,10.08 -17.48,22.24 -27.41,49.96 -41.12,74.63 -8.78,15.86 -25.24,29.08 -46.38,29.08 -9.72,0 -17.1,-4.44 -23.3,-8.21 -25.77,-15.54 -51.79,-31.83 -75.03,-50.96 -7.19,-5.9 -14.57,-11.17 -21.28,-17.56 -9.67,-9.21 -19.85,-17.66 -29.3,-27.12 -2.75,-2.75 -4.93,-4.95 -7.7,-7.7 -1.51,-1.51 -2.51,-2.48 -4.02,-4.01 -1.88,-1.86 -2.1,-2.46 -3.69,-4.37l-30.03 -32.99c-2.77,-3.04 -4.68,-5.63 -7.3,-8.81 -16.94,-20.71 -31.78,-42.87 -43.76,-66.84 -1.78,-3.51 -3.5,-7.41 -5.15,-10.99 -8.16,-17.94 0.3,-46.22 15.87,-55.19 17.67,-10.18 36.46,-15.3 54.78,-26.55 5.9,-3.64 11.12,-6.44 16.83,-10.26 29.25,-19.61 27.66,-37.17 13.15,-65.75 -6.66,-13.09 -12.69,-26.72 -20.02,-39.35l-22.86 -37.19c-5.52,-8.27 -10.64,-15.16 -16.51,-23.06 -5.6,-7.56 -11.99,-14.24 -18.69,-20.87 -12.28,-12.17 -34.48,-28.01 -51.85,-28.01 -21.54,0 -51.74,19.42 -66.47,33.16l-8.7 7.43c-7.32,5.74 -13.98,12.31 -20.63,18.93l-10.93 11.77c-22.06,26.18 -40.11,56.78 -41.99,92.09 -0.16,2.61 -0.51,2.66 -0.51,4.39 0,1.64 0.45,2.39 0.51,5.11 0.16,4.77 0.13,6.04 0.83,10.18 1.11,6.52 2.37,12.23 4.02,18.72 6.54,26.15 19.17,55.11 31.27,79.29l7.86 14.9c1.18,2.45 2.4,4.95 3.64,7.35 23.51,45.16 52.7,88.66 83.51,128.93l29.5 36.44c7.29,7.64 13.49,16.18 20.87,23.8 12.68,13.23 25.42,27.07 39.21,39.19 1.97,1.75 3.56,3.58 5.47,5.52l54.4 45.95c45.12,34.53 67.17,48.26 113.53,76.25 34.07,20.57 85.08,44.22 123.54,55.21 12.25,3.53 24.96,6.27 38.4,6.27zm266.48 -824.25c-118.67,-118.61 -282.66,-192 -463.79,-192 -181.12,0 -345.11,73.42 -463.75,192.06 -118.67,118.66 -192.09,282.63 -192.09,463.73 0,181.17 73.37,345.17 191.98,463.75 118.69,118.72 282.69,192.09 463.86,192.09 181.1,0 345.07,-73.42 463.73,-192.09 118.64,-118.64 192.06,-282.63 192.06,-463.75 0,-181.13 -73.39,-345.12 -192,-463.79z"/>
 </g>
</svg>
