<?xml version="1.0" encoding="UTF-8"?>
<!DOCTYPE svg PUBLIC "-//W3C//DTD SVG 1.1//EN" "http://www.w3.org/Graphics/SVG/1.1/DTD/svg11.dtd">
<!-- Creator: CorelDRAW -->
<svg xmlns="http://www.w3.org/2000/svg" xml:space="preserve" width="18.363mm" height="18.363mm" version="1.1" style="shape-rendering:geometricPrecision; text-rendering:geometricPrecision; image-rendering:optimizeQuality; fill-rule:evenodd; clip-rule:evenodd"
viewBox="0 0 1836.3 1836.3"
 xmlns:xlink="http://www.w3.org/1999/xlink"
 xmlns:xodm="http://www.corel.com/coreldraw/odm/2003">
 <defs>
  <style type="text/css">
   <![CDATA[
    .fil1 {fill:#549BBF}
    .fil0 {fill:white}
   ]]>
  </style>
 </defs>
 <g id="Слой_x0020_1">
  <metadata id="CorelCorpID_0Corel-Layer"/>
  <g id="_1641070068208">
   <rect class="fil0" x="-4.72" y="4.72" width="1836.29" height="1836.29" rx="480.51" ry="480.51"/>
   <path class="fil1" d="M746.08 724.13c-4.05,3.77 -151.04,62.99 -169.93,70.66 -57.46,23.33 -113.88,46.69 -171.57,70.64 -84.55,35.11 -68.53,78.51 -31.25,90.59l136.98 44.68c30.79,10.13 62.87,20.87 97.53,23.48 41.1,3.11 64.82,-3.53 95.05,-23.92 24.76,-16.7 47.44,-31.73 72.31,-48.77l289.42 -194.96c2.64,-1.78 169.55,-122.96 135.75,-42.81 -10.81,25.62 -39.11,50.14 -55.13,65.88 -20.24,19.87 -40.66,40.23 -61.39,59.71 -10.39,9.76 -20.16,20.07 -30.74,29.8 -5.64,5.19 -10.19,9.26 -15.81,14.5l-155.76 146.93c-14.19,13.04 -35.21,29.11 -39.89,51.02 -7.8,36.58 29.13,59.7 46.87,73.75 39.44,31.22 99.53,71.08 142.1,100.11 23.81,16.24 47.56,32.05 72.76,48.31l54.89 35.96c31.53,20.64 59.01,39.62 100.92,50.47 41.91,10.86 68.09,0.39 85.14,-26.99 16.13,-25.92 18.83,-63.82 24.01,-97.09 10.74,-68.94 20.96,-139.62 33.23,-207.98 2.65,-28.81 9.81,-63.42 14.47,-92.37l42.82 -275.06c4.6,-30.66 9.51,-61.32 13.96,-92.05 8.56,-59.16 34.43,-148.92 -44.1,-147.24 -30.09,0.64 -57.2,14.46 -81.48,24.62 -49.53,20.73 -99.85,41.71 -149.87,62.03 -49.91,20.28 -98.97,42.55 -149.46,62.5 -84.49,33.37 -177.08,72.89 -262.69,108.21 -10.86,4.49 -28.43,13 -39.14,15.39z"/>
  </g>
 </g>
</svg>
