<?xml version="1.0" encoding="UTF-8"?>
<!DOCTYPE svg PUBLIC "-//W3C//DTD SVG 1.1//EN" "http://www.w3.org/Graphics/SVG/1.1/DTD/svg11.dtd">
<!-- Creator: CorelDRAW -->
<svg xmlns="http://www.w3.org/2000/svg" xml:space="preserve" width="6.099mm" height="6.068mm" version="1.1" style="shape-rendering:geometricPrecision; text-rendering:geometricPrecision; image-rendering:optimizeQuality; fill-rule:evenodd; clip-rule:evenodd"
viewBox="0 0 609.9 606.8"
 xmlns:xlink="http://www.w3.org/1999/xlink"
 xmlns:xodm="http://www.corel.com/coreldraw/odm/2003">
 <defs>
  <style type="text/css">
   <![CDATA[
    .fil0 {fill:white}
   ]]>
  </style>
 </defs>
 <g id="Слой_x0020_1">
  <metadata id="CorelCorpID_0Corel-Layer"/>
  <path class="fil0" d="M65.29 121.16c-4.75,15.94 -6.71,33.14 -6.74,47.24 0,19.53 3.01,37.41 8.34,54.64 5.43,17.57 13.39,34.7 23.03,52.34 6.96,12.74 19.55,30.26 29.64,44.33l3.31 4.61c4.03,5.73 9.55,12.37 15.28,18.93 5.4,6.17 11.79,13.09 17.29,18.99 13.32,14.34 25.88,27.78 38.19,40.47 12.5,12.88 25.41,25.7 39.73,39.09 28.17,26.42 60.07,52.15 94.88,71.22 33.59,18.41 69.84,30.47 107.75,30.4 16.92,-0.03 35.21,-2.8 51.32,-9.38 12.6,-5.15 23.88,-12.73 31.89,-23.24 13.1,-17.16 12.6,-17.73 4.39,-26.89l-13.89 -15.17 -18.17 -18.61c-12.85,-13.06 -39.54,-40.22 -47.07,-46.79 -2.43,1.53 -5.52,4.25 -8.48,6.88l-37.35 33.03c-23.65,22.15 -25.55,21.11 -49.11,8.08l-20.26 -11.31c-8.41,-5.13 -16.76,-10.12 -24.95,-15.53 -22.73,-15.04 -38.14,-25.23 -60,-46.13 -7.81,-8.11 -17.03,-16.2 -24.42,-24.49 -5.01,-5.42 -9.39,-10.79 -13.5,-15.85 -2.4,-2.96 -4.76,-5.87 -8.05,-9.6 -16.94,-19.31 -35.11,-51.16 -48.76,-75.13l-4.1 -7.08c-10.58,-18.66 -9.45,-19.9 5.87,-35.6 1.92,-1.97 4.54,-4.66 7.7,-8.29 4.96,-4.73 10.19,-11.47 15.12,-16.82 2.16,-2.33 4.27,-4.58 6.44,-7.33 2.54,-3.16 5.27,-6.24 8.11,-9.49 3.45,-4 7.13,-8.19 9.38,-11.22l-0.48 -0.4c-2.16,-2.23 -3.45,-3.82 -4.74,-5.42l-1.13 -1.41 -48.15 -48.19c-7.9,-7.99 -26.36,-26.48 -32.31,-31.38l-1.63 -1.27c-2.03,0.92 -5.58,3.22 -9.58,6.04 -7.84,5.52 -15.62,12.27 -19.55,16.48 -6.79,7.29 -11.75,17.77 -15.24,29.25zm-5.7 -101.03c8.88,-6.16 18.32,-11.59 27.4,-15.64 6.13,-2.73 17.38,-3.67 27.59,-2.79 9.06,0.79 18.85,3.04 25.29,6.69 3.84,2.19 8.54,5.55 12.9,8.97 5,3.86 10.04,8.28 12.98,11.24l4.36 3.95c1.58,1.37 3.17,2.77 5.93,5.54l37.27 36.79c17.15,16.89 46.56,45.86 51.46,60.77 2.44,7.4 3.22,16.47 2.68,24.8 -0.59,9.13 -2.93,18.33 -6.51,24.63 -2.95,5.18 -5.66,9.46 -8.62,13.63 -2.97,4.17 -6.09,8.07 -9.85,12.46 -3.61,4.16 -20.1,21.59 -22.06,25.23 -0.53,0.59 -2.31,-1.61 -3.62,-3.26l-1.26 -1.13 0.49 1c7.87,15.46 20.72,34.16 34.82,51.93 15.43,19.46 32.12,37.55 45.43,49.19 7.92,6.92 13.89,11.85 20.01,16.41 6.38,4.76 12.91,9.12 21.72,14.74l23.82 14.73c2.7,1.61 -10.46,14.58 -4.09,8.32 3.66,-3.4 24.14,-21.45 24.35,-21.95 7.04,-6.2 13.5,-11.13 21.35,-17.06l1.19 -0.9c9.39,-7.12 19.21,-11.62 30.07,-13.31 10.71,-1.66 21.78,-0.42 33.73,3.88 10.54,3.77 30.81,23.39 37.89,30.25 9.09,9.54 18.84,18.81 28.1,28.28 3.27,3.32 6.61,6.78 11.31,11.15l10.55 10.3c3.47,3.55 6.79,7.13 9.89,10.7l6.39 7.02c21.28,22.96 44.37,47.9 15.52,94.84 -8.28,13.46 -12.33,17.73 -18.5,24.26 -7,7.45 -14.16,14.86 -21.65,21.8 -4.51,3.91 -12.71,8.85 -21.13,13.2 -8.77,4.53 -18.46,8.82 -24.59,10.74 -13.3,4.17 -22.2,4.47 -30.08,4.74 -2.36,0.07 -4.62,0.16 -6.97,0.5 -6.46,0.96 -11.83,0.98 -18.15,0.99l-16.57 0.22c-21.69,0.43 -43,0.86 -63.73,-5.19 -10.34,-3.01 -20.56,-6.51 -30.54,-10.48 -9.8,-3.9 -19.24,-8.21 -28.14,-12.88 -16.51,-8.68 -38.19,-21.83 -58.2,-35.62 -17.47,-12.05 -33.77,-24.67 -44.52,-35.42 -21.47,-19.37 -79.27,-72.95 -91.98,-91.12 -22.49,-23.16 -30.15,-33.31 -42.48,-49.61l-11.59 -15.27c-7.25,-9.36 -16.5,-23.65 -24.96,-38.35 -8.19,-14.21 -15.76,-28.92 -20.18,-39.95l-5.7 -14.02c-7.03,-18.64 -11.16,-30.13 -13.62,-42.62 -2.44,-12.38 -3.06,-25.02 -3.04,-45.86l-0.09 -2.29c0,-12.12 0.03,-25.48 1.82,-38.32 0.93,-6.58 2.06,-12.39 3.44,-17.88 1.37,-5.48 3.11,-10.93 5.21,-16.79 4.5,-12.39 8.58,-21.92 13.57,-30.47 5.38,-9.06 11.51,-16.88 19.82,-25.47 7.01,-7.22 15.33,-14.19 24.07,-20.24zm157.2 213.01l-1.36 -1.38 1.36 1.38zm-0.44 -0.56c-0.75,-0.96 -1.2,-1.52 -0.92,-0.82l0.92 0.82z"/>
 </g>
</svg>
